<?xml version="1.0" encoding="UTF-8"?>
<svg id="Layer_1" data-name="Layer 1" xmlns="http://www.w3.org/2000/svg" xmlns:xlink="http://www.w3.org/1999/xlink" viewBox="0 0 270 162">
  <defs>
    <style>
      .cls-1 {
        fill: none;
      }

      .cls-2 {
        clip-path: url(#clippath);
      }

      .cls-3 {
        fill: #fff;
      }

      .cls-4 {
        fill: #dcd621;
      }

      .cls-5, .cls-6, .cls-7, .cls-8, .cls-9 {
        fill: #231f20;
      }

      .cls-6, .cls-7 {
        font-size: 11px;
      }

      .cls-6, .cls-8 {
        font-family: Avenir-Medium, Avenir;
        font-weight: 500;
      }

      .cls-10 {
        clip-path: url(#clippath-1);
      }

      .cls-11 {
        clip-path: url(#clippath-4);
      }

      .cls-12 {
        clip-path: url(#clippath-3);
      }

      .cls-13 {
        clip-path: url(#clippath-2);
      }

      .cls-7 {
        font-family: Avenir-BookOblique, Avenir;
        font-style: oblique;
      }

      .cls-14 {
        fill: #dcd639;
        font-family: Avenir-Heavy, Avenir;
        font-weight: 800;
      }

      .cls-14, .cls-9 {
        font-size: 8px;
      }

      .cls-15 {
        opacity: .5;
      }

      .cls-8 {
        font-size: 15px;
      }

      .cls-9 {
        font-family: Avenir-Light, Avenir;
        font-weight: 300;
      }
    </style>
    <clipPath id="clippath">
      <rect class="cls-1" width="270" height="162"/>
    </clipPath>
    <clipPath id="clippath-1">
      <rect class="cls-1" width="270" height="162"/>
    </clipPath>
    <clipPath id="clippath-2">
      <rect class="cls-1" width="270" height="162"/>
    </clipPath>
    <clipPath id="clippath-3">
      <rect class="cls-1" x="-1" y="-1" width="85.52" height="164"/>
    </clipPath>
    <clipPath id="clippath-4">
      <rect class="cls-1" width="270" height="162"/>
    </clipPath>
  </defs>
  <g class="cls-2">
    <g class="cls-10">
      <g class="cls-13">
        <g class="cls-15">
          <g class="cls-12">
            <rect class="cls-4" width="83.52" height="162"/>
          </g>
        </g>
      </g>
      <text class="cls-8" transform="translate(99.66 62.19)"><tspan x="0" y="0">anna fernandez</tspan></text>
      <text class="cls-7" transform="translate(99.52 73.19)"><tspan x="0" y="0">graphic design</tspan></text>
      <text class="cls-6" transform="translate(172.44 73.19)"><tspan x="0" y="0"> </tspan></text>
      <text class="cls-14" transform="translate(99.72 97)"><tspan x="0" y="0">636.284.5900</tspan></text>
      <text class="cls-9" transform="translate(99.72 108)"><tspan x="0" y="0">anna.c.fernandez4@gmail.com</tspan></text>
      <text class="cls-9" transform="translate(99.72 130)"><tspan x="0" y="0">1028 E. St. Louis St., Apt. 1102 </tspan></text>
      <path class="cls-5" d="m100.65,139.95c.14.24.32.42.54.54.22.12.47.18.76.18.18,0,.34-.03.5-.08.15-.05.29-.13.4-.22.11-.1.21-.21.27-.35.07-.14.1-.29.1-.46,0-.2-.04-.36-.12-.49-.08-.13-.19-.23-.33-.32-.14-.08-.29-.15-.47-.21-.17-.06-.35-.12-.54-.18-.18-.06-.36-.13-.54-.2-.17-.07-.33-.17-.47-.29-.14-.12-.25-.27-.33-.45-.08-.18-.12-.41-.12-.67,0-.25.05-.47.15-.67.1-.19.23-.36.4-.49.17-.13.36-.23.58-.3.22-.07.45-.1.69-.1.31,0,.6.05.86.16.26.11.49.29.68.55l-.46.33c-.13-.19-.29-.33-.47-.42-.18-.09-.39-.14-.64-.14-.17,0-.33.02-.49.07-.15.05-.29.11-.4.2-.11.09-.21.2-.28.33-.07.13-.1.29-.1.47,0,.28.07.5.22.65s.32.27.54.36c.22.09.45.17.7.23.25.07.49.16.7.27.22.11.4.27.54.47.14.2.22.48.22.83,0,.26-.05.48-.14.68-.1.2-.23.36-.39.5-.16.14-.35.24-.56.31-.21.07-.43.1-.66.1-.37,0-.72-.07-1.03-.2-.31-.13-.58-.35-.81-.66l.5-.34Zm4.06-2.65h.48v.65h.02c.07-.13.17-.24.28-.33.11-.09.23-.17.36-.23.13-.06.27-.11.41-.14.14-.03.29-.04.42-.04.28,0,.54.05.78.14.24.1.44.23.62.4.17.17.31.38.4.62.1.24.14.5.14.78s-.05.54-.14.78c-.1.24-.23.44-.4.62-.17.17-.38.31-.62.4-.24.1-.5.14-.78.14-.14,0-.28-.01-.42-.04-.14-.03-.28-.07-.41-.14-.13-.06-.25-.14-.36-.23-.11-.09-.21-.2-.28-.33h-.02v2.47h-.48v-5.52Zm.43,1.85c0,.21.04.4.12.59.08.18.19.34.33.48.14.14.3.24.49.32.19.08.39.12.61.12s.43-.04.61-.12c.18-.08.34-.19.46-.32s.23-.3.29-.48c.07-.18.1-.38.1-.59s-.03-.4-.1-.59c-.07-.18-.16-.34-.29-.48s-.28-.24-.46-.32c-.18-.08-.38-.12-.61-.12s-.42.04-.61.12c-.19.08-.35.19-.49.32-.14.14-.25.3-.33.48-.08.18-.12.38-.12.59Zm4.56-.81c0-.07,0-.15,0-.25,0-.1,0-.2-.01-.3,0-.1,0-.2-.01-.28,0-.09,0-.16,0-.2h.48c0,.14,0,.27.01.4,0,.13,0,.21.02.25.12-.22.28-.4.47-.54.19-.14.43-.21.7-.21.05,0,.09,0,.14.01.05,0,.09.02.14.03l-.06.47c-.06-.02-.13-.03-.18-.03-.21,0-.39.03-.54.1-.15.07-.28.16-.38.28-.1.12-.17.25-.22.41-.05.16-.07.33-.07.51v2.02h-.48v-2.66Zm2.62-2.5c0-.1.03-.19.1-.26.07-.07.15-.1.26-.1s.19.03.26.1c.07.07.1.15.1.26s-.03.19-.1.26c-.07.07-.15.1-.26.1s-.19-.03-.26-.1c-.07-.07-.1-.15-.1-.26Zm.12,1.46h.48v3.7h-.48v-3.7Zm1.84,1.04c0-.07,0-.15,0-.25,0-.1,0-.2-.01-.3,0-.1,0-.2-.01-.28,0-.09,0-.16,0-.2h.48c0,.14,0,.27.01.4,0,.13,0,.21.02.25h.02c.1-.2.26-.38.48-.52.22-.15.49-.22.78-.22s.52.05.7.14c.18.09.32.21.43.36.1.15.18.32.22.51.04.19.06.39.06.59v2.2h-.48v-2.18c0-.15-.01-.29-.04-.44-.03-.14-.07-.27-.14-.38-.07-.11-.16-.2-.28-.27-.12-.07-.28-.1-.47-.1-.18,0-.34.03-.5.09-.16.06-.29.15-.41.28-.11.13-.21.28-.27.47-.07.19-.1.41-.1.67v1.85h-.48v-2.66Zm8.16,2.42c0,.46-.07.83-.2,1.11-.13.28-.3.5-.5.66-.2.15-.41.26-.64.31-.23.05-.44.08-.62.08s-.37-.02-.55-.05c-.18-.03-.35-.09-.51-.15-.16-.07-.31-.15-.44-.24-.13-.1-.24-.21-.34-.33l.38-.35c.17.24.38.42.64.53.26.11.53.17.82.17.25,0,.45-.03.62-.1.17-.06.31-.15.42-.25.11-.1.19-.22.26-.34.06-.13.11-.25.14-.38.03-.13.05-.24.05-.36,0-.11,0-.2,0-.27v-.51h-.02c-.14.22-.33.4-.56.53-.24.13-.52.19-.84.19-.27,0-.53-.05-.77-.15-.24-.1-.45-.23-.63-.41-.18-.17-.32-.37-.42-.6-.1-.23-.16-.47-.16-.74s.05-.51.16-.74c.1-.23.25-.43.42-.6.18-.17.39-.31.63-.41.24-.1.5-.15.77-.15.32,0,.6.06.84.19.24.13.43.3.56.53h.02v-.62h.48v3.46Zm-.46-1.66c0-.2-.04-.39-.12-.57-.08-.18-.18-.33-.31-.46-.13-.13-.29-.23-.46-.31-.18-.08-.37-.12-.57-.12s-.39.04-.57.12c-.18.08-.33.18-.46.31-.13.13-.23.29-.31.46-.08.18-.12.37-.12.57s.04.39.12.57c.08.18.18.33.31.46.13.13.29.23.46.31.18.08.37.12.57.12s.39-.04.57-.12c.18-.08.33-.18.46-.31.13-.13.23-.29.31-.46.08-.18.12-.37.12-.57Zm1.91-1.37h-.77v-.43h.77v-1.21c0-.24.04-.44.11-.6.07-.16.16-.28.27-.38.11-.1.23-.16.36-.2.13-.04.25-.06.37-.06.22,0,.41.03.55.1l-.1.42c-.11-.05-.25-.08-.43-.08-.43,0-.65.33-.65.98v1.03h.86v.43h-.86v3.26h-.48v-3.26Zm1.92-1.9c0-.1.03-.19.1-.26.07-.07.15-.1.26-.1s.19.03.26.1c.07.07.1.15.1.26s-.03.19-.1.26-.15.1-.26.1-.19-.03-.26-.1c-.07-.07-.1-.15-.1-.26Zm.12,1.46h.48v3.7h-.48v-3.7Zm5.1,3c-.19.28-.42.49-.69.61-.27.12-.58.18-.91.18-.28,0-.54-.05-.77-.14-.23-.1-.43-.23-.59-.4-.17-.17-.29-.38-.38-.62-.09-.24-.13-.5-.13-.79s.05-.53.14-.77c.09-.23.22-.44.38-.61.17-.17.36-.31.58-.41.22-.1.47-.15.74-.15s.53.05.75.15c.22.1.4.23.54.39.15.16.26.35.33.56.07.21.11.42.11.63v.34h-3.1c0,.1.02.23.06.39.04.16.11.31.22.46.11.15.25.28.43.38.18.11.41.16.69.16.25,0,.48-.06.71-.18.23-.12.41-.28.53-.48l.35.3Zm-.37-1.46c0-.17-.03-.32-.1-.46-.07-.14-.16-.27-.27-.38-.11-.11-.25-.2-.41-.26-.16-.06-.32-.1-.5-.1-.26,0-.48.05-.65.16-.17.11-.31.23-.41.37-.1.14-.17.27-.22.4-.04.13-.06.22-.06.27h2.62Zm1.63-3.89h.48v6.05h-.48v-6.05Zm5.07,5.4h-.02c-.07.13-.17.24-.28.33-.11.09-.23.17-.36.23-.13.06-.27.11-.41.14-.14.03-.29.04-.42.04-.28,0-.54-.05-.78-.14-.24-.1-.45-.23-.62-.4-.17-.17-.3-.38-.4-.62-.1-.24-.14-.5-.14-.78s.05-.54.14-.78c.1-.24.23-.44.4-.62.17-.17.38-.31.62-.4.24-.1.5-.14.78-.14.14,0,.28.01.42.04.14.03.28.07.41.14.13.06.25.14.36.23.11.09.21.2.28.33h.02v-3h.48v6.05h-.48v-.65Zm.05-1.2c0-.21-.04-.4-.12-.59s-.19-.34-.33-.48c-.14-.14-.3-.24-.49-.32-.19-.08-.39-.12-.61-.12s-.43.04-.61.12c-.18.08-.34.19-.46.32s-.23.3-.29.48c-.07.18-.1.38-.1.59s.03.4.1.59c.07.18.16.34.29.48s.28.24.46.32c.18.08.38.12.61.12s.42-.04.61-.12c.19-.08.35-.19.49-.32.14-.14.25-.3.33-.48s.12-.38.12-.59Zm1.9,1.13h.56l-.62,1.82h-.47l.53-1.82Zm3.95-4.94h.79l2.06,4.75,2.06-4.75h.75v5.66h-.53v-4.99h-.02l-2.16,4.99h-.23l-2.19-4.99h-.02v4.99h-.53v-5.66Zm6.8,2.83c0-.43.07-.83.22-1.19.14-.36.34-.68.6-.94s.56-.47.92-.62c.36-.15.76-.22,1.19-.22s.83.07,1.19.22c.36.15.67.36.92.62s.46.58.6.94c.14.36.22.76.22,1.19s-.07.83-.22,1.2c-.14.37-.34.68-.6.94s-.56.47-.92.62-.76.22-1.19.22-.83-.07-1.19-.22-.67-.35-.92-.62-.46-.58-.6-.94c-.14-.37-.22-.76-.22-1.2Zm.53,0c0,.35.06.68.17.98.11.3.27.57.48.79.21.22.46.4.76.53.3.13.63.19,1,.19s.7-.06,1-.19.55-.3.76-.53c.21-.22.37-.49.48-.79.11-.3.17-.63.17-.98s-.06-.68-.17-.98c-.11-.3-.27-.57-.48-.79-.21-.22-.46-.4-.76-.53s-.63-.19-1-.19-.7.06-1,.19c-.3.13-.55.3-.76.53-.21.22-.37.49-.48.79-.11.3-.17.63-.17.98Z"/>
      <text class="cls-9" transform="translate(156.33 141)"><tspan x="0" y="0"> </tspan></text>
      <text class="cls-9" transform="translate(160.33 141)"><tspan x="0" y="0">65806</tspan></text>
      <g class="cls-11">
        <path class="cls-3" d="m32.77,39.89v-14.97c-.61,1.12-1.93,1.99-4.38,3.62-2.65,1.78-3.87,5.04-3.87,7.84,0,7.03,4.84,7.43,8.25,3.51m-5.35-12.22c3.36-1.43,5.35-2.24,5.35-4.43v-.2c0-1.88-.76-4.58-3.92-4.58s-5.14,3.46-5.7,5.81l-3.41-1.43c2.75-3.51,5.81-4.84,9.11-4.84,6.01,0,10.23,3.72,10.23,9.67v15.63c0,12.53,3.67,14.26,7.03,14.26,3.97,0,6.67-4.89,7.13-9.98l4.99,2.49c-1.99,6.01-7.59,7.94-12.12,7.94-6.47,0-13.34-4.79-13.34-14.71v-2.8c-1.27,1.78-4.38,4.58-7.74,4.58-3.97,0-7.03-3.36-7.03-7.79,0-5.81,5.6-7.99,9.42-9.62"/>
      </g>
    </g>
  </g>
</svg>