<?xml version="1.0" encoding="UTF-8"?>
<svg id="Layer_1" data-name="Layer 1" xmlns="http://www.w3.org/2000/svg" xmlns:xlink="http://www.w3.org/1999/xlink" viewBox="0 0 270 162">
  <defs>
    <style>
      .cls-1 {
        fill: none;
      }

      .cls-2 {
        clip-path: url(#clippath);
      }

      .cls-3 {
        fill: #fff;
      }

      .cls-4 {
        fill: #dcd621;
      }

      .cls-5 {
        clip-path: url(#clippath-1);
      }

      .cls-6 {
        clip-path: url(#clippath-3);
      }

      .cls-7 {
        clip-path: url(#clippath-2);
      }

      .cls-8 {
        opacity: .5;
      }
    </style>
    <clipPath id="clippath">
      <rect class="cls-1" width="270" height="162"/>
    </clipPath>
    <clipPath id="clippath-1">
      <rect class="cls-1" width="270" height="162"/>
    </clipPath>
    <clipPath id="clippath-2">
      <rect class="cls-1" width="270" height="162"/>
    </clipPath>
    <clipPath id="clippath-3">
      <rect class="cls-1" x="-1" y="-1" width="272" height="164"/>
    </clipPath>
  </defs>
  <g class="cls-2">
    <g class="cls-5">
      <g class="cls-7">
        <g class="cls-8">
          <g class="cls-6">
            <rect class="cls-4" width="270" height="162"/>
          </g>
        </g>
        <path class="cls-3" d="m22.98,20.34c1.46-6.35,4.8-14.32,10.04-20.34h-14.02c-4.33,3.46-8.52,7.8-12.58,13.17l16.57,7.17Zm46.74,78.61c-16.57,19.72-40.06,17.67-40.06-17.67,0-14.08,5.94-30.47,18.8-39.43,11.87-8.19,18.3-12.55,21.27-18.18v75.29Zm35.69,63.05c-3.12-10.57-5.03-25.33-5.03-45.9V37.49c0-16.17-5.99-29.05-16.09-37.49h-17.86c2.44,4.42,3.28,9.75,3.28,14.19v1.03c0,11.01-9.65,15.11-25.97,22.28C25.21,45.69-2,56.7-2,85.89c0,22.28,14.84,39.18,34.13,39.18,16.32,0,31.41-14.08,37.59-23.05v14.08c0,19.02,4.85,34.28,12.59,45.9h23.1Z"/>
        <path class="cls-3" d="m199.44,134.93l-27.47-14.22c-1.34,15.43-6.17,30.52-13.68,41.28h24.4c7.17-6.72,13.08-15.58,16.75-27.07"/>
      </g>
    </g>
  </g>
</svg>