<?xml version="1.0" encoding="UTF-8"?>
<svg id="Layer_1" data-name="Layer 1" xmlns="http://www.w3.org/2000/svg" xmlns:xlink="http://www.w3.org/1999/xlink" viewBox="0 0 684.25 297.25">
  <defs>
    <style>
      .cls-1, .cls-2 {
        fill: none;
      }

      .cls-3 {
        letter-spacing: -.09em;
      }

      .cls-4 {
        letter-spacing: 0em;
      }

      .cls-5 {
        clip-path: url(#clippath);
      }

      .cls-6 {
        fill: #dcd621;
      }

      .cls-7, .cls-8, .cls-9 {
        fill: #231f20;
      }

      .cls-10 {
        letter-spacing: -.02em;
      }

      .cls-8 {
        font-family: Avenir-Medium, Avenir;
        font-size: 11px;
        font-weight: 500;
      }

      .cls-11 {
        letter-spacing: -.05em;
      }

      .cls-2 {
        stroke: #939598;
        stroke-width: .25px;
      }

      .cls-12 {
        clip-path: url(#clippath-1);
      }

      .cls-13 {
        clip-path: url(#clippath-3);
      }

      .cls-14 {
        clip-path: url(#clippath-2);
      }

      .cls-15 {
        letter-spacing: -.02em;
      }

      .cls-9 {
        font-family: Avenir-Light, Avenir;
        font-size: 10px;
        font-weight: 300;
      }

      .cls-16 {
        opacity: .5;
      }
    </style>
    <clipPath id="clippath">
      <rect class="cls-1" x=".12" y=".12" width="684" height="297"/>
    </clipPath>
    <clipPath id="clippath-1">
      <rect class="cls-1" x=".12" y=".12" width="684" height="297"/>
    </clipPath>
    <clipPath id="clippath-2">
      <rect class="cls-1" x="17.12" y="20.18" width="82.16" height="81.75"/>
    </clipPath>
    <clipPath id="clippath-3">
      <rect class="cls-1" x=".12" y=".12" width="684" height="297"/>
    </clipPath>
  </defs>
  <g class="cls-5">
    <g class="cls-12">
      <g class="cls-16">
        <g class="cls-14">
          <path class="cls-6" d="m47.55,64.82v-29.83c-1.22,2.23-3.85,3.96-8.73,7.2-5.28,3.55-7.71,10.04-7.71,15.62,0,14,9.64,14.82,16.44,7m-10.65-24.35c6.7-2.84,10.65-4.46,10.65-8.83v-.41c0-3.75-1.52-9.13-7.81-9.13s-10.25,6.9-11.36,11.57l-6.8-2.84c5.48-7,11.57-9.64,18.16-9.64,11.97,0,20.39,7.41,20.39,19.28v31.15c0,24.96,7.31,28.41,14,28.41,7.92,0,13.29-9.74,14.21-19.89l9.94,4.97c-3.96,11.97-15.12,15.83-24.15,15.83-12.89,0-26.58-9.54-26.58-29.32v-5.58c-2.54,3.55-8.73,9.13-15.42,9.13-7.91,0-14-6.7-14-15.53,0-11.57,11.16-15.93,18.77-19.18"/>
        </g>
      </g>
    </g>
    <text class="cls-8" transform="translate(70.69 40.08)"><tspan x="0" y="0">anna fernandez</tspan></text>
    <text class="cls-8" transform="translate(147.11 40.08)"><tspan x="0" y="0"> </tspan></text>
    <text class="cls-8" transform="translate(152.61 40.08)"><tspan x="0" y="0">|</tspan></text>
    <text class="cls-8" transform="translate(155.06 40.08)"><tspan x="0" y="0"> </tspan></text>
    <text class="cls-8" transform="translate(160.56 40.08)"><tspan x="0" y="0">graphic design </tspan></text>
    <text class="cls-9" transform="translate(70.69 56.08)"><tspan x="0" y="0">1028 East St. Louis St</tspan><tspan class="cls-15" x="93.45" y="0">r</tspan><tspan x="96.6" y="0">eet Apt. 1102 </tspan></text>
    <path class="cls-7" d="m71.85,67.77c.17.3.4.52.67.67.28.15.59.22.94.22.22,0,.43-.03.62-.1.19-.07.36-.16.5-.28.14-.12.26-.26.34-.43.08-.17.12-.36.12-.57,0-.25-.05-.45-.16-.61-.1-.16-.24-.29-.41-.4-.17-.1-.37-.19-.59-.26-.22-.07-.44-.15-.67-.22-.23-.07-.45-.16-.67-.25-.22-.09-.41-.21-.58-.36-.17-.15-.31-.34-.42-.57-.1-.23-.15-.51-.15-.84,0-.31.06-.59.18-.83.12-.24.29-.45.5-.61.21-.16.45-.29.72-.37.27-.08.56-.12.86-.12.39,0,.75.07,1.08.21.33.14.61.36.85.68l-.57.41c-.17-.23-.36-.41-.58-.52-.22-.12-.49-.18-.79-.18-.21,0-.42.03-.61.09-.19.06-.36.14-.5.25-.14.11-.26.25-.35.41-.09.17-.13.36-.13.59,0,.35.09.62.27.82s.4.34.67.45c.27.11.56.21.88.29.32.08.61.19.88.34.27.14.5.33.68.58s.27.6.27,1.04c0,.32-.06.6-.18.85-.12.25-.28.46-.49.62-.2.17-.44.3-.7.39-.27.09-.54.13-.83.13-.47,0-.9-.08-1.29-.24-.39-.16-.73-.44-1.01-.82l.63-.42Zm5.07-3.31h.6v.81h.02c.09-.16.21-.3.35-.42.14-.12.29-.21.46-.29.16-.08.33-.13.51-.17.18-.04.36-.06.53-.06.35,0,.68.06.97.18.3.12.55.29.77.51.22.22.38.47.5.77.12.3.18.62.18.98s-.06.68-.18.97c-.12.3-.29.55-.5.77-.22.22-.47.39-.77.51-.3.12-.62.18-.97.18-.17,0-.35-.02-.53-.05-.18-.04-.35-.09-.51-.17-.16-.08-.32-.17-.46-.29-.14-.12-.26-.25-.35-.41h-.02v3.09h-.6v-6.9Zm.54,2.31c0,.26.05.51.15.74s.24.43.41.6c.17.17.38.31.61.4.23.1.49.15.76.15s.53-.05.76-.15c.23-.1.42-.23.58-.4.16-.17.28-.37.36-.6.08-.23.12-.48.12-.74s-.04-.51-.12-.74c-.08-.23-.21-.43-.36-.6-.16-.17-.35-.3-.58-.4-.23-.1-.48-.15-.76-.15s-.53.05-.76.15c-.23.1-.44.24-.61.4-.17.17-.31.37-.41.6s-.15.47-.15.74Zm5.7-1.01c0-.09,0-.19-.01-.31,0-.12-.01-.25-.01-.38,0-.13,0-.25-.01-.36,0-.11-.01-.19-.01-.25h.6c0,.17.01.34.01.5,0,.16.01.26.03.31.15-.27.35-.5.59-.67.24-.17.53-.26.88-.26.06,0,.12,0,.18.01.06.01.11.02.17.04l-.07.59c-.08-.03-.16-.04-.23-.04-.26,0-.49.04-.68.12-.19.08-.35.2-.47.35-.12.15-.21.32-.28.51-.06.2-.09.41-.09.63v2.52h-.6v-3.32Zm3.28-3.13c0-.13.04-.23.13-.32s.19-.13.32-.13.23.04.32.13c.09.09.13.19.13.32s-.04.23-.13.32c-.09.09-.19.13-.32.13s-.23-.04-.32-.13c-.09-.09-.13-.19-.13-.32Zm.15,1.83h.6v4.62h-.6v-4.62Zm2.3,1.3c0-.09,0-.19-.01-.31,0-.12-.01-.25-.01-.38,0-.13,0-.25-.01-.36,0-.11-.01-.19-.01-.25h.6c0,.17.01.34.01.5,0,.16.01.26.03.31h.03c.12-.25.32-.47.6-.65.28-.18.61-.28.98-.28s.65.06.88.17c.23.11.41.26.54.45.13.18.22.4.27.63.05.24.08.49.08.74v2.75h-.6v-2.72c0-.19-.02-.37-.05-.54-.03-.18-.09-.34-.18-.48-.08-.14-.2-.25-.35-.33-.15-.08-.35-.12-.58-.12-.22,0-.43.04-.62.11-.2.08-.37.19-.51.35-.14.16-.26.35-.34.59-.08.24-.12.51-.12.84v2.31h-.6v-3.32Zm10.2,3.02c0,.57-.08,1.04-.25,1.39-.17.35-.38.63-.62.82-.25.19-.52.32-.81.39-.29.07-.55.1-.78.1s-.46-.02-.69-.06c-.22-.04-.43-.11-.63-.19-.2-.08-.38-.18-.55-.31-.16-.12-.31-.26-.42-.41l.47-.44c.21.3.48.52.8.66s.66.21,1.02.21c.31,0,.56-.04.77-.12s.38-.19.52-.32c.14-.13.24-.27.32-.43.08-.16.13-.31.17-.47.04-.16.06-.3.07-.44,0-.14,0-.25,0-.34v-.64h-.02c-.17.28-.41.5-.71.66-.3.16-.64.24-1.04.24-.34,0-.66-.06-.96-.18-.3-.12-.56-.29-.79-.51-.22-.22-.4-.47-.53-.75-.13-.29-.19-.59-.19-.92s.07-.63.19-.92c.13-.29.31-.54.53-.75.22-.21.49-.38.79-.51.3-.13.62-.19.96-.19.4,0,.75.08,1.04.24.3.16.53.38.71.66h.02v-.78h.6v4.32Zm-.58-2.07c0-.25-.05-.49-.15-.72-.1-.22-.23-.42-.39-.58-.16-.16-.36-.29-.58-.39-.22-.1-.46-.15-.72-.15s-.49.05-.71.15c-.22.1-.42.23-.58.39s-.29.36-.39.58c-.1.22-.15.46-.15.72s.05.49.15.71c.1.22.23.42.39.58.16.16.36.29.58.39.22.1.46.15.71.15s.49-.05.72-.15c.22-.1.42-.23.58-.39s.29-.36.39-.58c.1-.22.15-.46.15-.71Zm2.39-1.71h-.96v-.54h.96v-1.51c0-.3.04-.55.14-.74.09-.2.2-.35.33-.48.13-.12.28-.2.44-.25.16-.05.32-.07.46-.07.28,0,.51.04.69.12l-.12.52c-.13-.07-.31-.1-.54-.1-.54,0-.81.41-.81,1.23v1.29h1.08v.54h-1.08v4.08h-.6v-4.08Zm2.4-2.37c0-.13.04-.23.13-.32s.19-.13.32-.13.23.04.32.13c.09.09.13.19.13.32s-.04.23-.13.32c-.09.09-.19.13-.32.13s-.23-.04-.32-.13c-.09-.09-.13-.19-.13-.32Zm.15,1.83h.6v4.62h-.6v-4.62Zm6.38,3.75c-.23.35-.52.61-.86.76-.34.15-.72.23-1.14.23-.35,0-.67-.06-.96-.18-.29-.12-.53-.29-.74-.51-.21-.22-.36-.47-.47-.77-.11-.3-.17-.62-.17-.99s.06-.67.17-.96c.11-.29.27-.55.48-.76.21-.22.45-.39.73-.51.28-.12.59-.19.93-.19s.67.06.94.19c.27.12.5.29.68.49.18.2.32.43.42.7.09.26.14.52.14.79v.42h-3.88c0,.13.03.29.07.49.05.2.14.39.28.57.13.19.31.35.54.48.22.13.51.2.86.2.31,0,.6-.07.89-.22.29-.15.51-.35.66-.6l.44.37Zm-.46-1.83c0-.21-.04-.4-.12-.58-.08-.18-.2-.34-.34-.48-.14-.14-.31-.24-.51-.32-.2-.08-.4-.12-.62-.12-.33,0-.6.07-.82.2-.22.13-.39.29-.51.46-.13.17-.22.34-.27.5-.05.16-.08.28-.08.34h3.28Zm2.04-4.86h.6v7.56h-.6v-7.56Zm6.34,6.75h-.02c-.09.16-.21.3-.35.41-.14.12-.29.21-.46.29-.16.08-.33.13-.51.17-.18.04-.36.05-.53.05-.35,0-.68-.06-.98-.18-.3-.12-.56-.29-.77-.51-.21-.22-.38-.47-.5-.77-.12-.3-.18-.62-.18-.97s.06-.68.18-.98c.12-.3.29-.55.5-.77.21-.22.47-.39.77-.51.3-.12.63-.18.98-.18.17,0,.35.02.53.06.18.04.35.09.51.17.16.08.32.17.46.29.14.12.26.26.35.42h.02v-3.75h.6v7.56h-.6v-.81Zm.06-1.5c0-.26-.05-.51-.15-.74s-.24-.43-.41-.6c-.17-.17-.38-.3-.61-.4-.23-.1-.49-.15-.76-.15s-.53.05-.76.15c-.23.1-.42.24-.58.4-.16.17-.28.37-.36.6-.08.23-.12.47-.12.74s.04.51.12.74c.08.23.21.43.36.6.16.17.35.31.58.4.23.1.48.15.76.15s.53-.05.76-.15c.23-.1.44-.23.61-.4.17-.17.31-.37.41-.6s.15-.48.15-.74Zm2.37,1.41h.7l-.77,2.28h-.59l.66-2.28Zm4.94-6.18h.99l2.58,5.94,2.58-5.94h.94v7.08h-.66v-6.24h-.02l-2.7,6.24h-.29l-2.74-6.24h-.02v6.24h-.66v-7.08Zm8.5,3.54c0-.54.09-1.04.27-1.49.18-.45.43-.85.75-1.18.32-.33.71-.59,1.15-.77.45-.19.95-.28,1.49-.28s1.04.09,1.49.28c.45.19.84.44,1.15.77.32.33.57.72.75,1.18.18.45.27.95.27,1.49s-.09,1.04-.27,1.49c-.18.46-.43.85-.75,1.18-.32.33-.71.59-1.15.77-.45.18-.94.27-1.49.27s-1.04-.09-1.49-.27c-.45-.18-.83-.44-1.15-.77-.32-.33-.57-.72-.75-1.18-.18-.46-.27-.96-.27-1.49Zm.66,0c0,.44.07.85.21,1.23s.34.71.6.99c.26.28.57.5.95.66.37.16.79.24,1.24.24s.88-.08,1.24-.24c.37-.16.69-.38.95-.66.26-.28.46-.61.6-.99s.21-.79.21-1.23-.07-.85-.21-1.23c-.14-.38-.34-.71-.6-.99s-.57-.5-.95-.66c-.37-.16-.78-.24-1.24-.24s-.88.08-1.24.24c-.37.16-.68.38-.95.66-.26.28-.46.61-.6.99-.14.38-.21.79-.21,1.23Z"/>
    <text class="cls-9" transform="translate(141.44 69.08)"><tspan x="0" y="0"> </tspan></text>
    <text class="cls-9" transform="translate(146.44 69.08)"><tspan x="0" y="0">65806</tspan></text>
    <text class="cls-8" transform="translate(432.12 161.63)"><tspan x="0" y="0">Anna Wintor </tspan></text>
    <text class="cls-9" transform="translate(432.12 176.63)"><tspan class="cls-11" x="0" y="0">V</tspan><tspan class="cls-4" x="5.39" y="0">ogue Magazine </tspan></text>
    <text class="cls-9" transform="translate(432.12 189.63)"><tspan x="0" y="0">350 Madison </tspan><tspan class="cls-10" x="59.15" y="0">A</tspan><tspan x="65.82" y="0">ve.</tspan></text>
    <text class="cls-9" transform="translate(432.12 202.63)"><tspan x="0" y="0">New </tspan><tspan class="cls-3" x="22.98" y="0">Y</tspan><tspan x="27.81" y="0">ork, NY</tspan></text>
    <text class="cls-9" transform="translate(492.72 202.63)"><tspan x="0" y="0"> </tspan></text>
    <text class="cls-9" transform="translate(497.72 202.63)"><tspan x="0" y="0">10007</tspan></text>
    <g class="cls-13">
      <rect class="cls-2" x=".12" y=".12" width="684" height="297"/>
    </g>
  </g>
</svg>