<?xml version="1.0" encoding="UTF-8"?>
<svg id="Layer_1" data-name="Layer 1" xmlns="http://www.w3.org/2000/svg" xmlns:xlink="http://www.w3.org/1999/xlink" viewBox="0 0 612 792">
  <defs>
    <style>
      .cls-1 {
        fill: none;
      }

      .cls-2 {
        clip-path: url(#clippath);
      }

      .cls-3 {
        fill: #dcd621;
      }

      .cls-4, .cls-5, .cls-6 {
        fill: #231f20;
      }

      .cls-5 {
        font-family: Avenir-Medium, Avenir;
        font-size: 11px;
        font-weight: 500;
      }

      .cls-7 {
        clip-path: url(#clippath-1);
      }

      .cls-8 {
        clip-path: url(#clippath-2);
      }

      .cls-6 {
        font-family: Avenir-Light, Avenir;
        font-size: 9px;
        font-weight: 300;
      }

      .cls-9 {
        opacity: .5;
      }
    </style>
    <clipPath id="clippath">
      <rect class="cls-1" width="612" height="792"/>
    </clipPath>
    <clipPath id="clippath-1">
      <rect class="cls-1" width="612" height="792"/>
    </clipPath>
    <clipPath id="clippath-2">
      <rect class="cls-1" x="35" y="35.12" width="105.44" height="108.56"/>
    </clipPath>
  </defs>
  <g class="cls-2">
    <g class="cls-7">
      <g class="cls-9">
        <g class="cls-8">
          <path class="cls-3" d="m73.97,94.42v-39.86c-1.57,2.98-4.97,5.29-11.26,9.63-6.81,4.74-9.95,13.42-9.95,20.88,0,18.71,12.44,19.79,21.21,9.36m-13.75-32.54c8.64-3.8,13.75-5.97,13.75-11.79v-.54c0-5.02-1.96-12.2-10.08-12.2s-13.23,9.22-14.67,15.46l-8.77-3.79c7.07-9.35,14.93-12.88,23.44-12.88,15.45,0,26.32,9.9,26.32,25.76v41.62c0,33.35,9.43,37.96,18.07,37.96,10.21,0,17.15-13.02,18.33-26.57l12.83,6.64c-5.11,16-19.51,21.15-31.16,21.15-16.63,0-34.31-12.74-34.31-39.18v-7.46c-3.27,4.75-11.26,12.2-19.9,12.2-10.21,0-18.07-8.95-18.07-20.74,0-15.46,14.4-21.29,24.22-25.62"/>
        </g>
      </g>
    </g>
    <text class="cls-5" transform="translate(106.82 47)"><tspan x="0" y="0">anna fernandez</tspan></text>
    <text class="cls-5" transform="translate(183.24 47)"><tspan x="0" y="0"> </tspan></text>
    <text class="cls-5" transform="translate(188.74 47)"><tspan x="0" y="0">|</tspan></text>
    <text class="cls-5" transform="translate(191.19 47)"><tspan x="0" y="0"> </tspan></text>
    <text class="cls-5" transform="translate(196.69 47)"><tspan x="0" y="0">graphic design </tspan></text>
    <text class="cls-6" transform="translate(106.63 64)"><tspan x="0" y="0">636.284.5900</tspan></text>
    <text class="cls-6" transform="translate(106.64 75)"><tspan x="0" y="0">anna.c.fernandez4@gmail.com</tspan></text>
    <text class="cls-6" transform="translate(105.88 97)"><tspan x="0" y="0">1028 E. St. Louis St., Apt. 1102 </tspan></text>
    <path class="cls-4" d="m107.74,106.82c.16.27.36.47.61.6.25.13.53.2.85.2.2,0,.38-.03.56-.09.17-.06.33-.14.45-.25.13-.11.23-.24.31-.39.07-.15.11-.33.11-.52,0-.22-.05-.4-.14-.55-.09-.14-.22-.26-.37-.36-.16-.09-.33-.17-.53-.24-.2-.07-.4-.13-.6-.2-.21-.07-.41-.14-.6-.23-.2-.08-.37-.19-.53-.33-.16-.14-.28-.3-.37-.51-.09-.2-.14-.46-.14-.76,0-.28.06-.53.17-.75.11-.22.26-.4.45-.55.19-.15.41-.26.65-.33.25-.07.5-.11.77-.11.35,0,.67.06.97.18.3.12.55.33.77.62l-.51.37c-.15-.21-.33-.37-.53-.47-.2-.1-.44-.16-.72-.16-.19,0-.38.03-.55.08-.17.05-.33.13-.45.22-.13.1-.23.22-.31.37-.08.15-.12.33-.12.53,0,.32.08.56.24.73s.36.31.61.41c.24.1.51.19.79.26.28.08.55.18.79.3.24.13.45.3.61.53.16.22.24.54.24.93,0,.29-.05.54-.16.77-.11.22-.25.41-.44.56-.18.15-.39.27-.63.35-.24.08-.49.12-.75.12-.42,0-.81-.07-1.16-.22-.35-.15-.66-.39-.91-.74l.57-.38Zm4.56-2.98h.54v.73h.02c.08-.14.19-.27.31-.37.13-.1.26-.19.41-.26.15-.07.3-.12.46-.15.16-.03.32-.05.48-.05.32,0,.61.05.88.16.27.11.5.26.69.45.19.2.35.43.45.69.11.27.16.56.16.88s-.05.61-.16.88c-.11.27-.26.5-.45.69-.2.2-.43.35-.69.45-.27.11-.56.16-.88.16-.16,0-.31-.02-.48-.05-.16-.03-.32-.08-.46-.15-.15-.07-.28-.16-.41-.26-.13-.1-.23-.23-.31-.37h-.02v2.78h-.54v-6.21Zm.49,2.08c0,.23.05.45.14.66.09.21.21.39.37.54.16.15.34.27.55.36.21.09.44.14.68.14s.48-.04.68-.14c.2-.09.38-.21.52-.36.14-.15.25-.33.33-.54.07-.21.11-.43.11-.66s-.04-.45-.11-.66c-.08-.21-.18-.39-.33-.54-.14-.15-.32-.27-.52-.36-.2-.09-.43-.14-.68-.14s-.47.05-.68.14c-.21.09-.39.21-.55.36-.16.15-.28.33-.37.54-.09.21-.14.43-.14.66Zm5.13-.91c0-.08,0-.17,0-.28,0-.11-.01-.22-.01-.34,0-.11,0-.22-.01-.32,0-.1,0-.18,0-.23h.54c0,.16.01.31.01.45,0,.14.01.24.02.28.14-.25.32-.45.53-.6.22-.16.48-.23.79-.23.05,0,.11,0,.16.01.05,0,.1.02.16.03l-.06.53c-.07-.02-.14-.04-.21-.04-.23,0-.44.04-.61.11-.17.08-.31.18-.42.31-.11.13-.19.29-.25.46-.05.18-.08.37-.08.57v2.27h-.54v-2.99Zm2.95-2.82c0-.11.04-.21.12-.29.08-.08.17-.12.29-.12s.21.04.29.12c.08.08.12.17.12.29s-.04.21-.12.29c-.08.08-.17.12-.29.12s-.21-.04-.29-.12c-.08-.08-.12-.17-.12-.29Zm.13,1.65h.54v4.16h-.54v-4.16Zm2.07,1.17c0-.08,0-.17,0-.28,0-.11-.01-.22-.01-.34,0-.11,0-.22-.01-.32,0-.1,0-.18,0-.23h.54c0,.16.01.31.01.45,0,.14.01.24.02.28h.03c.11-.23.29-.42.54-.59.25-.16.55-.25.88-.25s.59.05.79.15c.2.1.36.24.48.4.12.17.2.36.24.57s.07.44.07.67v2.47h-.54v-2.45c0-.17-.02-.33-.05-.49-.03-.16-.08-.3-.16-.43-.08-.13-.18-.23-.31-.3-.14-.07-.31-.11-.53-.11-.2,0-.39.03-.56.1-.18.07-.33.17-.46.32-.13.14-.23.32-.31.53-.08.21-.11.46-.11.75v2.08h-.54v-2.99Zm9.18,2.72c0,.52-.08.93-.22,1.25-.15.32-.34.56-.56.74-.23.17-.47.29-.72.35-.26.06-.49.09-.7.09s-.42-.02-.62-.06c-.2-.04-.39-.1-.57-.17-.18-.08-.34-.17-.49-.27-.15-.11-.27-.23-.38-.37l.42-.4c.19.27.43.47.72.59.29.13.59.19.92.19.28,0,.51-.04.7-.11.19-.07.34-.17.47-.28.12-.12.22-.25.29-.39.07-.14.12-.28.15-.42.03-.14.05-.27.06-.4,0-.13,0-.23,0-.31v-.58h-.02c-.16.25-.37.45-.63.59-.27.14-.58.22-.94.22-.31,0-.59-.06-.86-.17-.27-.11-.51-.26-.71-.46-.2-.19-.36-.42-.48-.68-.12-.26-.18-.53-.18-.83s.06-.57.18-.83c.12-.26.28-.48.48-.67.2-.19.44-.34.71-.46.27-.11.56-.17.86-.17.36,0,.67.07.94.22.27.14.48.34.63.59h.02v-.7h.54v3.89Zm-.52-1.86c0-.23-.04-.44-.13-.64-.09-.2-.2-.37-.35-.52-.15-.15-.32-.26-.52-.35-.2-.09-.42-.13-.64-.13s-.44.04-.64.13c-.2.09-.38.2-.52.35-.15.15-.26.32-.35.52-.09.2-.13.42-.13.64s.04.44.13.64c.09.2.2.38.35.52.15.15.32.26.52.35.2.09.42.13.64.13s.44-.04.64-.13c.2-.09.37-.2.52-.35.15-.15.26-.32.35-.52.09-.2.13-.42.13-.64Zm2.15-1.54h-.86v-.49h.86v-1.36c0-.27.04-.49.12-.67.08-.18.18-.32.3-.43.12-.11.25-.18.4-.23.15-.05.29-.07.42-.07.25,0,.46.04.62.11l-.11.47c-.12-.06-.28-.09-.49-.09-.49,0-.73.37-.73,1.11v1.16h.97v.49h-.97v3.67h-.54v-3.67Zm2.16-2.13c0-.11.04-.21.12-.29.08-.08.17-.12.29-.12s.21.04.29.12c.08.08.12.17.12.29s-.04.21-.12.29c-.08.08-.17.12-.29.12s-.21-.04-.29-.12c-.08-.08-.12-.17-.12-.29Zm.13,1.65h.54v4.16h-.54v-4.16Zm5.74,3.38c-.21.32-.47.55-.78.68-.31.14-.65.21-1.02.21-.32,0-.61-.05-.86-.16-.26-.11-.48-.26-.67-.45-.19-.19-.33-.43-.43-.69-.1-.27-.15-.56-.15-.89s.05-.6.15-.86c.1-.26.25-.49.43-.69.19-.19.4-.35.66-.46.25-.11.53-.17.84-.17s.6.06.84.17c.24.11.45.26.61.44.16.18.29.39.37.63.08.23.13.47.13.71v.38h-3.49c0,.11.02.26.07.44.04.18.13.35.25.52.12.17.28.31.48.43.2.12.46.18.78.18.28,0,.54-.07.8-.2.26-.13.46-.31.59-.54l.4.33Zm-.41-1.65c0-.19-.04-.36-.11-.52-.08-.16-.18-.3-.31-.43-.13-.12-.28-.22-.46-.29-.18-.07-.36-.11-.56-.11-.29,0-.54.06-.73.18-.2.12-.35.26-.46.41-.11.16-.2.31-.24.45-.05.15-.07.25-.07.3h2.95Zm1.84-4.37h.54v6.8h-.54v-6.8Zm5.71,6.08h-.02c-.08.14-.19.27-.32.37-.13.11-.26.19-.41.26-.15.07-.3.12-.46.15-.16.03-.32.05-.48.05-.32,0-.61-.05-.88-.16-.27-.11-.5-.26-.69-.45-.19-.19-.34-.43-.45-.69-.11-.27-.16-.56-.16-.88s.05-.61.16-.88c.11-.27.26-.5.45-.69.19-.19.42-.35.69-.45.27-.11.56-.16.88-.16.16,0,.32.02.48.05.16.03.32.08.46.15.15.07.28.16.41.26.13.11.23.23.32.37h.02v-3.38h.54v6.8h-.54v-.73Zm.05-1.35c0-.23-.04-.45-.14-.66-.09-.21-.21-.39-.37-.54-.16-.15-.34-.27-.55-.36-.21-.09-.44-.14-.68-.14s-.48.05-.68.14c-.2.09-.38.21-.52.36-.14.15-.25.33-.33.54-.08.21-.11.43-.11.66s.04.45.11.66c.07.21.18.39.33.54s.32.27.52.36c.2.09.43.14.68.14s.47-.04.68-.14c.21-.09.39-.21.55-.36.16-.15.28-.33.37-.54.09-.21.14-.43.14-.66Zm2.13,1.27h.63l-.69,2.05h-.53l.59-2.05Zm4.45-5.56h.89l2.32,5.35,2.32-5.35h.85v6.37h-.59v-5.62h-.02l-2.43,5.62h-.26l-2.47-5.62h-.02v5.62h-.59v-6.37Zm7.65,3.19c0-.49.08-.93.24-1.34.16-.41.39-.76.68-1.06s.63-.53,1.04-.7c.4-.17.85-.25,1.34-.25s.93.08,1.34.25c.41.17.75.4,1.04.7s.51.65.68,1.06c.16.41.24.85.24,1.34s-.08.93-.24,1.35c-.16.41-.39.77-.68,1.06s-.63.53-1.04.69c-.4.16-.85.25-1.34.25s-.93-.08-1.34-.25c-.4-.16-.75-.4-1.04-.69s-.51-.65-.68-1.06c-.16-.41-.24-.86-.24-1.35Zm.59,0c0,.4.06.76.19,1.11.13.34.31.64.54.89.23.25.52.45.85.59.33.14.71.22,1.12.22s.79-.07,1.12-.22c.33-.14.62-.34.85-.59s.41-.55.54-.89c.13-.34.19-.71.19-1.11s-.06-.77-.19-1.11c-.13-.34-.31-.64-.54-.89-.23-.25-.52-.45-.85-.59-.33-.14-.71-.22-1.12-.22s-.79.07-1.12.22c-.33.14-.62.34-.85.59-.23.25-.41.55-.54.89-.13.34-.19.71-.19,1.11Z"/>
    <text class="cls-6" transform="translate(170.38 108)"><tspan x="0" y="0"> </tspan></text>
    <text class="cls-6" transform="translate(174.88 108)"><tspan x="0" y="0">65806</tspan></text>
  </g>
</svg>