<?xml version="1.0" encoding="UTF-8"?>
<svg id="Layer_1" data-name="Layer 1" xmlns="http://www.w3.org/2000/svg" xmlns:xlink="http://www.w3.org/1999/xlink" viewBox="0 0 810 1026">
  <defs>
    <style>
      .cls-1, .cls-2 {
        fill: none;
      }

      .cls-3 {
        letter-spacing: 0em;
      }

      .cls-4 {
        letter-spacing: -.02em;
      }

      .cls-5 {
        font-family: MyriadPro-Regular, 'Myriad Pro';
        font-size: 9px;
      }

      .cls-5, .cls-6, .cls-7, .cls-8 {
        fill: #231f20;
      }

      .cls-9 {
        letter-spacing: 0em;
      }

      .cls-10 {
        letter-spacing: 0em;
      }

      .cls-11 {
        letter-spacing: -.01em;
      }

      .cls-12 {
        letter-spacing: 0em;
      }

      .cls-13 {
        letter-spacing: -.01em;
      }

      .cls-14 {
        letter-spacing: -.04em;
      }

      .cls-15 {
        letter-spacing: 0em;
      }

      .cls-16 {
        letter-spacing: -.02em;
      }

      .cls-17 {
        letter-spacing: 0em;
      }

      .cls-18 {
        letter-spacing: 0em;
      }

      .cls-19 {
        clip-path: url(#clippath);
      }

      .cls-20 {
        letter-spacing: .01em;
      }

      .cls-21 {
        letter-spacing: .01em;
      }

      .cls-22 {
        letter-spacing: 0em;
      }

      .cls-23 {
        letter-spacing: 0em;
      }

      .cls-24 {
        letter-spacing: 0em;
      }

      .cls-6 {
        font-family: MyriadPro-Light, 'Myriad Pro';
        font-weight: 300;
      }

      .cls-6, .cls-8 {
        font-size: 10px;
      }

      .cls-25 {
        letter-spacing: 0em;
      }

      .cls-26 {
        letter-spacing: 0em;
      }

      .cls-27 {
        letter-spacing: -.02em;
      }

      .cls-28 {
        letter-spacing: 0em;
      }

      .cls-29 {
        letter-spacing: 0em;
      }

      .cls-30 {
        letter-spacing: 0em;
      }

      .cls-31 {
        letter-spacing: 0em;
      }

      .cls-2 {
        stroke: #231f20;
        stroke-width: .25px;
      }

      .cls-32 {
        letter-spacing: -.03em;
      }

      .cls-33 {
        letter-spacing: 0em;
      }

      .cls-34 {
        letter-spacing: 0em;
      }

      .cls-35 {
        letter-spacing: 0em;
      }

      .cls-36 {
        letter-spacing: 0em;
      }

      .cls-37 {
        clip-path: url(#clippath-1);
      }

      .cls-38 {
        letter-spacing: 0em;
      }

      .cls-39 {
        letter-spacing: -.07em;
      }

      .cls-40 {
        letter-spacing: 0em;
      }

      .cls-41 {
        letter-spacing: 0em;
      }

      .cls-42 {
        letter-spacing: -.05em;
      }

      .cls-43 {
        letter-spacing: 0em;
      }

      .cls-8 {
        font-family: MyriadPro-Black, 'Myriad Pro';
        font-weight: 800;
      }

      .cls-44 {
        letter-spacing: 0em;
      }

      .cls-45 {
        letter-spacing: 0em;
      }

      .cls-46 {
        letter-spacing: 0em;
      }

      .cls-47 {
        letter-spacing: 0em;
      }

      .cls-48 {
        letter-spacing: 0em;
      }

      .cls-49 {
        letter-spacing: -.01em;
      }

      .cls-50 {
        letter-spacing: -.05em;
      }

      .cls-51 {
        letter-spacing: 0em;
      }

      .cls-52 {
        letter-spacing: 0em;
      }

      .cls-53 {
        letter-spacing: 0em;
      }

      .cls-54 {
        letter-spacing: .01em;
      }

      .cls-55 {
        letter-spacing: 0em;
      }

      .cls-56 {
        letter-spacing: 0em;
      }

      .cls-57 {
        letter-spacing: -.03em;
      }

      .cls-58 {
        letter-spacing: .01em;
      }

      .cls-59 {
        letter-spacing: -.01em;
      }

      .cls-60 {
        letter-spacing: 0em;
      }
    </style>
    <clipPath id="clippath">
      <rect class="cls-1" width="810" height="1026"/>
    </clipPath>
    <clipPath id="clippath-1">
      <rect class="cls-1" width="810" height="1026"/>
    </clipPath>
  </defs>
  <rect class="cls-2" x="99" y="171" width="288" height="288"/>
  <rect class="cls-2" x="423" y="171" width="288" height="288"/>
  <rect class="cls-2" x="99" y="531" width="288" height="288"/>
  <rect class="cls-2" x="423" y="531" width="288" height="288"/>
  <text class="cls-5" transform="translate(99 476.96)"><tspan class="cls-24" x="0" y="0">R</tspan><tspan x="4.88" y="0">epetition: </tspan><tspan class="cls-38" x="42.89" y="0">R</tspan><tspan x="47.76" y="0">ot</tspan><tspan class="cls-46" x="55.68" y="0">a</tspan><tspan x="59.98" y="0">tion, </tspan><tspan class="cls-20" x="78.78" y="0">R</tspan><tspan x="83.72" y="0">adi</tspan><tspan class="cls-12" x="95.24" y="0">a</tspan><tspan x="99.55" y="0">tion, </tspan><tspan class="cls-55" x="118.34" y="0">C</tspan><tspan x="123.47" y="0">on</tspan><tspan class="cls-25" x="133.4" y="0">c</tspan><tspan x="137.38" y="0">e</tspan><tspan class="cls-34" x="141.89" y="0">n</tspan><tspan x="146.86" y="0">t</tspan><tspan class="cls-51" x="149.84" y="0">r</tspan><tspan x="152.81" y="0">ici</tspan><tspan class="cls-26" x="161.05" y="0">t</tspan><tspan class="cls-12" x="164.1" y="0">y</tspan><tspan class="cls-58" x="168.31" y="0">—</tspan><tspan x="177.43" y="0">Glit</tspan><tspan class="cls-33" x="190.46" y="0">t</tspan><tspan x="193.38" y="0">en </tspan><tspan class="cls-38" x="204.79" y="0">R</tspan><tspan x="209.66" y="0">egula</tspan><tspan class="cls-42" x="230.62" y="0">r</tspan><tspan x="233.1" y="0">.</tspan></text>
  <text class="cls-5" transform="translate(422.88 477)"><tspan class="cls-32" x="0" y="0">P</tspan><tspan class="cls-45" x="4.56" y="0">a</tspan><tspan x="8.87" y="0">t</tspan><tspan class="cls-52" x="11.84" y="0">t</tspan><tspan class="cls-40" x="14.78" y="0">e</tspan><tspan class="cls-29" x="19.29" y="0">r</tspan><tspan x="22.26" y="0">n: </tspan><tspan class="cls-43" x="31.02" y="0">A</tspan><tspan x="36.51" y="0">nomal</tspan><tspan class="cls-46" x="60.42" y="0">y</tspan><tspan x="64.62" y="0">—New</tspan><tspan class="cls-50" x="90.67" y="0"> </tspan><tspan class="cls-39" x="92.18" y="0">Y</tspan><tspan class="cls-41" x="96.37" y="0">o</tspan><tspan class="cls-29" x="101.31" y="0">r</tspan><tspan class="cls-40" x="104.28" y="0">k and Champa</tspan><tspan class="cls-31" x="158.25" y="0">g</tspan><tspan x="163.22" y="0">ne &amp; Limousine</tspan><tspan class="cls-49" x="220.92" y="0">s</tspan><tspan x="224.38" y="0">.</tspan></text>
  <text class="cls-5" transform="translate(98.87 837)"><tspan class="cls-25" x="0" y="0">A</tspan><tspan x="5.45" y="0">ssimil</tspan><tspan class="cls-12" x="26.42" y="0">a</tspan><tspan class="cls-33" x="30.73" y="0">t</tspan><tspan x="33.66" y="0">ed Eleme</tspan><tspan class="cls-46" x="68.23" y="0">nt</tspan><tspan x="76.13" y="0">—Dido</tspan><tspan class="cls-44" x="103.25" y="0">t</tspan><tspan x="106.21" y="0">.</tspan></text>
  <text class="cls-5" transform="translate(422.88 837)"><tspan x="0" y="0">G</tspan><tspan class="cls-36" x="5.81" y="0">r</tspan><tspan x="8.68" y="0">oup O</tspan><tspan class="cls-56" x="31.81" y="0">r</tspan><tspan class="cls-40" x="34.78" y="0">ie</tspan><tspan class="cls-46" x="41.4" y="0">n</tspan><tspan x="46.36" y="0">t</tspan><tspan class="cls-15" x="49.34" y="0">a</tspan><tspan x="53.65" y="0">tion/Shape: 3</tspan><tspan class="cls-58" x="103.54" y="0">D—</tspan><tspan x="118.77" y="0">Champa</tspan><tspan class="cls-31" x="150.29" y="0">g</tspan><tspan x="155.27" y="0">ne &amp; Limousine</tspan><tspan class="cls-49" x="212.96" y="0">s</tspan><tspan x="216.43" y="0">.</tspan></text>
  <text class="cls-8" transform="translate(98.87 932.42)"><tspan class="cls-47" x="0" y="0">A</tspan><tspan x="6.68" y="0">nna </tspan><tspan class="cls-16" x="26.12" y="0">F</tspan><tspan x="31.34" y="0">e</tspan><tspan class="cls-9" x="36.73" y="0">r</tspan><tspan class="cls-17" x="40.73" y="0">nandez</tspan></text>
  <text class="cls-6" transform="translate(98.87 945.42)"><tspan class="cls-23" x="0" y="0">M</tspan><tspan x="7.86" y="0">a</tspan><tspan class="cls-35" x="12.4" y="0">r</tspan><tspan x="15.41" y="0">ia </tspan><tspan class="cls-60" x="24.23" y="0">G</tspan><tspan x="30.52" y="0">erasimchu</tspan><tspan class="cls-59" x="72" y="0">k</tspan><tspan x="76.1" y="0">-</tspan><tspan class="cls-35" x="79.08" y="0">D</tspan><tspan x="85.61" y="0">jo</tspan><tspan class="cls-11" x="93.07" y="0">r</tspan><tspan x="95.92" y="0">dj</tspan><tspan class="cls-3" x="103.5" y="0">e</tspan><tspan x="108.38" y="0">vi</tspan><tspan class="cls-13" x="114.99" y="0">c</tspan><tspan class="cls-17" x="119.35" y="0">, </tspan><tspan class="cls-54" x="123.28" y="0">I</tspan><tspan x="125.53" y="0">nstru</tspan><tspan class="cls-21" x="145.97" y="0">c</tspan><tspan class="cls-30" x="150.54" y="0">t</tspan><tspan class="cls-17" x="153.57" y="0">or</tspan></text>
  <text class="cls-6" transform="translate(505.33 932)"><tspan x="0" y="0">DES 331 </tspan><tspan class="cls-53" x="34.79" y="0">A</tspan><tspan class="cls-18" x="40.54" y="0">dvanced</tspan><tspan class="cls-14" x="75.15" y="0"> </tspan><tspan class="cls-57" x="76.93" y="0">T</tspan><tspan x="81.25" y="0">ypo</tspan><tspan class="cls-48" x="96.49" y="0">g</tspan><tspan class="cls-28" x="101.85" y="0">rap</tspan><tspan class="cls-11" x="114.86" y="0">h</tspan><tspan class="cls-57" x="120.12" y="0">y</tspan><tspan x="124.19" y="0">, 1st </tspan><tspan class="cls-60" x="142.01" y="0">S</tspan><tspan x="146.7" y="0">emes</tspan><tspan class="cls-10" x="168.32" y="0">t</tspan><tspan x="171.35" y="0">er Junior</tspan></text>
  <text class="cls-8" transform="translate(634.62 945)"><tspan class="cls-27" x="0" y="0">P</tspan><tspan x="5.79" y="0">ersonal </tspan><tspan class="cls-4" x="41.98" y="0">S</tspan><tspan x="47.41" y="0">ym</tspan><tspan class="cls-22" x="61.57" y="0">b</tspan><tspan x="67.71" y="0">ol</tspan></text>
  <g class="cls-19">
    <path class="cls-7" d="m238.98,256.7v-17.64c-.72,1.32-2.28,2.34-5.16,4.26-3.12,2.1-4.56,5.94-4.56,9.24,0,8.28,5.7,8.76,9.72,4.14m-6.3-14.4c3.96-1.68,6.3-2.64,6.3-5.22v-.24c0-2.22-.9-5.4-4.62-5.4s-6.06,4.08-6.72,6.84l-4.02-1.68c3.24-4.14,6.84-5.7,10.74-5.7,7.08,0,12.06,4.38,12.06,11.4v15.18c0,12.3,6,15.96,12,15.96,5.16,0,11.22-4.26,11.22-11.58,0-10.14-11.58-11.16-15.9-11.16l2.88-5.82c6.96,2.04,13.56,7.8,13.56,16.98s-6.72,13.86-12.84,13.86c-8.04,0-18.24-5.4-18.36-18.3-1.5,2.1-5.16,5.4-9.12,5.4-4.68,0-8.28-3.96-8.28-9.18,0-6.84,6.6-9.42,11.1-11.34"/>
    <path class="cls-7" d="m202.63,274.17l-11.34-13.51c.3,1.47-.24,3.26-1.21,6.58-1.04,3.61.32,7.48,2.45,10.01,5.32,6.34,10,3.05,10.11-3.08m-14.08-6.98c1.95-3.83,3.13-6.07,1.47-8.05l-.15-.18c-1.43-1.7-4.16-3.56-7.01-1.17-2.94,2.47-2.02,7.02-.75,9.56l-4.16,1.3c-.18-5.25,1.58-8.76,4.56-11.27,5.42-4.55,12.05-4.4,16.57.98l9.76,11.63c7.91,9.42,14.85,8.37,19.45,4.51,3.95-3.32,5.86-10.47,1.15-16.08-6.52-7.77-16.04-1.11-19.35,1.67l-1.54-6.31c6.64-2.91,15.4-2.74,21.3,4.29,5.71,6.8,3.76,14.94-.93,18.87-6.16,5.17-17.44,7.59-25.83-2.22.2,2.57-.48,7.45-3.51,10-3.59,3.01-8.89,2.29-12.24-1.71-4.4-5.24-1-11.46,1.21-15.82"/>
    <path class="cls-7" d="m186.01,310.91l-17.37-3.06c1.17.94,1.91,2.65,3.3,5.82,1.53,3.44,5.06,5.52,8.31,6.09,8.15,1.44,9.62-4.09,5.76-8.85m-15.27,3.7c-.97-4.19-1.51-6.66-4.05-7.11l-.24-.04c-2.19-.39-5.47-.05-6.12,3.61-.67,3.78,2.97,6.68,5.57,7.8l-2.35,3.67c-3.51-3.91-4.43-7.72-3.75-11.57,1.23-6.97,6.41-11.11,13.32-9.9l14.95,2.64c12.11,2.14,16.76-3.14,17.8-9.05.9-5.08-2.25-11.79-9.46-13.06-9.99-1.76-13,9.47-13.75,13.72l-5.23-3.85c3.22-6.5,10.04-12,19.08-10.4,8.74,1.54,12.48,9.02,11.42,15.05-1.4,7.92-8.49,17.02-21.21,14.9,1.81,1.84,4.42,6.02,3.74,9.92-.81,4.61-5.34,7.47-10.48,6.56-6.74-1.19-8.13-8.14-9.24-12.9"/>
    <path class="cls-7" d="m196.9,349.74l-15.28,8.82c1.5-.04,3.17.81,6.27,2.34,3.38,1.65,7.42.98,10.28-.67,7.17-4.14,4.74-9.32-1.27-10.49m-9.32,12.66c-3.44-2.59-5.44-4.14-7.67-2.85l-.21.12c-1.92,1.11-4.23,3.48-2.37,6.7,1.92,3.33,6.56,3.21,9.28,2.4l.56,4.32c-5.21-.74-8.36-3.07-10.31-6.45-3.54-6.13-2.24-12.63,3.84-16.14l13.15-7.59c10.65-6.15,10.82-13.18,7.82-18.37-2.58-4.47-9.3-7.59-15.64-3.93-8.78,5.07-3.88,15.61-1.72,19.35l-6.48.42c-1.71-7.05-.02-15.64,7.93-20.23,7.69-4.44,15.36-1.11,18.42,4.19,4.02,6.96,4.44,18.5-6.67,25.05,2.57.25,7.26,1.77,9.24,5.2,2.34,4.05.71,9.15-3.81,11.76-5.92,3.42-11.46-1.01-15.37-3.94"/>
    <path class="cls-7" d="m230.2,372.49l-6.03,16.58c1.13-.99,2.94-1.42,6.31-2.24,3.65-.91,6.32-4.02,7.44-7.12,2.83-7.78-2.36-10.18-7.72-7.22m1,15.69c-4.3.22-6.82.33-7.71,2.75l-.08.23c-.76,2.09-1,5.38,2.49,6.65,3.61,1.31,7.09-1.76,8.65-4.13l3.2,2.95c-4.46,2.78-8.38,3.02-12.04,1.68-6.65-2.42-9.84-8.24-7.43-14.84l5.19-14.26c4.21-11.56-.18-17.05-5.82-19.1-4.85-1.77-12,.17-14.5,7.04-3.47,9.53,7.06,14.45,11.12,15.92l-4.7,4.48c-5.84-4.3-10.07-11.97-6.93-20.59,3.04-8.34,11.06-10.73,16.81-8.63,7.55,2.75,15.29,11.31,10.99,23.47,2.13-1.46,6.7-3.31,10.42-1.95,4.4,1.6,6.43,6.55,4.64,11.46-2.34,6.43-9.42,6.59-14.31,6.86"/>
    <path class="cls-7" d="m270.33,368.51l6.03,16.58c.23-1.49,1.34-2.98,3.39-5.77,2.21-3.04,2.25-7.14,1.12-10.24-2.83-7.78-8.35-6.28-10.55-.57m10.85,11.38c-3.15,2.93-5.02,4.64-4.14,7.06l.08.22c.76,2.09,2.69,4.77,6.19,3.49,3.61-1.31,4.3-5.91,3.98-8.73l4.35.2c-1.63,5-4.48,7.7-8.14,9.03-6.65,2.42-12.83.01-15.23-6.59l-5.19-14.26c-4.21-11.56-11.1-12.95-16.73-10.89-4.85,1.76-9.09,7.84-6.58,14.72,3.47,9.53,14.7,6.53,18.76,5.05l-.72,6.45c-7.24.46-15.41-2.69-18.55-11.32-3.04-8.34,1.57-15.32,7.32-17.42,7.55-2.75,18.99-1.16,23.51,10.92.69-2.49,3-6.84,6.72-8.19,4.4-1.6,9.14.89,10.92,5.79,2.34,6.43-2.98,11.11-6.55,14.45"/>
    <path class="cls-7" d="m298.51,339.66l15.28,8.82c-.78-1.28-.89-3.15-1.11-6.6-.26-3.75-2.86-6.92-5.72-8.57-7.17-4.14-10.44.56-8.45,6.35m15.62,1.74c-.53,4.27-.86,6.78,1.37,8.07l.21.12c1.92,1.11,5.13,1.92,6.99-1.3,1.92-3.33-.5-7.29-2.56-9.24l3.46-2.64c1.97,4.88,1.52,8.77-.43,12.15-3.54,6.13-9.82,8.26-15.9,4.74l-13.14-7.59c-10.65-6.15-16.82-2.78-19.82,2.41-2.58,4.47-1.92,11.85,4.42,15.51,8.78,5.07,15.45-4.45,17.61-8.19l3.6,5.4c-5.25,5.01-13.53,7.84-21.48,3.25-7.69-4.44-8.64-12.75-5.58-18.05,4.02-6.96,13.8-13.1,25.03-6.75-1.07-2.35-2.1-7.17-.12-10.6,2.34-4.05,7.57-5.19,12.09-2.58,5.92,3.42,4.86,10.42,4.27,15.28"/>
    <path class="cls-7" d="m301.56,299.45l17.37-3.06c-1.42-.48-2.7-1.84-5.09-4.34-2.61-2.71-6.64-3.46-9.89-2.89-8.15,1.44-7.64,7.14-2.39,10.29m13.09-8.7c2.34,3.61,3.69,5.75,6.23,5.3l.24-.04c2.19-.39,5.16-1.82,4.52-5.49-.67-3.78-5.07-5.26-7.9-5.43l.96-4.25c4.64,2.47,6.8,5.75,7.48,9.59,1.23,6.97-2.22,12.64-9.13,13.85l-14.95,2.64c-12.11,2.14-14.67,8.68-13.63,14.59.9,5.08,6.14,10.31,13.35,9.04,9.99-1.76,8.98-13.34,8.23-17.59l6.23,1.83c-.8,7.21-5.33,14.71-14.37,16.3-8.74,1.54-14.82-4.21-15.88-10.24-1.4-7.92,2.15-18.9,14.83-21.26-2.33-1.11-6.21-4.14-6.9-8.04-.81-4.61,2.46-8.84,7.6-9.75,6.74-1.19,10.42,4.86,13.1,8.96"/>
    <path class="cls-7" d="m278.05,266.69l11.34-13.51c-1.4.55-3.25.33-6.69-.05-3.74-.4-7.31,1.62-9.43,4.15-5.32,6.34-1.26,10.37,4.78,9.42m4.43-15.08c4.11,1.26,6.52,2.03,8.18.05l.15-.18c1.43-1.7,2.78-4.71-.07-7.11-2.94-2.47-7.26-.77-9.54.92l-2-3.87c5.14-1.09,8.9.03,11.89,2.54,5.42,4.55,6.42,11.11,1.91,16.48l-9.76,11.63c-7.91,9.42-5.66,16.08-1.07,19.94,3.95,3.32,11.33,3.95,16.04-1.66,6.52-7.77-1.7-15.99-5.01-18.77l5.95-2.61c4.02,6.04,5.37,14.69-.53,21.72-5.71,6.8-14.06,6.3-18.74,2.37-6.16-5.17-10.5-15.86-2.3-25.82-2.5.64-7.42.82-10.46-1.73-3.59-3.01-3.8-8.36-.44-12.35,4.4-5.24,11.11-2.97,15.79-1.55"/>
    <path class="cls-7" d="m561.41,216.22c6.02-2.11,12.68-2.77,17.89-2.68,2.55.04,4.76.53,6.63,1.11v-.78c.16-8.42-3.03-15.9-10.9-16.04-9.97-.17-16.79,9.35-13.62,18.38m24.2,16.49l.3-17.06c-.55-.23-3.19-1.05-6.63-1.11-12.07-.21-28.57,5.48-24.15,25.07,1.33,6.01,7.7,9.78,13.24,9.54,9.65-.39,14.89-8.49,17.24-16.43m10.88,17.7l-11.19-.2.27-15.51c-3.05,9.7-9.26,16.02-19.89,15.83-9.08-.16-17.87-4.64-19.17-12.64-1.68-11.33,5.19-17.86,13.78-21.26-2.77-6.48.91-20.15,15.75-19.89,9.2.16,18.86,5.21,18.62,18.83l-.48,27.47c-.07,3.88.68,5.55,2.32,6.58,0,.22-.01.77-.01.77"/>
    <path class="cls-7" d="m619.65,214.47c-2.32,5.94-3.21,12.58-3.3,17.78-.04,2.55.36,4.77.88,6.66h-.78c-8.42-.16-15.78-3.61-15.64-11.48.17-9.97,9.93-16.45,18.84-12.97m15.64,24.76l-17.06-.3c-.21-.56-.94-3.23-.88-6.66.21-12.07,6.48-28.37,25.9-23.26,5.96,1.54,9.5,8.03,9.07,13.57-.72,9.63-9.01,14.58-17.02,16.66m17.31,11.5l.2-11.19-15.51-.27c9.8-2.71,16.33-8.69,16.52-19.32.16-9.09-4.01-18.02-11.96-19.6-11.27-2.08-18.03,4.56-21.73,13.03-6.37-2.99-20.17.2-20.43,15.05-.16,9.2,4.54,19.03,18.17,19.27l27.47.48c3.88.07,5.53.87,6.49,2.55.22,0,.78.01.78.01"/>
    <path class="cls-7" d="m559.84,338.01c6.02-2.11,12.68-2.77,17.89-2.68,2.55.04,4.76.53,6.63,1.11v-.78c.16-8.42-3.03-15.9-10.9-16.04-9.97-.17-16.79,9.35-13.62,18.38m24.2,16.49l.3-17.06c-.55-.23-3.19-1.05-6.63-1.11-12.07-.21-28.57,5.48-24.15,25.06,1.33,6.01,7.7,9.78,13.24,9.54,9.65-.39,14.89-8.49,17.24-16.43m10.88,17.7l-11.19-.2.27-15.51c-3.05,9.7-9.26,16.02-19.89,15.83-9.08-.16-17.87-4.63-19.17-12.63-1.68-11.33,5.19-17.86,13.78-21.26-2.77-6.48.91-20.15,15.75-19.89,9.2.16,18.86,5.21,18.62,18.83l-.48,27.47c-.07,3.88.68,5.55,2.32,6.58,0,.22-.01.77-.01.77"/>
    <path class="cls-7" d="m558.94,274.67c-2.32,5.94-3.21,12.58-3.3,17.78-.04,2.55.36,4.77.88,6.66h-.78c-8.42-.16-15.78-3.61-15.64-11.48.17-9.97,9.93-16.45,18.84-12.97m15.64,24.76l-17.06-.3c-.21-.56-.94-3.23-.88-6.66.21-12.07,6.48-28.37,25.9-23.26,5.96,1.54,9.5,8.03,9.07,13.57-.72,9.63-9.01,14.58-17.02,16.66m17.31,11.5l.2-11.19-15.51-.27c9.8-2.71,16.33-8.69,16.52-19.32.16-9.09-4.01-18.02-11.96-19.6-11.27-2.08-18.03,4.56-21.73,13.03-6.37-2.99-20.17.2-20.43,15.05-.16,9.2,4.54,19.03,18.17,19.27l27.47.48c3.88.07,5.53.87,6.49,2.55.22,0,.78.01.78.01"/>
    <path class="cls-7" d="m504.69,214.92c-2.32,5.94-3.21,12.58-3.3,17.78-.04,2.55.36,4.77.88,6.66h-.77c-8.42-.16-15.78-3.61-15.65-11.48.17-9.97,9.93-16.45,18.84-12.97m15.64,24.76l-17.06-.3c-.21-.56-.94-3.23-.88-6.66.21-12.07,6.48-28.37,25.9-23.26,5.96,1.54,9.5,8.03,9.07,13.57-.72,9.63-9.01,14.58-17.02,16.66m17.31,11.5l.2-11.19-15.51-.27c9.8-2.71,16.33-8.69,16.52-19.32.16-9.09-4.01-18.02-11.96-19.6-11.27-2.08-18.03,4.56-21.73,13.03-6.37-2.99-20.17.2-20.43,15.05-.16,9.2,4.54,19.03,18.17,19.27l27.47.48c3.88.07,5.53.87,6.49,2.55.22,0,.78.01.78.01"/>
    <path class="cls-7" d="m494.8,274.96c6.02-2.11,12.68-2.77,17.89-2.68,2.55.04,4.76.53,6.63,1.11v-.78c.16-8.42-3.03-15.9-10.9-16.04-9.97-.17-16.79,9.35-13.62,18.38m24.2,16.49l.3-17.06c-.55-.23-3.19-1.05-6.63-1.11-12.07-.21-28.57,5.48-24.15,25.06,1.33,6.01,7.7,9.78,13.24,9.54,9.65-.39,14.89-8.49,17.24-16.43m10.88,17.7l-11.19-.2.27-15.51c-3.05,9.7-9.26,16.02-19.89,15.83-9.08-.16-17.87-4.63-19.17-12.63-1.68-11.33,5.19-17.86,13.78-21.26-2.77-6.48.91-20.15,15.75-19.89,9.2.16,18.86,5.21,18.62,18.83l-.48,27.47c-.07,3.88.68,5.55,2.32,6.58,0,.22-.01.77-.01.77"/>
    <path class="cls-7" d="m620.2,336.79c-2.32,5.94-3.21,12.58-3.3,17.78-.04,2.55.36,4.77.88,6.66h-.78c-8.42-.16-15.78-3.61-15.64-11.48.17-9.97,9.93-16.45,18.84-12.97m15.64,24.76l-17.06-.3c-.21-.56-.94-3.23-.88-6.66.21-12.07,6.48-28.37,25.9-23.26,5.96,1.54,9.5,8.03,9.07,13.57-.72,9.63-9.01,14.58-17.02,16.66m17.31,11.5l.2-11.19-15.51-.27c9.8-2.71,16.33-8.69,16.52-19.32.16-9.09-4.01-18.02-11.96-19.6-11.27-2.08-18.03,4.56-21.73,13.03-6.38-2.99-20.17.2-20.43,15.05-.16,9.2,4.54,19.03,18.17,19.27l27.47.48c3.88.07,5.53.87,6.49,2.55.22,0,.78.01.78.01"/>
    <path class="cls-7" d="m614.38,398.39c6.02-2.11,12.68-2.77,17.89-2.68,2.55.04,4.76.53,6.63,1.11v-.78c.16-8.42-3.03-15.9-10.9-16.04-9.97-.17-16.79,9.35-13.62,18.38m24.2,16.49l.3-17.06c-.55-.23-3.19-1.05-6.63-1.11-12.07-.21-28.57,5.48-24.15,25.07,1.33,6.01,7.7,9.78,13.24,9.54,9.65-.39,14.89-8.49,17.24-16.43m10.88,17.7l-11.19-.2.27-15.51c-3.05,9.7-9.26,16.02-19.89,15.83-9.08-.16-17.87-4.63-19.17-12.63-1.68-11.33,5.19-17.86,13.78-21.26-2.77-6.48.91-20.15,15.75-19.89,9.2.16,18.86,5.21,18.62,18.83l-.48,27.47c-.07,3.88.68,5.55,2.32,6.58,0,.22-.01.77-.01.77"/>
    <path class="cls-7" d="m559.5,396.99c-2.32,5.94-3.21,12.58-3.3,17.78-.04,2.55.36,4.77.88,6.66h-.78c-8.42-.16-15.78-3.61-15.64-11.48.17-9.97,9.93-16.45,18.84-12.97m15.64,24.76l-17.06-.3c-.21-.56-.94-3.23-.88-6.66.21-12.07,6.48-28.37,25.9-23.26,5.96,1.54,9.5,8.03,9.07,13.57-.72,9.63-9.01,14.58-17.02,16.66m17.31,11.5l.2-11.19-15.51-.27c9.8-2.71,16.33-8.69,16.52-19.32.16-9.09-4.01-18.02-11.96-19.6-11.27-2.08-18.03,4.56-21.73,13.03-6.37-2.99-20.17.2-20.43,15.05-.16,9.2,4.54,19.03,18.17,19.27l27.47.48c3.88.07,5.53.87,6.49,2.55.22,0,.78.01.78.01"/>
    <path class="cls-7" d="m505.24,337.23c-2.32,5.94-3.21,12.58-3.3,17.78-.04,2.55.36,4.77.88,6.66h-.78c-8.42-.16-15.78-3.61-15.64-11.48.17-9.97,9.93-16.45,18.84-12.97m15.64,24.76l-17.06-.3c-.21-.56-.94-3.23-.88-6.66.21-12.07,6.48-28.37,25.9-23.26,5.96,1.54,9.5,8.03,9.07,13.57-.72,9.63-9.01,14.58-17.02,16.66m17.31,11.5l.2-11.19-15.51-.27c9.8-2.71,16.33-8.69,16.52-19.32.16-9.09-4.01-18.02-11.96-19.6-11.27-2.08-18.03,4.56-21.73,13.03-6.37-2.99-20.17.2-20.43,15.05-.16,9.2,4.54,19.03,18.17,19.27l27.47.48c3.88.07,5.53.87,6.49,2.55.22,0,.78.01.78.01"/>
    <path class="cls-7" d="m495.36,397.28c6.02-2.11,12.68-2.77,17.89-2.68,2.55.04,4.76.53,6.63,1.11v-.78c.16-8.42-3.03-15.9-10.9-16.04-9.97-.17-16.79,9.35-13.62,18.38m24.2,16.49l.3-17.06c-.55-.23-3.19-1.05-6.63-1.11-12.07-.21-28.57,5.48-24.15,25.06,1.33,6.01,7.7,9.78,13.24,9.54,9.65-.39,14.89-8.49,17.24-16.43m10.88,17.7l-11.19-.2.27-15.51c-3.05,9.7-9.26,16.02-19.89,15.83-9.08-.16-17.87-4.63-19.17-12.63-1.68-11.33,5.19-17.86,13.78-21.26-2.77-6.48.91-20.15,15.75-19.89,9.2.16,18.86,5.21,18.62,18.83l-.48,27.47c-.07,3.88.68,5.55,2.32,6.58,0,.22-.01.77-.01.77"/>
    <path class="cls-7" d="m647.04,289.82l.14-7.86c-.66-3.92-2.44-7.37-5.33-10.36-3.87-4.01-8.57-6.06-14.11-6.15-5.54-.1-10.3,1.79-14.29,5.66-3.99,3.87-6.03,8.57-6.13,14.11-.1,5.54,1.78,10.29,5.63,14.27,3.85,3.97,8.55,6.01,14.09,6.1,5.54.1,10.31-1.79,14.32-5.66,2.99-2.89,4.88-6.26,5.68-10.11m3.67,19.19l-4-.07.15-8.86c-.78,1.02-1.64,1.99-2.55,2.91-4.82,4.69-10.6,6.97-17.34,6.86-6.67-.12-12.34-2.59-17.02-7.43-4.67-4.84-6.95-10.59-6.83-17.27.12-6.74,2.59-12.44,7.43-17.09,4.84-4.65,10.59-6.92,17.27-6.81,6.74.12,12.44,2.59,17.09,7.41.88.95,1.7,1.95,2.45,3l.11-6.16,4,.07-.76,43.44Z"/>
    <path class="cls-7" d="m156,771.98c-7.47-.67-11.97.74-10.83-3.44,46.64-10.48,15.3-88.6,107.45-76.94v2.98c-20.43-3.84-27.45,30.26-32.62,40.48-6.1,21.39-34.66,42.08-64,36.92"/>
  </g>
  <polygon class="cls-7" points="234.91 690.42 234.91 690.6 235.4 690.42 234.91 690.42"/>
  <polyline class="cls-7" points="341.01 772.11 341.01 768.37 317.25 768.37 244.63 577.22 238.23 577.22 219.3 627.42 223.85 627.45 229.42 612.73 255.86 682.7 256.04 682.63 269.46 718.18 288.42 768.37 258.78 768.37 258.78 772.11"/>
  <polyline class="cls-7" points="144.99 772.18 144.99 768.54 157.39 768.54 157.39 772.18"/>
  <g class="cls-37">
    <path class="cls-7" d="m159.42,767.94c-1.65-.1-3.29-.24-4.93-.44-.53-.06-1.22.29-1.57.65-.39.39-.68,1.02-.65,1.57.03.57.21,1.17.65,1.57.15.12.3.23.45.35.35.2.72.3,1.12.3,1.64.2,3.28.35,4.93.44.55.03,1.19-.27,1.57-.65.39-.39.68-1.02.65-1.57-.03-.58-.21-1.17-.65-1.57-.45-.41-.96-.62-1.57-.65"/>
    <path class="cls-7" d="m574.07,612.06c-3.16,6.13-4.64,9.16-7.48,15.21-2.99-6.06-4.55-9.1-7.88-15.25,6.15.17,9.22.17,15.36.03m3.37-6.42c-8.88.31-13.32.3-22.19-.05-2.52-4.43-3.83-6.66-6.6-11.18-3.53-.23-5.3-.38-8.82-.72,9.82,15.83,18.66,31.94,26.91,48.63,7.91-16.62,16.4-32.68,25.86-48.47-3.59.33-5.38.46-8.96.67-2.6,4.49-3.83,6.71-6.19,11.12"/>
    <path class="cls-7" d="m528.63,620.62c2.84,6.82,4.14,10.18,6.57,16.85-6.51-3.39-9.82-5.17-16.62-9.02,3.95-3.17,5.94-4.72,10.04-7.83m-3.07-7.14c-5.81,4.28-8.59,6.4-14.06,10.79-4.96-2.91-7.48-4.43-12.62-7.65-2.01,1.62-3.01,2.44-4.99,4.11,16.92,10.48,34.14,20.22,52.03,28.95-5.92-17.94-12.59-35.31-20.37-52.54-2.35,1.58-3.5,2.36-5.77,3.93,2.45,5.01,3.6,7.49,5.78,12.4"/>
    <path class="cls-7" d="m506.47,655.28c5.83,4.48,8.68,6.58,14.3,10.64-6.41,1.61-9.61,2.44-16.03,4.2.83-5.99,1.17-8.95,1.73-14.84m-6.14-4.76c-.61,8.44-1.05,12.72-2.26,21.38-4.59,1.32-6.88,2.01-11.48,3.46-.5,3.46-.78,5.19-1.39,8.69,16.67-5.72,33.48-10.65,50.5-15.21-15.76-11.31-31.05-23.07-46.05-35.39-.01,3.33-.04,5.01-.15,8.37,4.42,3.63,6.58,5.36,10.83,8.69"/>
    <path class="cls-7" d="m509.3,702.49c6.76-1.41,10.13-2.05,16.85-3.22-4.26,5.94-6.46,8.99-11.15,15.31-2.25-4.75-3.38-7.16-5.7-12.09m-7.06,1.54c3.18,7.08,4.69,10.49,7.73,17.16-3.5,4.66-5.32,7.04-9.14,11.96,1.05,2.51,1.57,3.76,2.62,6.22,12.47-15.89,24.55-32.03,36.16-48.55-17.62,2.42-35.05,5.36-52.46,9,1.22,2.91,1.81,4.35,2.97,7.17,4.86-1.26,7.29-1.85,12.12-2.95"/>
    <path class="cls-7" d="m537.56,731.66c5.49-5.34,8.09-7.9,13.14-12.92.27,6.66.38,9.99.6,16.64-5.58-1.58-8.33-2.32-13.74-3.72m-5.82,5.65c7.69,1.81,11.62,2.77,19.69,4.97.15,4.75.23,7.12.38,11.86,3.21.82,4.84,1.25,8.12,2.15-1.24-17.32-2.35-34.65-3.52-51.98-14.05,14.1-28.32,27.96-42.66,41.76,2.96.52,4.45.79,7.47,1.36,4.37-4.18,6.47-6.19,10.53-10.13"/>
    <path class="cls-7" d="m584.53,734.99c.05-6.62.09-9.93.21-16.57,5.18,5,7.86,7.56,13.49,12.9-5.4,1.38-8.13,2.11-13.69,3.66m-.02,6.9c8.03-2.15,11.94-3.1,19.61-4.88,4.19,3.94,6.35,5.96,10.85,10.16,2.95-.54,4.42-.8,7.32-1.31-14.59-13.85-29.15-27.73-43.52-41.81-.87,17.25-1.64,34.5-2.44,51.75,3.32-.9,4.96-1.32,8.21-2.13-.03-4.71-.04-7.07-.04-11.79"/>
    <path class="cls-7" d="m619.93,713.37c-4.72-6.22-6.94-9.21-11.24-15.05,6.77,1.05,10.16,1.62,16.96,2.9-2.33,4.96-3.46,7.38-5.72,12.15m5.04,6.57c3.03-6.7,4.55-10.13,7.74-17.25,4.87.98,7.32,1.51,12.21,2.63,1.16-2.8,1.75-4.23,2.96-7.12-17.52-3.31-35.04-5.97-52.73-8.14,11.71,16.3,23.88,32.24,36.37,47.96,1.06-2.52,1.59-3.79,2.66-6.35-3.83-4.83-5.67-7.17-9.2-11.73"/>
    <path class="cls-7" d="m629.38,668.56c-6.39-1.58-9.58-2.33-15.97-3.79,5.62-4.21,8.47-6.4,14.32-11.04.53,5.88.85,8.85,1.65,14.83m6.66,1.67c-1.16-8.65-1.57-12.92-2.14-21.36,4.27-3.48,6.44-5.29,10.89-9.09-.08-3.31-.1-4.95-.09-8.23-15.01,12.64-30.3,24.9-46.2,36.42,16.93,4.24,33.67,8.81,50.3,14.11-.6-3.55-.86-5.31-1.34-8.82-4.57-1.27-6.85-1.88-11.42-3.04"/>
    <path class="cls-7" d="m614.74,627.59c-6.72,3.92-9.99,5.73-16.41,9.2,2.34-6.74,3.6-10.14,6.34-17.01,4.11,3.11,6.12,4.66,10.07,7.82m7.07-4.21c-5.49-4.38-8.28-6.49-14.11-10.77,2.09-4.97,3.2-7.47,5.56-12.53-2.25-1.54-3.39-2.31-5.72-3.87-7.59,17.37-14.05,34.85-19.76,52.92,17.74-8.88,34.82-18.82,51.58-29.41-2.02-1.69-3.03-2.51-5.08-4.15-5.08,3.28-7.57,4.83-12.46,7.8"/>
  </g>
</svg>