<?xml version="1.0" encoding="UTF-8"?>
<svg id="Layer_1" data-name="Layer 1" xmlns="http://www.w3.org/2000/svg" xmlns:xlink="http://www.w3.org/1999/xlink" viewBox="0 0 792 1008">
  <defs>
    <style>
      .cls-1 {
        fill: none;
      }

      .cls-2 {
        letter-spacing: 0em;
      }

      .cls-3 {
        letter-spacing: 0em;
      }

      .cls-4 {
        letter-spacing: -.02em;
      }

      .cls-5 {
        letter-spacing: 0em;
      }

      .cls-6 {
        clip-path: url(#clippath);
      }

      .cls-7 {
        letter-spacing: 0em;
      }

      .cls-8 {
        letter-spacing: 0em;
      }

      .cls-9 {
        letter-spacing: 0em;
      }

      .cls-10 {
        font-family: MyriadPro-Light, 'Myriad Pro';
        font-weight: 300;
      }

      .cls-10, .cls-11, .cls-12 {
        fill: #231f20;
      }

      .cls-10, .cls-12 {
        font-size: 10px;
      }

      .cls-13 {
        letter-spacing: 0em;
      }

      .cls-14 {
        letter-spacing: 0em;
      }

      .cls-15 {
        letter-spacing: 0em;
      }

      .cls-16 {
        letter-spacing: 0em;
      }

      .cls-17 {
        letter-spacing: 0em;
      }

      .cls-18 {
        clip-path: url(#clippath-1);
      }

      .cls-19 {
        clip-path: url(#clippath-4);
      }

      .cls-20 {
        clip-path: url(#clippath-3);
      }

      .cls-21 {
        clip-path: url(#clippath-2);
      }

      .cls-22 {
        clip-path: url(#clippath-7);
      }

      .cls-23 {
        clip-path: url(#clippath-8);
      }

      .cls-24 {
        clip-path: url(#clippath-6);
      }

      .cls-25 {
        clip-path: url(#clippath-5);
      }

      .cls-26 {
        clip-path: url(#clippath-9);
      }

      .cls-27 {
        letter-spacing: -.01em;
      }

      .cls-28 {
        letter-spacing: 0em;
      }

      .cls-29 {
        letter-spacing: 0em;
      }

      .cls-12 {
        font-family: MyriadPro-Black, 'Myriad Pro';
        font-weight: 800;
      }

      .cls-30 {
        letter-spacing: 0em;
      }

      .cls-31 {
        letter-spacing: 0em;
      }

      .cls-32 {
        letter-spacing: 0em;
      }

      .cls-33 {
        letter-spacing: -.04em;
      }

      .cls-34 {
        letter-spacing: .01em;
      }

      .cls-35 {
        letter-spacing: 0em;
      }

      .cls-36 {
        letter-spacing: -.03em;
      }

      .cls-37 {
        letter-spacing: 0em;
      }

      .cls-38 {
        letter-spacing: 0em;
      }

      .cls-39 {
        letter-spacing: -.01em;
      }

      .cls-40 {
        letter-spacing: 0em;
      }
    </style>
    <clipPath id="clippath">
      <rect class="cls-1" width="792" height="1008"/>
    </clipPath>
    <clipPath id="clippath-1">
      <rect class="cls-1" width="792" height="1008"/>
    </clipPath>
    <clipPath id="clippath-2">
      <rect class="cls-1" width="792" height="1008"/>
    </clipPath>
    <clipPath id="clippath-3">
      <rect class="cls-1" width="792" height="1008"/>
    </clipPath>
    <clipPath id="clippath-4">
      <rect class="cls-1" width="792" height="1008"/>
    </clipPath>
    <clipPath id="clippath-5">
      <rect class="cls-1" width="792" height="1008"/>
    </clipPath>
    <clipPath id="clippath-6">
      <rect class="cls-1" width="792" height="1008"/>
    </clipPath>
    <clipPath id="clippath-7">
      <rect class="cls-1" width="792" height="1008"/>
    </clipPath>
    <clipPath id="clippath-8">
      <rect class="cls-1" width="792" height="1008"/>
    </clipPath>
    <clipPath id="clippath-9">
      <rect class="cls-1" width="792" height="1008"/>
    </clipPath>
  </defs>
  <g class="cls-6">
    <g class="cls-18">
      <text class="cls-12" transform="translate(107.88 959)"><tspan class="cls-30" x="0" y="0">A</tspan><tspan x="6.68" y="0">nna </tspan><tspan class="cls-4" x="26.12" y="0">F</tspan><tspan x="31.34" y="0">e</tspan><tspan class="cls-16" x="36.73" y="0">r</tspan><tspan x="40.73" y="0">nandez </tspan></text>
      <text class="cls-10" transform="translate(107.88 972)"><tspan class="cls-9" x="0" y="0">M</tspan><tspan x="7.86" y="0">a</tspan><tspan class="cls-32" x="12.4" y="0">r</tspan><tspan x="15.41" y="0">ia </tspan><tspan class="cls-40" x="24.23" y="0">G</tspan><tspan x="30.52" y="0">erasimchu</tspan><tspan class="cls-39" x="72" y="0">k</tspan><tspan class="cls-5" x="76.1" y="0">-</tspan><tspan class="cls-32" x="79.08" y="0">D</tspan><tspan class="cls-5" x="85.61" y="0">jo</tspan><tspan class="cls-35" x="93.07" y="0">r</tspan><tspan x="95.92" y="0">dj</tspan><tspan class="cls-2" x="103.5" y="0">e</tspan><tspan class="cls-5" x="108.38" y="0">vi</tspan><tspan class="cls-35" x="114.99" y="0">c</tspan><tspan class="cls-14" x="119.35" y="0">, </tspan><tspan class="cls-34" x="123.28" y="0">I</tspan><tspan class="cls-14" x="125.53" y="0">nstru</tspan><tspan class="cls-28" x="145.97" y="0">c</tspan><tspan class="cls-3" x="150.53" y="0">t</tspan><tspan x="153.56" y="0">or</tspan></text>
      <text class="cls-12" transform="translate(583.48 959)"><tspan class="cls-17" x="0" y="0">L</tspan><tspan class="cls-8" x="5.22" y="0">o</tspan><tspan x="11.15" y="0">go</tspan><tspan class="cls-8" x="23" y="0">t</tspan><tspan class="cls-14" x="26.87" y="0">y</tspan><tspan class="cls-2" x="32.32" y="0">p</tspan><tspan class="cls-5" x="38.45" y="0">e</tspan></text>
      <text class="cls-12" transform="translate(627.62 959)"><tspan x="0" y="0"> </tspan></text>
      <text class="cls-12" transform="translate(627.62 959)"><tspan class="cls-37" x="0" y="0">—</tspan><tspan class="cls-30" x="9.95" y="0">A</tspan><tspan x="16.63" y="0">nna </tspan><tspan class="cls-27" x="36.07" y="0">C</tspan><tspan class="cls-31" x="41.98" y="0">a</tspan><tspan class="cls-7" x="47.38" y="0">t</tspan><tspan class="cls-5" x="51.16" y="0">e</tspan></text>
      <text class="cls-10" transform="translate(480.64 972)"><tspan x="0" y="0">DES331</tspan><tspan class="cls-38" x="30.41" y="0"> </tspan><tspan class="cls-13" x="32.58" y="0">A</tspan><tspan class="cls-5" x="38.34" y="0">dvanced</tspan><tspan class="cls-33" x="72.95" y="0"> </tspan><tspan class="cls-36" x="74.7" y="0">T</tspan><tspan class="cls-5" x="79.02" y="0">ypo</tspan><tspan class="cls-30" x="94.26" y="0">g</tspan><tspan x="99.63" y="0">rap</tspan><tspan class="cls-35" x="112.64" y="0">h</tspan><tspan class="cls-36" x="117.9" y="0">y</tspan><tspan x="121.97" y="0">,</tspan><tspan class="cls-38" x="123.71" y="0"> </tspan><tspan x="125.88" y="0">1st</tspan><tspan class="cls-29" x="137.58" y="0"> </tspan><tspan class="cls-15" x="139.75" y="0">S</tspan><tspan x="144.44" y="0">emes</tspan><tspan class="cls-3" x="166.06" y="0">t</tspan><tspan x="169.09" y="0">er</tspan><tspan class="cls-38" x="176.89" y="0"> </tspan><tspan class="cls-14" x="179.06" y="0">Junior</tspan></text>
    </g>
    <polygon class="cls-11" points="390.74 361.06 391.05 361.06 391.05 269.1 402.08 269.1 402.08 377.62 388.29 377.62 323.61 284.74 323.3 284.74 323.3 377.62 312.27 377.62 312.27 269.1 326.06 269.1 390.74 361.06"/>
    <polygon class="cls-11" points="469.19 361.06 469.5 361.06 469.5 269.1 480.53 269.1 480.53 377.62 466.74 377.62 402.06 284.74 401.75 284.74 401.75 377.62 390.71 377.62 390.71 269.1 404.51 269.1 469.19 361.06"/>
    <g class="cls-21">
      <path class="cls-11" d="m213.14,375.85c3.92-4.89,9.27-8.36,14.52-11.67,5.45-3.44,11.13-6.52,16.99-9.22,5.76-2.66,11.72-4.89,17.78-6.76,6.03-1.86,12.95-4.43,19.33-3.79,2.95.3,5.47-2.73,5.47-5.47,0-3.21-2.52-5.18-5.47-5.47-7.02-.7-14.66,1.89-21.33,3.9-6.99,2.11-13.81,4.73-20.45,7.75-6.3,2.86-12.4,6.16-18.25,9.87-5.83,3.71-11.98,7.69-16.34,13.13-1.85,2.3-2.25,5.49,0,7.74,1.91,1.92,5.88,2.32,7.74,0"/>
    </g>
    <polygon class="cls-11" points="257.63 269.1 246.9 269.1 199.69 377.62 212.57 377.62 224.52 349.11 252.26 281.98 280.01 349.11 291.96 377.62 304.84 377.62 257.63 269.1"/>
    <g class="cls-20">
      <path class="cls-11" d="m501.41,375.85c3.92-4.89,9.27-8.36,14.52-11.67,5.45-3.44,11.13-6.52,16.99-9.22,5.76-2.66,11.72-4.89,17.78-6.76,6.03-1.86,12.95-4.43,19.33-3.79,2.95.3,5.47-2.73,5.47-5.47,0-3.21-2.52-5.18-5.47-5.47-7.02-.7-14.66,1.89-21.33,3.9-6.98,2.11-13.81,4.73-20.45,7.75-6.3,2.86-12.41,6.16-18.25,9.87-5.83,3.71-11.98,7.69-16.34,13.13-1.85,2.3-2.25,5.49,0,7.74,1.91,1.92,5.88,2.32,7.74,0"/>
    </g>
    <polygon class="cls-11" points="545.9 269.1 535.17 269.1 487.96 377.62 500.84 377.62 512.79 349.11 540.54 281.98 568.28 349.11 580.23 377.62 593.11 377.62 545.9 269.1"/>
    <g class="cls-19">
      <path class="cls-11" d="m295.54,502.97c-1.84,2.76-4.11,5.37-6.82,7.82-2.71,2.45-5.8,4.57-9.27,6.36-3.48,1.79-7.23,3.19-11.27,4.21-4.04,1.02-8.3,1.53-12.8,1.53-8.07,0-15.56-1.43-22.45-4.29-6.9-2.86-12.88-6.82-17.93-11.88-5.06-5.06-9.02-11.06-11.88-18.01-2.86-6.95-4.29-14.56-4.29-22.84s1.43-15.89,4.29-22.84c2.86-6.95,6.82-12.95,11.88-18.01,5.06-5.06,11.04-9.02,17.93-11.88,6.9-2.86,14.38-4.29,22.45-4.29,6.74,0,13.49,1.33,20.23,3.98,6.74,2.66,12.51,7.05,17.32,13.18l-9.66,7.2c-1.13-1.74-2.66-3.47-4.6-5.21-1.94-1.74-4.17-3.27-6.67-4.6-2.51-1.33-5.19-2.4-8.05-3.22-2.86-.82-5.72-1.23-8.58-1.23-6.95,0-13.18,1.28-18.7,3.83-5.52,2.55-10.19,5.98-14.02,10.27-3.83,4.29-6.77,9.27-8.81,14.94-2.04,5.67-3.07,11.62-3.07,17.85s1.02,12.19,3.07,17.86c2.04,5.67,4.98,10.65,8.81,14.94,3.83,4.29,8.5,7.71,14.02,10.27,5.52,2.56,11.75,3.83,18.7,3.83,2.86,0,5.7-.25,8.51-.76,2.81-.51,5.57-1.38,8.28-2.61,2.71-1.22,5.26-2.88,7.66-4.98,2.4-2.09,4.62-4.73,6.67-7.89l9.04,6.44Z"/>
    </g>
    <polygon class="cls-11" points="446.58 522.9 435.54 522.9 435.54 424.5 399.22 424.5 399.22 414.38 482.91 414.38 482.91 424.5 446.58 424.5 446.58 522.9"/>
    <g class="cls-25">
      <path class="cls-11" d="m317.31,521.13c3.92-4.89,9.27-8.36,14.52-11.67,5.45-3.44,11.13-6.52,16.99-9.22,5.76-2.66,11.72-4.89,17.78-6.76,6.03-1.86,12.95-4.43,19.33-3.79,2.95.3,5.47-2.73,5.47-5.47,0-3.21-2.52-5.18-5.47-5.47-7.02-.7-14.66,1.89-21.33,3.9-6.99,2.11-13.81,4.73-20.45,7.75-6.3,2.86-12.4,6.16-18.25,9.87-5.83,3.7-11.98,7.69-16.34,13.13-1.85,2.3-2.25,5.49,0,7.74,1.91,1.92,5.88,2.32,7.74,0"/>
    </g>
    <polygon class="cls-11" points="361.8 414.38 351.07 414.38 303.86 522.9 316.73 522.9 328.69 494.39 356.43 427.26 384.17 494.39 396.13 522.9 409 522.9 361.8 414.38"/>
    <polygon class="cls-11" points="593.18 512.78 510.06 512.78 510.06 471.55 590.24 471.55 590.24 461.44 510.06 461.44 510.06 424.5 593.18 424.5 593.18 414.38 499.03 414.38 499.03 522.9 593.18 522.9 593.18 512.78"/>
    <polygon class="cls-11" points="628.59 769.29 628.66 769.29 628.66 748.08 631.2 748.08 631.2 773.1 628.02 773.1 613.11 751.69 613.04 751.69 613.04 773.1 610.49 773.1 610.49 748.08 613.67 748.08 628.59 769.29"/>
    <polygon class="cls-11" points="646.68 769.29 646.75 769.29 646.75 748.08 649.29 748.08 649.29 773.1 646.11 773.1 631.2 751.69 631.12 751.69 631.12 773.1 628.58 773.1 628.58 748.08 631.76 748.08 646.68 769.29"/>
    <g class="cls-24">
      <path class="cls-11" d="m587.63,772.7c.9-1.13,2.14-1.93,3.35-2.69,1.26-.79,2.57-1.5,3.92-2.13,1.33-.61,2.7-1.13,4.1-1.56,1.39-.43,2.99-1.02,4.46-.87.68.07,1.26-.63,1.26-1.26,0-.74-.58-1.19-1.26-1.26-1.62-.16-3.38.43-4.92.9-1.61.49-3.18,1.09-4.72,1.79-1.45.66-2.86,1.42-4.21,2.28-1.35.85-2.76,1.77-3.77,3.03-.43.53-.52,1.27,0,1.78.44.44,1.36.54,1.79,0"/>
    </g>
    <polygon class="cls-11" points="597.89 748.08 595.42 748.08 584.53 773.1 587.5 773.1 590.26 766.53 596.65 751.05 603.05 766.53 605.81 773.1 608.78 773.1 597.89 748.08"/>
    <g class="cls-22">
      <path class="cls-11" d="m654.11,772.7c.9-1.13,2.14-1.93,3.35-2.69,1.26-.79,2.57-1.5,3.92-2.13,1.33-.61,2.7-1.13,4.1-1.56,1.39-.43,2.99-1.02,4.46-.87.68.07,1.26-.63,1.26-1.26,0-.74-.58-1.19-1.26-1.26-1.62-.16-3.38.43-4.92.9-1.61.49-3.18,1.09-4.72,1.79-1.45.66-2.86,1.42-4.21,2.28-1.35.85-2.76,1.77-3.77,3.03-.43.53-.52,1.27,0,1.78.44.44,1.36.54,1.79,0"/>
    </g>
    <polygon class="cls-11" points="664.36 748.08 661.89 748.08 651 773.1 653.97 773.1 656.73 766.53 663.13 751.05 669.52 766.53 672.28 773.1 675.25 773.1 664.36 748.08"/>
    <g class="cls-23">
      <path class="cls-11" d="m606.63,802.01c-.42.64-.95,1.24-1.57,1.8-.62.57-1.34,1.05-2.14,1.47-.8.41-1.67.74-2.6.97-.93.24-1.91.35-2.95.35-1.86,0-3.59-.33-5.18-.99-1.59-.66-2.97-1.57-4.14-2.74-1.17-1.17-2.08-2.55-2.74-4.15-.66-1.6-.99-3.36-.99-5.27s.33-3.66.99-5.27c.66-1.6,1.57-2.99,2.74-4.15,1.17-1.17,2.55-2.08,4.14-2.74,1.59-.66,3.32-.99,5.18-.99,1.55,0,3.11.31,4.67.92,1.55.61,2.89,1.63,3.99,3.04l-2.23,1.66c-.26-.4-.61-.8-1.06-1.2-.45-.4-.96-.75-1.54-1.06-.58-.31-1.2-.55-1.86-.74-.66-.19-1.32-.28-1.98-.28-1.6,0-3.04.29-4.31.88-1.27.59-2.35,1.38-3.23,2.37-.88.99-1.56,2.14-2.03,3.45-.47,1.31-.71,2.68-.71,4.12s.23,2.81.71,4.12c.47,1.31,1.15,2.46,2.03,3.45.88.99,1.96,1.78,3.23,2.37,1.27.59,2.71.88,4.31.88.66,0,1.31-.06,1.96-.18.65-.12,1.28-.32,1.91-.6.62-.28,1.21-.67,1.77-1.15.55-.48,1.07-1.09,1.54-1.82l2.09,1.48Z"/>
    </g>
    <polygon class="cls-11" points="641.92 806.6 639.38 806.6 639.38 783.91 631 783.91 631 781.58 650.3 781.58 650.3 783.91 641.92 783.91 641.92 806.6"/>
    <g class="cls-26">
      <path class="cls-11" d="m611.65,806.2c.9-1.13,2.14-1.93,3.35-2.69,1.26-.79,2.57-1.5,3.92-2.13,1.33-.61,2.7-1.13,4.1-1.56,1.39-.43,2.99-1.02,4.46-.87.68.07,1.26-.63,1.26-1.26,0-.74-.58-1.19-1.26-1.26-1.62-.16-3.38.43-4.92.9-1.61.49-3.18,1.09-4.72,1.79-1.45.66-2.86,1.42-4.21,2.28-1.35.85-2.76,1.77-3.77,3.03-.43.53-.52,1.27,0,1.78.44.44,1.36.54,1.79,0"/>
    </g>
    <polygon class="cls-11" points="621.91 781.58 619.44 781.58 608.55 806.6 611.52 806.6 614.28 800.03 620.67 784.55 627.07 800.03 629.83 806.6 632.8 806.6 621.91 781.58"/>
    <polygon class="cls-11" points="675.27 804.27 656.1 804.27 656.1 794.76 674.59 794.76 674.59 792.43 656.1 792.43 656.1 783.91 675.27 783.91 675.27 781.58 653.56 781.58 653.56 806.6 675.27 806.6 675.27 804.27"/>
  </g>
</svg>