<?xml version="1.0" encoding="UTF-8"?>
<svg id="Layer_1" data-name="Layer 1" xmlns="http://www.w3.org/2000/svg" xmlns:xlink="http://www.w3.org/1999/xlink" viewBox="0 0 612 792">
  <defs>
    <style>
      .cls-1 {
        fill: none;
      }

      .cls-2 {
        letter-spacing: -.02em;
      }

      .cls-3 {
        letter-spacing: -.09em;
      }

      .cls-4 {
        letter-spacing: -.09em;
      }

      .cls-5 {
        clip-path: url(#clippath);
      }

      .cls-6, .cls-7, .cls-8, .cls-9, .cls-10, .cls-11, .cls-12, .cls-13 {
        fill: #231f20;
      }

      .cls-6, .cls-8 {
        font-family: Avenir-Medium, Avenir;
      }

      .cls-6, .cls-8, .cls-10 {
        font-weight: 500;
      }

      .cls-6, .cls-10, .cls-12 {
        font-size: 10px;
      }

      .cls-14 {
        fill: #dcd621;
      }

      .cls-15 {
        letter-spacing: -.02em;
      }

      .cls-8, .cls-9 {
        font-size: 11px;
      }

      .cls-9 {
        font-family: Avenir-Black, Avenir;
        font-weight: 800;
      }

      .cls-16 {
        letter-spacing: 0em;
      }

      .cls-17 {
        letter-spacing: 0em;
      }

      .cls-18 {
        letter-spacing: .02em;
      }

      .cls-19 {
        clip-path: url(#clippath-1);
      }

      .cls-20 {
        clip-path: url(#clippath-2);
      }

      .cls-21 {
        letter-spacing: -.02em;
      }

      .cls-22 {
        letter-spacing: -.02em;
      }

      .cls-23 {
        letter-spacing: .02em;
      }

      .cls-24 {
        letter-spacing: -.11em;
      }

      .cls-25 {
        letter-spacing: -.11em;
      }

      .cls-26 {
        letter-spacing: .07em;
      }

      .cls-10 {
        font-family: Avenir-MediumOblique, Avenir;
        font-style: oblique;
      }

      .cls-27 {
        letter-spacing: .07em;
      }

      .cls-11 {
        font-family: Avenir-Light, Avenir;
        font-weight: 300;
      }

      .cls-11, .cls-13 {
        font-size: 9px;
      }

      .cls-28 {
        opacity: .5;
      }

      .cls-12 {
        font-family: Avenir-Roman, Avenir;
      }

      .cls-13 {
        font-family: Avenir-Book, Avenir;
      }

      .cls-29 {
        letter-spacing: -.02em;
      }
    </style>
    <clipPath id="clippath">
      <rect class="cls-1" width="612" height="792"/>
    </clipPath>
    <clipPath id="clippath-1">
      <rect class="cls-1" width="612" height="792"/>
    </clipPath>
    <clipPath id="clippath-2">
      <rect class="cls-1" x="35" y="35.12" width="105.44" height="108.56"/>
    </clipPath>
  </defs>
  <g class="cls-5">
    <text class="cls-9" transform="translate(228.96 173.6)"><tspan x="0" y="0">Masha Gerasimchuk-Djo</tspan><tspan class="cls-21" x="124.86" y="0">r</tspan><tspan class="cls-17" x="129.14" y="0">djevic</tspan></text>
    <text class="cls-6" transform="translate(228.96 186.6)"><tspan x="0" y="0">Assisstant P</tspan><tspan class="cls-15" x="54.06" y="0">r</tspan><tspan x="57.58" y="0">ofesso</tspan><tspan class="cls-4" x="87.23" y="0">r</tspan><tspan class="cls-16" x="90.01" y="0">, </tspan></text>
    <text class="cls-10" transform="translate(324.53 186.6)"><tspan x="0" y="0">Art &amp; Design</tspan></text>
    <path class="cls-7" d="m230.8,198.96h.33c.19,0,.36-.02.54-.06.17-.04.32-.11.45-.2.13-.09.23-.21.3-.36.07-.15.11-.33.11-.54,0-.34-.1-.61-.31-.8-.21-.19-.5-.28-.87-.28-.27,0-.51.06-.71.18-.2.12-.37.29-.5.52l-.57-.29c.19-.34.44-.6.73-.76.3-.16.64-.25,1.03-.25.25,0,.49.04.71.11.22.07.42.18.58.32.17.14.3.32.4.52.1.21.15.44.15.71,0,.17-.03.34-.09.49-.06.16-.13.3-.23.42s-.21.24-.35.33c-.13.09-.27.16-.41.21l.03.02c.18.04.34.1.5.2.15.1.28.22.39.36s.19.31.25.49c.06.18.09.37.09.57,0,.29-.05.56-.16.78-.11.23-.26.42-.44.58-.19.16-.4.27-.65.36-.25.08-.51.12-.78.12-.47,0-.88-.1-1.22-.31-.35-.2-.61-.53-.78-.98l.68-.21c.11.31.27.53.48.68.21.15.51.22.9.22.18,0,.35-.03.51-.09.16-.06.3-.15.43-.26.12-.11.22-.24.29-.4.07-.16.1-.33.1-.51,0-.24-.04-.44-.13-.61-.09-.16-.21-.3-.36-.4-.15-.1-.32-.18-.52-.22-.2-.04-.4-.07-.61-.07h-.28v-.59Zm7.65,3.64h-4.05v-.75l2.54-2.58c.1-.1.19-.2.29-.31.1-.11.18-.22.26-.34.08-.12.14-.25.19-.38.05-.13.07-.27.07-.41,0-.17-.03-.33-.09-.47-.06-.14-.15-.26-.27-.35-.11-.1-.25-.17-.4-.22-.15-.05-.31-.08-.48-.08-.32,0-.6.09-.83.27-.23.18-.38.42-.44.73l-.68-.07c.09-.47.31-.85.65-1.12.34-.27.76-.4,1.26-.4.26,0,.5.03.73.1.23.07.43.17.61.31.18.14.32.31.42.52.1.21.16.45.16.72,0,.25-.04.47-.11.67-.08.2-.17.4-.29.58-.12.18-.26.35-.41.51s-.31.32-.47.48l-2.01,1.99h3.35v.59Zm4.79-5.78l-2.57,5.78h-.73l2.62-5.78h-3.11v-.59h3.78v.59Zm5.49,4.86h.02l1.6-5.45h.77l1.6,5.45h.02l1.51-5.45h.72l-1.88,6.37h-.76l-1.6-5.45h-.02l-1.6,5.45h-.76l-1.88-6.37h.72l1.53,5.45Zm7.32.49c0,.13-.04.24-.13.34-.09.1-.21.15-.35.15s-.26-.05-.35-.15c-.09-.1-.13-.21-.13-.34s.04-.24.13-.34c.09-.1.21-.15.35-.15s.26.05.35.15c.09.1.13.21.13.34Zm7.27-.76l2.15-5.18h.99v6.37h-.65v-5.51h-.02l-2.3,5.51h-.34l-2.3-5.51h-.02v5.51h-.65v-6.37h.99l2.15,5.18Zm5.52-4.64c0,.13-.04.23-.13.31-.09.08-.19.12-.3.12s-.21-.04-.3-.12-.13-.18-.13-.31.04-.23.13-.31.19-.12.3-.12.21.04.3.12c.09.08.13.18.13.31Zm-.13,5.83h-.59v-4.21h.59v4.21Zm2.16,0h-.59v-6.8h.59v6.8Zm2.16,0h-.59v-6.8h.59v6.8Zm7.16-5.32c-.28-.41-.69-.62-1.23-.62-.17,0-.33.02-.49.07s-.31.11-.44.21c-.13.09-.23.21-.31.36-.08.15-.12.32-.12.52,0,.29.08.51.24.67.16.16.36.29.6.39.24.1.5.19.79.27.28.08.55.19.79.32.24.14.44.31.6.54.16.22.24.53.24.91,0,.29-.06.55-.18.78-.12.23-.29.42-.49.58-.2.16-.43.28-.68.36-.25.08-.5.13-.75.13-.39,0-.76-.07-1.11-.22-.35-.15-.65-.39-.9-.72l.59-.42c.14.23.33.42.57.56.25.14.54.21.87.21.16,0,.32-.03.48-.08.16-.05.31-.13.44-.23.13-.1.23-.22.32-.36.08-.14.13-.31.13-.49,0-.22-.05-.41-.14-.55-.09-.15-.22-.27-.37-.37-.15-.1-.33-.18-.52-.25-.2-.07-.4-.13-.6-.2-.21-.07-.41-.14-.6-.22-.2-.08-.37-.19-.52-.32-.15-.13-.28-.29-.37-.49-.09-.19-.14-.44-.14-.73s.06-.57.18-.8c.12-.23.27-.42.47-.57.19-.15.42-.26.66-.33.25-.07.5-.11.76-.11.36,0,.69.06.98.17.29.11.57.32.82.6l-.57.44Zm3.95,1.65h-1.21v2.48c0,.16.01.28.05.38.03.1.07.18.13.23.05.05.12.09.19.11.07.02.16.03.25.03.1,0,.21-.01.32-.04.11-.03.21-.07.3-.12l.03.55c-.22.1-.49.15-.8.15-.11,0-.23-.02-.36-.04-.12-.03-.24-.09-.34-.17-.1-.08-.19-.2-.25-.34-.07-.14-.1-.33-.1-.57v-2.65h-.89v-.54h.89v-1.19h.59v1.19h1.21v.54Zm1.9,3.24c0,.13-.05.24-.14.34s-.21.15-.35.15-.26-.05-.35-.15-.13-.21-.13-.34.04-.24.13-.34c.09-.1.21-.15.35-.15s.26.05.35.15c.09.1.14.21.14.34Zm1.94,1.69h-.59l.6-2.11h.73l-.74,2.11Zm4.69-7.63h1.9c.26,0,.52.03.77.08.25.05.46.14.66.27.19.13.34.29.46.49.11.2.17.46.17.76,0,.35-.1.65-.29.9-.2.25-.47.42-.83.5v.02c.45.04.8.19,1.06.47.25.28.38.65.38,1.12,0,.1-.03.25-.08.45-.05.2-.16.39-.32.59-.16.2-.4.36-.7.51s-.71.22-1.22.22h-1.94v-6.37Zm.65,2.79h1.3c.16,0,.31-.02.46-.06.15-.04.29-.1.41-.19.12-.09.22-.21.3-.35.08-.14.12-.31.12-.52,0-.07-.01-.16-.04-.28-.03-.12-.09-.24-.18-.36-.09-.12-.23-.22-.41-.31-.18-.09-.42-.13-.73-.13h-1.24v2.2Zm0,2.99h1.24c.23,0,.45-.02.66-.07.2-.05.38-.12.53-.22.15-.1.27-.22.36-.37.09-.15.13-.33.13-.54,0-.42-.14-.73-.4-.94-.27-.2-.67-.31-1.19-.31h-1.32v2.45Zm4.87-2.3c0-.19,0-.37-.01-.57,0-.19-.02-.44-.02-.75h.59v.78h.02c.04-.11.1-.22.18-.33.08-.1.17-.2.28-.28.11-.08.24-.15.39-.2.15-.05.31-.08.5-.08.17,0,.32.02.44.05l-.12.58c-.08-.03-.19-.04-.34-.04-.23,0-.42.04-.58.13-.16.09-.3.2-.4.33s-.19.28-.24.44c-.05.16-.08.31-.08.45v2.38h-.59v-2.9Zm3.79-2.93c0,.13-.04.23-.13.31-.09.08-.19.12-.3.12s-.21-.04-.3-.12-.13-.18-.13-.31.04-.23.13-.31.19-.12.3-.12.21.04.3.12c.09.08.13.18.13.31Zm-.13,5.83h-.59v-4.21h.59v4.21Zm4.5-3.22c-.1-.16-.24-.29-.43-.4-.18-.11-.39-.16-.63-.16-.25,0-.47.03-.66.12-.2.08-.36.2-.5.35-.14.15-.24.33-.32.54-.07.21-.11.43-.11.67s.04.46.11.67c.07.21.18.39.32.54.14.15.3.27.5.35.19.08.42.12.66.12.23,0,.44-.05.63-.16.18-.11.33-.24.43-.4l.49.37c-.21.25-.45.43-.71.54-.26.12-.54.18-.83.18-.34,0-.65-.05-.93-.16-.28-.11-.51-.27-.71-.46-.2-.2-.34-.43-.45-.71-.1-.27-.15-.57-.15-.89s.05-.61.15-.89c.1-.27.25-.51.45-.71.19-.2.43-.35.71-.46.28-.11.58-.16.93-.16.29,0,.56.07.83.18.26.12.5.3.71.54l-.49.37Zm1.86.91l1.99-1.9h.89l-2.1,1.93,2.32,2.29h-.92l-2.19-2.21v2.21h-.59v-6.8h.59v4.49Zm11.71,1.3c-.11.16-.24.32-.4.46-.16.14-.34.27-.54.37-.2.11-.42.19-.66.25-.24.06-.49.09-.75.09-.47,0-.91-.08-1.32-.25s-.76-.4-1.05-.7-.53-.65-.7-1.06c-.17-.41-.25-.86-.25-1.34s.08-.93.25-1.34c.17-.41.4-.76.7-1.06s.65-.53,1.05-.7c.4-.17.84-.25,1.32-.25.4,0,.79.08,1.19.23.4.16.73.41,1.02.77l-.57.42c-.07-.1-.16-.2-.27-.31-.11-.1-.24-.19-.39-.27-.15-.08-.3-.14-.47-.19-.17-.05-.34-.07-.5-.07-.41,0-.77.08-1.1.22-.32.15-.6.35-.82.6-.23.25-.4.54-.52.88-.12.33-.18.68-.18,1.05s.06.72.18,1.05c.12.33.29.63.52.88.22.25.5.45.82.6.32.15.69.22,1.1.22.17,0,.33-.01.5-.04.16-.03.33-.08.49-.15.16-.07.31-.17.45-.29.14-.12.27-.28.39-.46l.53.38Zm1.74-4.82c0,.13-.04.23-.13.31-.09.08-.19.12-.3.12s-.21-.04-.3-.12-.13-.18-.13-.31.04-.23.13-.31.19-.12.3-.12.21.04.3.12c.09.08.13.18.13.31Zm-.13,5.83h-.59v-4.21h.59v4.21Zm3.61-3.67h-1.21v2.48c0,.16.01.28.05.38.03.1.07.18.13.23.05.05.12.09.19.11.07.02.16.03.25.03.1,0,.21-.01.32-.04.11-.03.21-.07.3-.12l.03.55c-.22.1-.49.15-.8.15-.11,0-.23-.02-.36-.04-.12-.03-.24-.09-.34-.17-.1-.08-.19-.2-.25-.34-.07-.14-.1-.33-.1-.57v-2.65h-.89v-.54h.89v-1.19h.59v1.19h1.21v.54Zm2.38,2.94l1.29-3.48h.72l-2.11,5.31c-.13.32-.29.58-.48.77-.2.19-.48.29-.84.29-.09,0-.18,0-.27,0-.09,0-.18-.02-.27-.05l.06-.58c.13.07.28.1.45.1.21,0,.37-.07.49-.2.12-.13.23-.32.32-.56l.31-.81-1.73-4.27h.75l1.32,3.48Zm7.76.73h-.65v-5.56l-1.14,1.01-.4-.49,1.62-1.33h.58v6.37Zm5.09-2.9c0-.19,0-.37-.01-.57,0-.19-.02-.44-.02-.75h.59v.78h.02c.04-.11.1-.22.18-.33.08-.1.17-.2.28-.28.11-.08.24-.15.39-.2.15-.05.31-.08.5-.08.17,0,.32.02.44.05l-.12.58c-.08-.03-.19-.04-.34-.04-.23,0-.42.04-.58.13-.16.09-.3.2-.4.33s-.19.28-.24.44c-.05.16-.08.31-.08.45v2.38h-.59v-2.9Zm3.19,2.47c0,.13-.05.24-.14.34s-.21.15-.35.15-.26-.05-.35-.15-.13-.21-.13-.34.04-.24.13-.34c.09-.1.21-.15.35-.15s.26.05.35.15c.09.1.14.21.14.34Zm2.6-3.2h.33c.19,0,.36-.02.54-.06.17-.04.32-.11.45-.2.13-.09.23-.21.3-.36.07-.15.11-.33.11-.54,0-.34-.1-.61-.31-.8-.21-.19-.5-.28-.87-.28-.27,0-.51.06-.71.18-.2.12-.37.29-.5.52l-.57-.29c.19-.34.44-.6.73-.76.3-.16.64-.25,1.03-.25.25,0,.49.04.71.11.22.07.42.18.58.32.17.14.3.32.4.52.1.21.15.44.15.71,0,.17-.03.34-.09.49-.06.16-.14.3-.23.42s-.21.24-.35.33c-.13.09-.27.16-.41.21l.03.02c.18.04.34.1.49.2.15.1.28.22.39.36.11.14.19.31.25.49.06.18.09.37.09.57,0,.29-.05.56-.16.78-.11.23-.26.42-.44.58-.19.16-.4.27-.65.36-.25.08-.51.12-.78.12-.47,0-.88-.1-1.22-.31-.35-.2-.61-.53-.78-.98l.68-.21c.11.31.27.53.48.68.21.15.51.22.9.22.18,0,.35-.03.51-.09.16-.06.3-.15.43-.26.12-.11.22-.24.29-.4.07-.16.1-.33.1-.51,0-.24-.04-.44-.13-.61-.09-.16-.21-.3-.36-.4-.15-.1-.32-.18-.52-.22-.2-.04-.4-.07-.61-.07h-.28v-.59Zm7.65,3.64h-4.05v-.75l2.54-2.58c.1-.1.19-.2.29-.31.1-.11.18-.22.26-.34.08-.12.14-.25.19-.38.05-.13.07-.27.07-.41,0-.17-.03-.33-.09-.47-.06-.14-.15-.26-.27-.35-.11-.1-.25-.17-.4-.22-.15-.05-.31-.08-.48-.08-.32,0-.6.09-.83.27-.23.18-.38.42-.44.73l-.68-.07c.09-.47.31-.85.65-1.12.34-.27.76-.4,1.26-.4.26,0,.5.03.73.1.23.07.43.17.61.31.18.14.32.31.42.52.1.21.16.45.16.72,0,.25-.04.47-.11.67-.08.2-.17.4-.29.58-.12.18-.26.35-.41.51-.15.16-.31.32-.47.48l-2.01,1.99h3.35v.59Zm5,0h-4.05v-.75l2.54-2.58c.1-.1.19-.2.29-.31.1-.11.18-.22.26-.34.08-.12.14-.25.19-.38.05-.13.07-.27.07-.41,0-.17-.03-.33-.09-.47-.06-.14-.15-.26-.27-.35-.11-.1-.25-.17-.4-.22-.15-.05-.31-.08-.48-.08-.32,0-.6.09-.83.27-.23.18-.38.42-.44.73l-.68-.07c.09-.47.31-.85.65-1.12.34-.27.76-.4,1.26-.4.26,0,.5.03.73.1.23.07.43.17.61.31.18.14.32.31.42.52.1.21.16.45.16.72,0,.25-.04.47-.11.67-.08.2-.17.4-.29.58-.12.18-.26.35-.41.51-.15.16-.31.32-.47.48l-2.01,1.99h3.35v.59Zm1.7,1.26h-.59l.6-2.11h.73l-.74,2.11Zm7.7-6.58c-.28-.41-.69-.62-1.23-.62-.17,0-.33.02-.49.07s-.31.11-.44.21c-.13.09-.23.21-.31.36-.08.15-.12.32-.12.52,0,.29.08.51.24.67.16.16.36.29.6.39.24.1.5.19.79.27.28.08.55.19.79.32.24.14.44.31.6.54.16.22.24.53.24.91,0,.29-.06.55-.18.78-.12.23-.29.42-.49.58-.2.16-.43.28-.68.36-.25.08-.5.13-.75.13-.39,0-.76-.07-1.11-.22-.35-.15-.65-.39-.9-.72l.59-.42c.14.23.33.42.57.56.25.14.54.21.87.21.16,0,.32-.03.48-.08.16-.05.31-.13.44-.23.13-.1.23-.22.32-.36.08-.14.13-.31.13-.49,0-.22-.05-.41-.14-.55-.09-.15-.22-.27-.37-.37-.15-.1-.33-.18-.52-.25-.2-.07-.4-.13-.6-.2-.21-.07-.41-.14-.6-.22-.2-.08-.37-.19-.52-.32-.15-.13-.28-.29-.37-.49-.09-.19-.14-.44-.14-.73s.06-.57.18-.8c.12-.23.27-.42.47-.57.19-.15.42-.26.66-.33.25-.07.5-.11.76-.11.36,0,.69.06.98.17.29.11.57.32.82.6l-.57.44Zm1.77,1.11h.59v.7h.02c.1-.14.21-.27.34-.37.13-.1.27-.19.41-.25.14-.07.29-.11.45-.14.15-.03.3-.04.44-.04.33,0,.63.06.9.17.27.11.51.27.71.46s.35.43.46.7c.11.27.17.56.17.88s-.06.61-.17.88c-.11.27-.27.5-.46.7s-.43.35-.71.46c-.27.11-.57.17-.9.17-.14,0-.28-.02-.44-.04-.15-.03-.3-.08-.45-.14-.14-.07-.28-.15-.41-.25-.13-.1-.25-.22-.34-.37h-.02v3.29h-.59v-6.8Zm3.84,2.11c0-.23-.04-.45-.11-.66-.08-.2-.18-.38-.32-.53-.14-.15-.3-.27-.5-.36-.2-.09-.42-.13-.66-.13s-.47.04-.68.13c-.2.09-.38.21-.53.36-.15.15-.27.33-.35.53-.08.2-.13.42-.13.66s.04.45.13.66c.08.2.2.38.35.53.15.15.33.27.53.36.2.09.43.13.68.13s.47-.04.66-.13c.19-.09.36-.21.5-.36.14-.15.24-.33.32-.53.07-.2.11-.42.11-.66Zm1.72-.79c0-.19,0-.37-.01-.57,0-.19-.02-.44-.02-.75h.59v.78h.02c.04-.11.1-.22.18-.33.08-.1.17-.2.28-.28.11-.08.24-.15.39-.2.15-.05.31-.08.5-.08.17,0,.32.02.44.05l-.12.58c-.08-.03-.19-.04-.34-.04-.23,0-.42.04-.58.13-.16.09-.3.2-.4.33s-.19.28-.24.44c-.05.16-.08.31-.08.45v2.38h-.59v-2.9Zm3.79-2.93c0,.13-.04.23-.13.31-.09.08-.19.12-.3.12s-.21-.04-.3-.12-.13-.18-.13-.31.04-.23.13-.31.19-.12.3-.12.21.04.3.12c.09.08.13.18.13.31Zm-.13,5.83h-.59v-4.21h.59v4.21Zm2-4.21c.01.11.02.23.02.34,0,.11,0,.22,0,.34h.02c.07-.11.15-.22.25-.32.1-.1.22-.18.34-.25.13-.07.26-.12.4-.16.14-.04.28-.06.42-.06.54,0,.94.14,1.2.43.26.29.39.69.39,1.22v2.67h-.59v-2.33c0-.47-.08-.83-.24-1.08-.16-.25-.46-.37-.9-.37-.03,0-.11.01-.25.04-.14.02-.28.09-.44.2-.15.11-.29.27-.41.49-.12.22-.18.52-.18.9v2.16h-.59v-3.28c0-.11,0-.26-.01-.43,0-.17-.02-.34-.03-.49h.61Zm4.76,5.06c.17.23.4.42.68.56.28.14.59.21.93.21.3,0,.55-.04.76-.13.21-.09.38-.21.51-.36.13-.15.22-.33.28-.53.06-.2.09-.42.09-.64v-.76h-.02c-.19.29-.43.49-.7.61-.28.12-.57.18-.87.18s-.59-.05-.86-.16c-.27-.11-.5-.26-.7-.45-.2-.19-.35-.42-.47-.68-.11-.26-.17-.55-.17-.86s.05-.59.16-.85c.11-.26.26-.49.45-.69s.41-.35.68-.46c.26-.11.55-.17.86-.17.13,0,.26.01.4.04.14.02.28.07.42.13.14.06.28.14.42.25.14.11.27.24.39.4h.02v-.7h.59v4.18c0,.23-.03.47-.09.73-.06.26-.17.49-.33.71-.17.22-.39.4-.69.54-.29.14-.68.22-1.15.22-.42,0-.8-.07-1.12-.21-.33-.14-.63-.35-.9-.64l.44-.47Zm.11-3.01c0,.22.04.43.12.63.08.2.19.37.33.51.14.15.31.26.5.35.19.09.39.13.62.13s.42-.04.62-.12c.19-.08.37-.19.52-.33.15-.14.27-.31.35-.51s.12-.42.11-.67c0-.22-.04-.43-.11-.63-.07-.19-.18-.37-.32-.51-.14-.15-.31-.26-.5-.35-.2-.09-.42-.13-.67-.13-.22,0-.43.04-.62.13-.19.09-.35.2-.5.35-.14.15-.25.32-.33.51-.08.2-.12.4-.12.63Zm7.03-1.51h-1v3.67h-.59v-3.67h-.89v-.54h.89v-1.15c0-.56.13-.96.39-1.19.26-.24.6-.36,1.03-.36.08,0,.17,0,.26.02.09.01.17.03.26.04l-.11.54c-.07-.02-.15-.03-.23-.04-.08-.01-.16-.02-.23-.02-.16,0-.29.03-.4.08-.1.05-.18.13-.23.23-.05.1-.09.21-.11.35-.02.13-.03.27-.03.42v1.08h1v.54Zm1.58-2.16c0,.13-.04.23-.14.31-.09.08-.19.12-.3.12s-.21-.04-.3-.12-.13-.18-.13-.31.04-.23.13-.31.19-.12.3-.12.21.04.3.12c.09.08.14.18.14.31Zm-.14,5.83h-.59v-4.21h.59v4.21Zm1.85-1.94c.02.21.07.41.15.59.08.19.19.35.33.48.14.14.3.24.48.32.18.08.37.12.58.12.32,0,.59-.07.82-.22.23-.15.41-.32.53-.51l.46.38c-.25.32-.53.55-.83.68-.3.14-.63.21-.98.21-.31,0-.6-.06-.87-.17-.27-.11-.5-.27-.69-.46-.19-.2-.34-.43-.45-.7-.11-.27-.17-.56-.17-.88s.05-.61.16-.88c.11-.27.26-.5.45-.7.19-.2.42-.35.67-.46.26-.11.54-.17.84-.17.32,0,.6.06.86.17.25.11.46.27.63.45.17.19.3.41.39.67.09.26.13.53.13.81v.27h-3.51Zm2.86-.49c0-.4-.12-.73-.36-.98-.24-.25-.58-.37-1.01-.37-.19,0-.38.04-.56.11-.18.08-.34.18-.47.3-.14.13-.24.27-.32.43-.08.16-.12.33-.12.5h2.84Zm2.46,2.43h-.59v-6.8h.59v6.8Zm5.63,0h-.59v-.7h-.02c-.1.14-.21.27-.34.37-.13.1-.27.19-.41.25-.14.07-.29.11-.45.14-.15.03-.3.04-.44.04-.33,0-.63-.06-.9-.17-.27-.11-.51-.27-.71-.46s-.35-.43-.46-.7c-.11-.27-.17-.56-.17-.88s.06-.61.17-.88c.11-.27.27-.5.46-.7s.43-.35.71-.46c.27-.11.57-.17.9-.17.14,0,.28.02.44.04.15.03.3.08.45.14.14.07.28.15.41.25.13.1.25.23.34.37h.02v-3.29h.59v6.8Zm-3.84-2.11c0,.23.04.45.11.66.07.2.18.38.32.53.14.15.3.27.5.36.19.09.42.13.66.13s.46-.04.67-.13c.21-.09.39-.21.54-.36.15-.15.27-.33.35-.53.08-.2.13-.42.13-.66s-.04-.45-.13-.66c-.08-.2-.2-.38-.35-.53-.15-.15-.33-.27-.54-.36-.21-.09-.43-.13-.67-.13s-.47.04-.66.13c-.2.09-.36.21-.5.36-.14.15-.24.33-.32.53-.08.2-.11.42-.11.66Zm5.67,3.37h-.59l.6-2.11h.73l-.74,2.11Zm7.83-2.45l2.15-5.18h.99v6.37h-.65v-5.51h-.02l-2.3,5.51h-.34l-2.3-5.51h-.02v5.51h-.65v-6.37h.99l2.15,5.18Zm11.08-2c0,.49-.08.93-.25,1.34-.17.41-.4.76-.7,1.06s-.65.53-1.05.7-.84.25-1.32.25-.91-.08-1.32-.25-.76-.4-1.05-.7-.53-.65-.7-1.06c-.17-.41-.25-.86-.25-1.34s.08-.93.25-1.34c.17-.41.4-.76.7-1.06s.65-.53,1.05-.7c.4-.17.84-.25,1.32-.25s.91.08,1.32.25c.4.17.76.4,1.05.7s.53.65.7,1.06c.17.41.25.85.25,1.34Zm-.7,0c0-.37-.06-.72-.18-1.05-.12-.33-.29-.63-.52-.88s-.5-.45-.82-.6c-.32-.15-.69-.22-1.1-.22s-.77.08-1.1.22c-.32.15-.6.35-.82.6-.23.25-.4.54-.52.88-.12.33-.18.68-.18,1.05s.06.72.18,1.05c.12.33.29.63.52.88.22.25.5.45.82.6.32.15.69.22,1.1.22s.77-.07,1.1-.22c.32-.15.6-.35.82-.6s.4-.54.52-.88c.12-.33.18-.68.18-1.05Z"/>
    <text class="cls-13" transform="translate(428.47 202.6)"><tspan x="0" y="0"> </tspan></text>
    <text class="cls-13" transform="translate(432.97 202.6)"><tspan x="0" y="0">65806</tspan></text>
    <text class="cls-13" transform="translate(228.96 215.6)"><tspan x="0" y="0">MariaGD@MissouriState.edu</tspan></text>
    <text class="cls-9" transform="translate(228.96 257.6)"><tspan x="0" y="0">Nicol Potter</tspan></text>
    <text class="cls-6" transform="translate(228.96 270.6)"><tspan x="0" y="0">Owne</tspan><tspan class="cls-3" x="27.03" y="0">r</tspan><tspan x="29.82" y="0">, </tspan></text>
    <text class="cls-10" transform="translate(264.33 270.6)"><tspan class="cls-25" x="0" y="0">T</tspan><tspan x="4.64" y="0">own Squa</tspan><tspan class="cls-15" x="48.93" y="0">r</tspan><tspan x="52.45" y="0">e Pub &amp; Grub</tspan></text>
    <text class="cls-13" transform="translate(228.96 286.6)"><tspan x="0" y="0">7843 </tspan><tspan class="cls-24" x="22.52" y="0">T</tspan><tspan x="26.69" y="0">own Squa</tspan><tspan class="cls-29" x="66.21" y="0">r</tspan><tspan x="69.05" y="0">e </tspan><tspan class="cls-29" x="76.55" y="0">A</tspan><tspan x="82.57" y="0">ve., Da</tspan><tspan class="cls-2" x="110.76" y="0">r</tspan><tspan x="113.59" y="0">denne Prairie, MO</tspan></text>
    <text class="cls-13" transform="translate(416.2 286.6)"><tspan x="0" y="0"> </tspan></text>
    <text class="cls-13" transform="translate(420.7 286.6)"><tspan x="0" y="0">63368</tspan></text>
    <text class="cls-13" transform="translate(228.96 299.6)"><tspan class="cls-24" x="0" y="0">T</tspan><tspan x="4.18" y="0">ownsqua</tspan><tspan class="cls-29" x="40.02" y="0">r</tspan><tspan x="42.86" y="0">epubngrub@yahoo.com</tspan></text>
    <text class="cls-9" transform="translate(228.96 341.6)"><tspan x="0" y="0">Sean Ba</tspan><tspan class="cls-23" x="41.14" y="0">r</tspan><tspan x="45.8" y="0">nhill</tspan></text>
    <text class="cls-6" transform="translate(228.96 354.6)"><tspan x="0" y="0">Di</tspan><tspan class="cls-22" x="9.81" y="0">r</tspan><tspan x="13.33" y="0">ecto</tspan><tspan class="cls-3" x="33.35" y="0">r</tspan><tspan x="36.14" y="0">, Marketing, Comm and External Relations, </tspan></text>
    <text class="cls-10" transform="translate(228.96 367.6)"><tspan x="0" y="0">College of Business</tspan></text>
    <path class="cls-7" d="m232.24,380.86l-.02-.02c-.1.07-.24.13-.41.16-.17.04-.33.05-.47.05-.28,0-.53-.05-.77-.15-.24-.1-.44-.24-.62-.41-.17-.17-.31-.38-.41-.62-.1-.24-.15-.5-.15-.79s.05-.56.15-.8c.1-.24.25-.45.43-.62.19-.17.4-.31.66-.4.25-.1.53-.14.83-.14s.58.05.83.14c.25.1.47.23.66.4.19.17.33.38.43.62.1.24.15.51.15.8,0,.35-.05.66-.16.93-.11.26-.24.53-.39.78l-1.72,2.8h-.76l1.74-2.74Zm.65-1.77c0-.2-.03-.39-.1-.56-.07-.17-.17-.31-.29-.43-.13-.12-.28-.21-.45-.28-.17-.07-.37-.1-.58-.1s-.4.03-.58.1c-.17.07-.32.16-.45.28-.13.12-.22.26-.29.43-.07.17-.1.35-.1.56s.03.39.1.56c.07.17.17.31.29.44.13.12.28.22.45.28.17.07.37.1.58.1s.4-.03.58-.1c.17-.07.32-.16.45-.28.13-.12.22-.27.29-.44.07-.17.1-.35.1-.56Zm3.58-1.97c.46,0,.82.11,1.11.32.28.21.5.48.66.8.16.32.26.68.31,1.07.05.39.08.76.08,1.11s-.03.72-.08,1.11-.16.74-.31,1.07c-.16.32-.38.59-.66.8-.28.21-.65.32-1.11.32s-.83-.11-1.11-.32c-.28-.21-.5-.48-.66-.8-.16-.32-.26-.68-.32-1.07s-.08-.76-.08-1.11.03-.72.08-1.11c.05-.39.16-.74.32-1.07.16-.32.37-.59.66-.8.28-.21.65-.32,1.11-.32Zm0,.59c-.35,0-.62.09-.82.28-.2.19-.35.42-.45.69-.1.28-.17.57-.19.88-.03.31-.04.59-.04.85s.01.53.04.85c.03.31.09.61.19.88.1.28.25.51.45.69.2.19.48.28.82.28s.62-.09.82-.28c.2-.19.35-.42.45-.69.1-.28.17-.57.19-.88.03-.31.04-.59.04-.85s-.01-.53-.04-.85c-.03-.31-.09-.61-.19-.88-.1-.28-.25-.51-.45-.69-.2-.19-.48-.28-.82-.28Zm5.63,5.89h-.65v-5.56l-1.14,1.01-.4-.49,1.62-1.33h.58v6.37Zm8.25-5.32c-.28-.41-.69-.62-1.23-.62-.17,0-.33.02-.49.07-.16.04-.31.11-.44.21-.13.09-.23.21-.31.36-.08.15-.12.32-.12.52,0,.29.08.51.24.67.16.16.36.29.6.39.24.1.5.19.79.27.28.08.55.19.79.32.24.14.44.31.6.54.16.22.24.53.24.91,0,.29-.06.55-.18.78-.12.23-.29.42-.49.58-.2.16-.43.28-.68.36-.25.08-.5.13-.75.13-.39,0-.76-.07-1.11-.22s-.65-.39-.9-.72l.59-.42c.14.23.33.42.57.56.25.14.54.21.87.21.16,0,.32-.03.48-.08.16-.05.31-.13.44-.22.13-.1.23-.22.32-.36.08-.14.13-.31.13-.49,0-.22-.05-.41-.14-.55-.09-.15-.22-.27-.37-.37s-.33-.18-.52-.25c-.2-.07-.4-.13-.6-.2-.21-.07-.41-.14-.6-.23-.2-.08-.37-.19-.52-.32-.15-.13-.28-.29-.37-.49-.09-.19-.14-.44-.14-.73s.06-.57.18-.8c.12-.23.27-.42.47-.57.19-.15.42-.26.66-.33.25-.07.5-.11.76-.11.36,0,.69.06.98.17.29.11.57.32.82.6l-.57.44Zm2.86,4.89c0,.13-.04.24-.13.34-.09.1-.21.15-.35.15s-.26-.05-.35-.15c-.09-.1-.13-.21-.13-.34s.04-.24.13-.34c.09-.1.21-.15.35-.15s.26.05.35.15c.09.1.13.21.13.34Zm8.74-.54h.02v-5.4h.65v6.37h-.81l-3.8-5.45h-.02v5.45h-.65v-6.37h.81l3.8,5.4Zm4.88-1.61v-.11c0-.73-.36-1.09-1.08-1.09-.49,0-.92.17-1.29.49l-.36-.42c.4-.41.99-.61,1.78-.61.2,0,.4.03.59.09.19.06.35.15.49.27.14.12.25.28.33.46.08.19.13.41.13.67v1.88c0,.16,0,.33.02.51.01.18.03.32.05.44h-.58c-.02-.1-.03-.21-.04-.33,0-.12-.01-.24-.01-.35h-.02c-.17.28-.38.48-.62.61-.24.12-.53.18-.87.18-.19,0-.37-.03-.54-.08-.17-.05-.33-.13-.46-.23-.14-.1-.24-.23-.32-.39-.08-.15-.12-.33-.12-.54,0-.34.09-.61.27-.81.18-.19.4-.34.67-.44.27-.1.55-.16.86-.18.3-.02.58-.04.83-.04h.3Zm-.31.49c-.15,0-.34,0-.56.02-.23.02-.44.05-.65.11-.21.06-.38.15-.53.27-.15.12-.22.29-.22.49,0,.14.03.26.09.36.06.1.13.18.23.24.1.06.2.11.32.14s.24.04.36.04c.22,0,.4-.04.56-.11.16-.07.29-.17.4-.29.11-.12.19-.27.24-.43.05-.16.08-.34.08-.53v-.31h-.31Zm4.45-1.58h-1.21v2.48c0,.16.01.28.05.38.03.1.07.18.13.23s.12.09.19.11c.07.02.16.03.25.03.1,0,.21-.01.32-.04.11-.03.21-.07.3-.12l.03.55c-.22.1-.49.15-.8.15-.11,0-.23-.02-.36-.05-.12-.03-.24-.09-.34-.17-.1-.08-.19-.2-.25-.34-.07-.14-.1-.33-.1-.57v-2.65h-.89v-.54h.89v-1.19h.59v1.19h1.21v.54Zm1.67-2.16c0,.13-.04.23-.13.31-.09.08-.19.12-.3.12s-.21-.04-.3-.12c-.09-.08-.13-.18-.13-.31s.04-.23.13-.31c.09-.08.19-.12.3-.12s.21.04.3.12c.09.08.13.18.13.31Zm-.13,5.83h-.59v-4.21h.59v4.21Zm5.69-2.11c0,.32-.06.61-.17.88-.11.27-.27.5-.46.7s-.43.35-.71.46c-.27.11-.57.17-.9.17s-.62-.06-.9-.17c-.27-.11-.51-.27-.71-.46s-.35-.43-.46-.7c-.11-.27-.17-.56-.17-.88s.06-.61.17-.88c.11-.27.27-.5.46-.7s.43-.35.71-.46c.27-.11.57-.17.9-.17s.63.06.9.17c.27.11.51.27.71.46s.35.43.46.7c.11.27.17.56.17.88Zm-.65,0c0-.23-.04-.45-.11-.66-.08-.2-.18-.38-.32-.53-.14-.15-.3-.27-.5-.36-.2-.09-.42-.13-.66-.13s-.47.04-.66.13c-.2.09-.36.21-.49.36-.14.15-.24.33-.32.53-.08.2-.11.42-.11.66s.04.45.11.66c.07.2.18.38.32.53.13.15.3.27.49.36.19.09.42.13.66.13s.47-.04.66-.13c.19-.09.36-.21.5-.36.14-.15.24-.33.32-.53.07-.2.11-.42.11-.66Zm2.3-2.11c.01.11.02.23.02.34,0,.11,0,.22,0,.34h.02c.07-.11.15-.22.25-.32.1-.1.22-.18.34-.25.13-.07.26-.12.4-.16.14-.04.28-.06.42-.06.54,0,.94.14,1.2.43.26.29.39.69.39,1.22v2.67h-.59v-2.33c0-.47-.08-.83-.24-1.08-.16-.25-.46-.37-.9-.37-.03,0-.11.01-.25.04-.14.02-.28.09-.44.2-.15.11-.29.27-.41.49-.12.22-.18.52-.18.9v2.16h-.59v-3.29c0-.11,0-.26-.01-.43,0-.17-.02-.34-.03-.49h.61Zm7.14,1.63v-.11c0-.73-.36-1.09-1.08-1.09-.49,0-.92.17-1.29.49l-.36-.42c.4-.41.99-.61,1.78-.61.2,0,.4.03.59.09.19.06.35.15.49.27.14.12.25.28.33.46.08.19.13.41.13.67v1.88c0,.16,0,.33.02.51.01.18.03.32.05.44h-.58c-.02-.1-.03-.21-.04-.33,0-.12-.01-.24-.01-.35h-.02c-.17.28-.38.48-.62.61-.24.12-.53.18-.87.18-.19,0-.37-.03-.54-.08-.17-.05-.33-.13-.46-.23-.14-.1-.24-.23-.32-.39-.08-.15-.12-.33-.12-.54,0-.34.09-.61.27-.81.18-.19.4-.34.67-.44.27-.1.55-.16.86-.18.3-.02.58-.04.83-.04h.3Zm-.31.49c-.15,0-.34,0-.56.02-.23.02-.44.05-.65.11-.21.06-.38.15-.53.27-.15.12-.22.29-.22.49,0,.14.03.26.09.36.06.1.13.18.23.24.1.06.2.11.32.14s.24.04.36.04c.22,0,.4-.04.56-.11.16-.07.29-.17.4-.29.11-.12.19-.27.24-.43.05-.16.08-.34.08-.53v-.31h-.31Zm3.01,2.1h-.59v-6.8h.59v6.8Zm4.04,0h-.76l2.77-6.37h.63l2.77,6.37h-.76l-.7-1.67h-3.26l-.7,1.67Zm.94-2.27h2.76l-1.38-3.35-1.39,3.35Zm6.81,2.27h-.67l-1.71-4.21h.7l1.35,3.55h.02l1.34-3.55h.68l-1.71,4.21Zm2.9-1.94c.02.21.07.41.15.59.08.19.19.35.33.48.14.14.3.24.48.32.18.08.37.12.58.12.32,0,.59-.07.82-.22.23-.15.41-.32.53-.51l.46.38c-.25.32-.53.55-.83.68-.3.14-.63.21-.98.21-.31,0-.6-.06-.87-.17-.27-.11-.5-.27-.69-.46-.19-.2-.34-.43-.45-.7-.11-.27-.17-.56-.17-.88s.05-.61.16-.88c.11-.27.26-.5.45-.7.19-.2.42-.35.67-.46.26-.11.54-.17.84-.17.32,0,.6.06.86.17.25.11.46.27.63.45.17.19.3.41.39.67.09.26.13.53.13.81v.27h-3.51Zm2.86-.49c0-.4-.12-.73-.36-.98-.24-.25-.58-.37-1.01-.37-.19,0-.38.04-.56.11-.18.08-.34.18-.47.3-.14.13-.24.27-.32.43-.08.16-.12.33-.12.5h2.84Zm2.82,2c0,.13-.05.24-.14.34s-.21.15-.35.15-.26-.05-.35-.15-.13-.21-.13-.34.04-.24.13-.34.21-.15.35-.15.26.05.35.15.14.21.14.34Zm1.94,1.69h-.59l.6-2.12h.73l-.74,2.12Zm9.4-6.46c-.22-.23-.47-.41-.77-.54-.3-.13-.65-.2-1.04-.2s-.77.08-1.1.23c-.32.15-.6.35-.82.6-.23.25-.4.54-.52.88-.12.33-.18.68-.18,1.05s.06.72.18,1.05c.12.33.29.63.52.88.22.25.5.45.82.6.32.15.69.23,1.1.23.33,0,.65-.04.95-.12.3-.08.57-.19.81-.33v-2.13h-1.52v-.59h2.17v3.12c-.36.21-.75.37-1.18.48-.43.11-.84.17-1.23.17-.47,0-.91-.08-1.32-.25s-.76-.4-1.05-.7-.53-.65-.7-1.06c-.17-.41-.25-.86-.25-1.34s.08-.93.25-1.34c.17-.41.4-.76.7-1.06s.65-.53,1.05-.7c.4-.17.84-.25,1.32-.25.51,0,.95.07,1.32.21.37.14.7.36.99.64l-.49.48Zm2.81,5.2h-.59v-6.8h.59v6.8Zm4.13-2.58v-.11c0-.73-.36-1.09-1.08-1.09-.49,0-.92.17-1.29.49l-.36-.42c.4-.41.99-.61,1.78-.61.2,0,.4.03.59.09.19.06.35.15.49.27.14.12.25.28.33.46.08.19.13.41.13.67v1.88c0,.16,0,.33.02.51.01.18.03.32.05.44h-.58c-.02-.1-.03-.21-.04-.33,0-.12-.01-.24-.01-.35h-.02c-.17.28-.38.48-.62.61-.24.12-.53.18-.87.18-.19,0-.37-.03-.54-.08-.17-.05-.33-.13-.46-.23-.14-.1-.24-.23-.32-.39-.08-.15-.12-.33-.12-.54,0-.34.09-.61.27-.81.18-.19.4-.34.67-.44.27-.1.55-.16.86-.18.3-.02.58-.04.83-.04h.3Zm-.31.49c-.15,0-.34,0-.56.02-.23.02-.44.05-.65.11-.21.06-.38.15-.53.27-.15.12-.22.29-.22.49,0,.14.03.26.09.36.06.1.13.18.23.24.1.06.2.11.32.14s.24.04.36.04c.22,0,.4-.04.56-.11.16-.07.29-.17.4-.29.11-.12.19-.27.24-.43.05-.16.08-.34.08-.53v-.31h-.31Zm4.51-1.12c-.09-.17-.21-.31-.36-.41-.15-.1-.33-.15-.55-.15-.1,0-.21.01-.31.04-.11.02-.2.06-.28.11-.08.05-.15.12-.2.19-.05.08-.08.17-.08.29,0,.2.07.34.21.43.14.09.34.17.62.23l.6.14c.29.07.54.2.73.4.19.2.29.45.29.75,0,.23-.05.42-.14.59-.09.17-.22.3-.37.4-.15.11-.33.18-.53.23-.2.05-.4.07-.6.07-.32,0-.63-.06-.9-.18-.28-.12-.52-.33-.72-.63l.51-.35c.12.19.27.35.45.46.18.11.4.17.65.17.12,0,.24-.01.36-.04.12-.03.23-.07.32-.13.09-.06.17-.13.23-.22.06-.09.09-.19.09-.32,0-.21-.08-.36-.23-.45-.16-.09-.35-.17-.57-.22l-.58-.14c-.07-.02-.17-.05-.29-.09-.12-.04-.24-.1-.36-.19-.12-.08-.22-.19-.3-.33-.08-.13-.13-.3-.13-.5,0-.22.04-.4.13-.57.09-.16.2-.29.35-.4.15-.1.31-.18.5-.23.19-.05.38-.08.58-.08.29,0,.57.06.82.17.25.11.45.31.59.58l-.53.35Zm3.83,0c-.09-.17-.21-.31-.36-.41-.15-.1-.33-.15-.55-.15-.1,0-.21.01-.31.04-.11.02-.2.06-.28.11-.08.05-.15.12-.2.19-.05.08-.08.17-.08.29,0,.2.07.34.21.43.14.09.34.17.62.23l.6.14c.29.07.54.2.73.4.19.2.29.45.29.75,0,.23-.05.42-.14.59-.09.17-.22.3-.37.4-.15.11-.33.18-.53.23-.2.05-.4.07-.6.07-.32,0-.63-.06-.9-.18-.28-.12-.52-.33-.72-.63l.51-.35c.12.19.27.35.45.46.18.11.4.17.65.17.12,0,.24-.01.36-.04.12-.03.23-.07.32-.13.09-.06.17-.13.23-.22.06-.09.09-.19.09-.32,0-.21-.08-.36-.23-.45-.16-.09-.35-.17-.57-.22l-.58-.14c-.07-.02-.17-.05-.29-.09-.12-.04-.24-.1-.36-.19-.12-.08-.22-.19-.3-.33-.08-.13-.13-.3-.13-.5,0-.22.04-.4.13-.57.09-.16.2-.29.35-.4.15-.1.31-.18.5-.23.19-.05.38-.08.58-.08.29,0,.57.06.82.17.25.11.45.31.59.58l-.53.35Zm4.32-3.16h.65v2.76h3.47v-2.76h.65v6.37h-.65v-3.02h-3.47v3.02h-.65v-6.37Zm8.98,3.79v-.11c0-.73-.36-1.09-1.08-1.09-.49,0-.92.17-1.29.49l-.36-.42c.4-.41.99-.61,1.78-.61.2,0,.4.03.59.09.19.06.35.15.49.27.14.12.25.28.33.46.08.19.13.41.13.67v1.88c0,.16,0,.33.02.51.01.18.03.32.05.44h-.58c-.02-.1-.03-.21-.04-.33,0-.12-.01-.24-.01-.35h-.02c-.17.28-.38.48-.62.61-.24.12-.53.18-.87.18-.19,0-.37-.03-.54-.08-.17-.05-.33-.13-.46-.23-.14-.1-.24-.23-.32-.39-.08-.15-.12-.33-.12-.54,0-.34.09-.61.27-.81.18-.19.4-.34.67-.44.27-.1.55-.16.86-.18.3-.02.58-.04.83-.04h.3Zm-.31.49c-.15,0-.34,0-.56.02-.23.02-.44.05-.65.11-.21.06-.38.15-.53.27-.15.12-.22.29-.22.49,0,.14.03.26.09.36.06.1.13.18.23.24.1.06.2.11.32.14s.24.04.36.04c.22,0,.4-.04.56-.11.16-.07.29-.17.4-.29.11-.12.19-.27.24-.43.05-.16.08-.34.08-.53v-.31h-.31Zm3.01,2.1h-.59v-6.8h.59v6.8Zm2.16,0h-.59v-6.8h.59v6.8Zm7.77,0h-4.05v-.75l2.54-2.58c.1-.1.19-.2.29-.31.1-.11.18-.22.26-.34.08-.12.14-.25.19-.38.05-.13.07-.27.07-.41,0-.17-.03-.33-.09-.47-.06-.14-.15-.25-.27-.35-.11-.1-.25-.17-.4-.22-.15-.05-.31-.08-.48-.08-.32,0-.6.09-.83.27-.23.18-.38.42-.44.73l-.68-.07c.09-.47.31-.85.65-1.12.34-.27.76-.4,1.26-.4.26,0,.5.03.73.1.23.07.43.17.61.31.18.14.32.31.42.52.1.21.16.45.16.72,0,.25-.04.47-.11.68-.08.2-.17.4-.29.58-.12.18-.26.35-.41.51-.15.16-.31.32-.47.48l-2.01,1.99h3.35v.59Zm2.25-3.64l.02.02c.1-.07.24-.13.41-.16.17-.04.33-.05.47-.05.28,0,.53.05.77.15.24.1.44.24.62.41.17.17.31.38.41.62.1.24.15.5.15.79s-.05.56-.15.8c-.1.24-.25.45-.43.62-.19.17-.4.31-.66.4-.25.1-.53.14-.83.14s-.58-.05-.83-.14c-.25-.1-.47-.23-.66-.4-.19-.17-.33-.38-.43-.62-.1-.24-.15-.51-.15-.8,0-.35.05-.66.16-.93.1-.26.24-.52.39-.78l1.72-2.8h.76l-1.74,2.74Zm-.65,1.77c0,.2.03.39.1.56.07.17.17.31.29.44.13.12.28.22.45.28.17.07.37.1.58.1s.4-.03.58-.1c.17-.07.32-.16.45-.28.13-.12.22-.27.29-.44.07-.17.1-.35.1-.56s-.03-.39-.1-.56c-.07-.17-.17-.31-.29-.43-.13-.12-.28-.21-.45-.28-.17-.07-.37-.1-.58-.1s-.4.03-.58.1c-.17.07-.32.16-.45.28-.13.12-.22.26-.29.43-.07.17-.1.35-.1.56Zm4.79-4.51h.65v2.76h3.47v-2.76h.65v6.37h-.65v-3.02h-3.47v3.02h-.65v-6.37Zm6.81,7.63h-.59l.6-2.12h.73l-.74,2.12Zm7.7-6.58c-.28-.41-.69-.62-1.23-.62-.17,0-.33.02-.49.07-.16.04-.31.11-.44.21-.13.09-.23.21-.31.36-.08.15-.12.32-.12.52,0,.29.08.51.24.67.16.16.36.29.6.39.24.1.5.19.79.27.28.08.55.19.79.32.24.14.44.31.6.54.16.22.24.53.24.91,0,.29-.06.55-.18.78-.12.23-.29.42-.49.58-.2.16-.43.28-.68.36-.25.08-.5.13-.75.13-.39,0-.76-.07-1.11-.22-.35-.15-.65-.39-.9-.72l.59-.42c.14.23.33.42.57.56.25.14.54.21.87.21.16,0,.32-.03.48-.08.16-.05.31-.13.44-.22.13-.1.23-.22.32-.36.08-.14.13-.31.13-.49,0-.22-.05-.41-.14-.55-.09-.15-.22-.27-.37-.37-.15-.1-.33-.18-.52-.25-.2-.07-.4-.13-.6-.2-.21-.07-.41-.14-.6-.23-.2-.08-.37-.19-.52-.32-.15-.13-.28-.29-.37-.49-.09-.19-.14-.44-.14-.73s.06-.57.18-.8c.12-.23.27-.42.47-.57.19-.15.42-.26.66-.33.25-.07.5-.11.76-.11.36,0,.69.06.98.17.29.11.57.32.82.6l-.57.44Zm1.77,1.11h.59v.7h.02c.1-.14.21-.27.34-.37.13-.1.27-.19.41-.25.14-.07.29-.11.45-.14.15-.03.3-.05.44-.05.33,0,.63.06.9.17.27.11.51.27.71.46s.35.43.46.7c.11.27.17.56.17.88s-.06.61-.17.88c-.11.27-.27.5-.46.7s-.43.35-.71.46c-.27.11-.57.17-.9.17-.14,0-.28-.02-.44-.05-.15-.03-.3-.08-.45-.14-.14-.07-.28-.15-.41-.25-.13-.1-.25-.23-.34-.37h-.02v3.29h-.59v-6.8Zm3.84,2.11c0-.23-.04-.45-.11-.66-.08-.2-.18-.38-.32-.53-.14-.15-.3-.27-.5-.36-.2-.09-.42-.13-.66-.13s-.47.04-.68.13c-.2.09-.38.21-.53.36-.15.15-.27.33-.35.53-.08.2-.13.42-.13.66s.04.45.13.66c.08.2.2.38.35.53.15.15.33.27.53.36.2.09.43.13.68.13s.47-.04.66-.13c.19-.09.36-.21.5-.36.14-.15.24-.33.32-.53.07-.2.11-.42.11-.66Zm1.72-.79c0-.19,0-.37-.01-.57,0-.19-.02-.44-.02-.75h.59v.78h.02c.04-.11.1-.22.18-.33.08-.1.17-.2.28-.28.11-.08.24-.15.39-.2.15-.05.31-.08.5-.08.17,0,.32.02.44.05l-.12.58c-.08-.03-.19-.05-.34-.05-.23,0-.42.04-.58.13-.16.09-.3.2-.4.33-.11.14-.19.28-.24.44-.05.16-.08.31-.08.45v2.38h-.59v-2.9Zm3.79-2.93c0,.13-.04.23-.13.31-.09.08-.19.12-.3.12s-.21-.04-.3-.12c-.09-.08-.13-.18-.13-.31s.04-.23.13-.31c.09-.08.19-.12.3-.12s.21.04.3.12c.09.08.13.18.13.31Zm-.13,5.83h-.59v-4.21h.59v4.21Zm2-4.21c.01.11.02.23.02.34,0,.11,0,.22,0,.34h.02c.07-.11.15-.22.25-.32.1-.1.22-.18.34-.25.13-.07.26-.12.4-.16.14-.04.28-.06.42-.06.54,0,.94.14,1.2.43.26.29.39.69.39,1.22v2.67h-.59v-2.33c0-.47-.08-.83-.24-1.08-.16-.25-.46-.37-.9-.37-.03,0-.11.01-.25.04-.14.02-.28.09-.44.2-.15.11-.29.27-.41.49-.12.22-.18.52-.18.9v2.16h-.59v-3.29c0-.11,0-.26-.01-.43,0-.17-.02-.34-.03-.49h.61Zm4.76,5.06c.17.23.4.42.68.56.28.14.59.21.93.21.3,0,.55-.04.76-.13.21-.09.38-.21.51-.36.13-.15.22-.33.28-.53.06-.2.09-.42.09-.64v-.76h-.02c-.19.29-.43.49-.7.61-.28.12-.57.18-.87.18s-.59-.05-.86-.16c-.27-.11-.5-.26-.7-.45-.2-.19-.35-.42-.47-.68-.11-.26-.17-.55-.17-.86s.05-.59.16-.86c.11-.26.26-.49.45-.69s.41-.35.68-.46c.26-.11.55-.17.86-.17.13,0,.26.01.4.04.14.02.28.07.42.13.14.06.28.14.42.25.14.11.27.24.39.4h.02v-.7h.59v4.18c0,.23-.03.47-.09.73-.06.26-.17.49-.33.71-.17.22-.39.4-.69.54-.29.14-.68.22-1.15.22-.42,0-.8-.07-1.12-.21-.33-.14-.63-.35-.9-.64l.44-.47Zm.11-3.01c0,.22.04.43.12.63.08.2.19.37.33.51.14.15.31.26.5.35.19.09.39.13.62.13s.42-.04.62-.12c.19-.08.37-.19.52-.33.15-.14.27-.31.35-.51s.12-.42.11-.67c0-.22-.04-.43-.11-.63-.07-.19-.18-.37-.32-.51-.14-.15-.31-.26-.5-.35-.2-.09-.42-.13-.67-.13-.22,0-.43.04-.62.13-.19.09-.35.2-.5.35-.14.15-.25.32-.33.51-.08.2-.12.4-.12.63Zm7.03-1.51h-1v3.67h-.59v-3.67h-.89v-.54h.89v-1.15c0-.56.13-.96.39-1.19.26-.24.6-.36,1.03-.36.08,0,.17,0,.26.02.09.01.17.03.26.05l-.11.54c-.07-.02-.15-.03-.23-.05-.08-.01-.16-.02-.23-.02-.16,0-.29.03-.4.08-.1.05-.18.13-.23.23-.05.1-.09.21-.11.35-.02.13-.03.27-.03.42v1.08h1v.54Zm1.58-2.16c0,.13-.04.23-.14.31-.09.08-.19.12-.3.12s-.21-.04-.3-.12c-.09-.08-.13-.18-.13-.31s.04-.23.13-.31c.09-.08.19-.12.3-.12s.21.04.3.12c.09.08.14.18.14.31Zm-.14,5.83h-.59v-4.21h.59v4.21Zm1.85-1.94c.02.21.07.41.15.59.08.19.19.35.33.48.14.14.3.24.48.32.18.08.37.12.58.12.32,0,.59-.07.82-.22.23-.15.41-.32.53-.51l.46.38c-.25.32-.53.55-.83.68-.3.14-.63.21-.98.21-.31,0-.6-.06-.87-.17-.27-.11-.5-.27-.69-.46-.19-.2-.34-.43-.45-.7-.11-.27-.17-.56-.17-.88s.05-.61.16-.88c.11-.27.26-.5.45-.7.19-.2.42-.35.67-.46.26-.11.54-.17.84-.17.32,0,.6.06.86.17.25.11.46.27.63.45.17.19.3.41.39.67.09.26.13.53.13.81v.27h-3.51Zm2.86-.49c0-.4-.12-.73-.36-.98-.24-.25-.58-.37-1.01-.37-.19,0-.38.04-.56.11-.18.08-.34.18-.47.3-.14.13-.24.27-.32.43-.08.16-.12.33-.12.5h2.84Zm2.46,2.43h-.59v-6.8h.59v6.8Zm5.63,0h-.59v-.7h-.02c-.1.14-.21.27-.34.37-.13.1-.27.19-.41.25-.14.07-.29.11-.45.14-.15.03-.3.05-.44.05-.33,0-.63-.06-.9-.17-.27-.11-.51-.27-.71-.46s-.35-.43-.46-.7c-.11-.27-.17-.56-.17-.88s.06-.61.17-.88c.11-.27.27-.5.46-.7s.43-.35.71-.46c.27-.11.57-.17.9-.17.14,0,.28.02.44.05.15.03.3.08.45.14.14.07.28.15.41.25.13.1.25.23.34.37h.02v-3.29h.59v6.8Zm-3.84-2.11c0,.23.04.45.11.66.07.2.18.38.32.53.14.15.3.27.5.36.19.09.42.13.66.13s.46-.04.67-.13c.21-.09.39-.21.54-.36s.27-.33.35-.53c.08-.2.13-.42.13-.66s-.04-.45-.13-.66c-.08-.2-.2-.38-.35-.53-.15-.15-.33-.27-.54-.36-.21-.09-.43-.13-.67-.13s-.47.04-.66.13c-.2.09-.36.21-.5.36-.14.15-.24.33-.32.53-.08.2-.11.42-.11.66Zm5.67,3.37h-.59l.6-2.12h.73l-.74,2.12Zm7.83-2.45l2.15-5.18h.99v6.37h-.65v-5.51h-.02l-2.3,5.51h-.34l-2.3-5.51h-.02v5.51h-.65v-6.37h.99l2.15,5.18Zm11.08-2c0,.49-.08.93-.25,1.34-.17.41-.4.76-.7,1.06s-.65.53-1.05.7-.84.25-1.32.25-.91-.08-1.32-.25-.76-.4-1.05-.7-.53-.65-.7-1.06c-.17-.41-.25-.86-.25-1.34s.08-.93.25-1.34c.17-.41.4-.76.7-1.06s.65-.53,1.05-.7c.4-.17.84-.25,1.32-.25s.91.08,1.32.25c.4.17.76.4,1.05.7s.53.65.7,1.06c.17.41.25.86.25,1.34Zm-.7,0c0-.37-.06-.72-.18-1.05-.12-.33-.29-.63-.52-.88s-.5-.45-.82-.6c-.32-.15-.69-.23-1.1-.23s-.77.08-1.1.23c-.32.15-.6.35-.82.6-.23.25-.4.54-.52.88-.12.33-.18.68-.18,1.05s.06.72.18,1.05c.12.33.29.63.52.88.22.25.5.45.82.6.32.15.69.23,1.1.23s.77-.07,1.1-.23c.32-.15.6-.35.82-.6.23-.25.4-.54.52-.88.12-.33.18-.68.18-1.05Z"/>
    <text class="cls-13" transform="translate(443.51 383.6)"><tspan x="0" y="0"> </tspan></text>
    <text class="cls-13" transform="translate(448.01 383.6)"><tspan x="0" y="0">65897</tspan></text>
    <text class="cls-13" transform="translate(228.96 396.6)"><tspan x="0" y="0">SeanBa</tspan><tspan class="cls-18" x="30.02" y="0">r</tspan><tspan x="33.17" y="0">nhill@MissouriState.edu</tspan></text>
    <text class="cls-9" transform="translate(228.96 438.6)"><tspan x="0" y="0">Mary Grace Phillips</tspan></text>
    <text class="cls-6" transform="translate(228.96 451.6)"><tspan x="0" y="0">Special Event Coo</tspan><tspan class="cls-15" x="82.45" y="0">r</tspan><tspan class="cls-16" x="85.97" y="0">dinator and Marketing Assistant, </tspan></text>
    <text class="cls-10" transform="translate(228.96 464.6)"><tspan x="0" y="0">College of Business</tspan></text>
    <path class="cls-7" d="m232.24,477.86l-.02-.02c-.1.07-.24.13-.41.16-.17.04-.33.05-.47.05-.28,0-.53-.05-.77-.15-.24-.1-.44-.24-.62-.41-.17-.17-.31-.38-.41-.62-.1-.24-.15-.5-.15-.79s.05-.56.15-.8c.1-.24.25-.45.43-.62.19-.17.4-.31.66-.4.25-.1.53-.14.83-.14s.58.05.83.14c.25.1.47.23.66.4.19.17.33.38.43.62.1.24.15.51.15.8,0,.35-.05.66-.16.93-.11.26-.24.53-.39.78l-1.72,2.8h-.76l1.74-2.74Zm.65-1.77c0-.2-.03-.39-.1-.56-.07-.17-.17-.31-.29-.43-.13-.12-.28-.21-.45-.28-.17-.07-.37-.1-.58-.1s-.4.03-.58.1c-.17.07-.32.16-.45.28-.13.12-.22.26-.29.43-.07.17-.1.35-.1.56s.03.39.1.56c.07.17.17.31.29.44.13.12.28.22.45.28.17.07.37.1.58.1s.4-.03.58-.1c.17-.07.32-.16.45-.28.13-.12.22-.27.29-.44.07-.17.1-.35.1-.56Zm3.58-1.97c.46,0,.82.11,1.11.32.28.21.5.48.66.8.16.32.26.68.31,1.07.05.39.08.76.08,1.11s-.03.72-.08,1.11-.16.74-.31,1.07c-.16.32-.38.59-.66.8-.28.21-.65.32-1.11.32s-.83-.11-1.11-.32c-.28-.21-.5-.48-.66-.8-.16-.32-.26-.68-.32-1.07s-.08-.76-.08-1.11.03-.72.08-1.11c.05-.39.16-.74.32-1.07.16-.32.37-.59.66-.8.28-.21.65-.32,1.11-.32Zm0,.59c-.35,0-.62.09-.82.28-.2.19-.35.42-.45.69-.1.28-.17.57-.19.88-.03.31-.04.59-.04.85s.01.53.04.85c.03.31.09.61.19.88.1.28.25.51.45.69.2.19.48.28.82.28s.62-.09.82-.28c.2-.19.35-.42.45-.69.1-.28.17-.57.19-.88.03-.31.04-.59.04-.85s-.01-.53-.04-.85c-.03-.31-.09-.61-.19-.88-.1-.28-.25-.51-.45-.69-.2-.19-.48-.28-.82-.28Zm5.63,5.89h-.65v-5.56l-1.14,1.01-.4-.49,1.62-1.33h.58v6.37Zm8.25-5.32c-.28-.41-.69-.62-1.23-.62-.17,0-.33.02-.49.07-.16.04-.31.11-.44.21-.13.09-.23.21-.31.36-.08.15-.12.32-.12.52,0,.29.08.51.24.67.16.16.36.29.6.39.24.1.5.19.79.27.28.08.55.19.79.32.24.14.44.31.6.54.16.22.24.53.24.91,0,.29-.06.55-.18.78-.12.23-.29.42-.49.58-.2.16-.43.28-.68.36-.25.08-.5.13-.75.13-.39,0-.76-.07-1.11-.22s-.65-.39-.9-.72l.59-.42c.14.23.33.42.57.56.25.14.54.21.87.21.16,0,.32-.03.48-.08.16-.05.31-.13.44-.22.13-.1.23-.22.32-.36.08-.14.13-.31.13-.49,0-.22-.05-.41-.14-.55-.09-.15-.22-.27-.37-.37s-.33-.18-.52-.25c-.2-.07-.4-.13-.6-.2-.21-.07-.41-.14-.6-.23-.2-.08-.37-.19-.52-.32-.15-.13-.28-.29-.37-.49-.09-.19-.14-.44-.14-.73s.06-.57.18-.8c.12-.23.27-.42.47-.57.19-.15.42-.26.66-.33.25-.07.5-.11.76-.11.36,0,.69.06.98.17.29.11.57.32.82.6l-.57.44Zm2.86,4.89c0,.13-.04.24-.13.34-.09.1-.21.15-.35.15s-.26-.05-.35-.15c-.09-.1-.13-.21-.13-.34s.04-.24.13-.34c.09-.1.21-.15.35-.15s.26.05.35.15c.09.1.13.21.13.34Zm8.74-.54h.02v-5.4h.65v6.37h-.81l-3.8-5.45h-.02v5.45h-.65v-6.37h.81l3.8,5.4Zm4.88-1.61v-.11c0-.73-.36-1.09-1.08-1.09-.49,0-.92.17-1.29.49l-.36-.42c.4-.41.99-.61,1.78-.61.2,0,.4.03.59.09.19.06.35.15.49.27.14.12.25.28.33.46.08.19.13.41.13.67v1.88c0,.16,0,.33.02.51.01.18.03.32.05.44h-.58c-.02-.1-.03-.21-.04-.33,0-.12-.01-.24-.01-.35h-.02c-.17.28-.38.48-.62.61-.24.12-.53.18-.87.18-.19,0-.37-.03-.54-.08-.17-.05-.33-.13-.46-.23-.14-.1-.24-.23-.32-.39-.08-.15-.12-.33-.12-.54,0-.34.09-.61.27-.81.18-.19.4-.34.67-.44.27-.1.55-.16.86-.18.3-.02.58-.04.83-.04h.3Zm-.31.49c-.15,0-.34,0-.56.02-.23.02-.44.05-.65.11-.21.06-.38.15-.53.27-.15.12-.22.29-.22.49,0,.14.03.26.09.36.06.1.13.18.23.24.1.06.2.11.32.14s.24.04.36.04c.22,0,.4-.04.56-.11.16-.07.29-.17.4-.29.11-.12.19-.27.24-.43.05-.16.08-.34.08-.53v-.31h-.31Zm4.45-1.58h-1.21v2.48c0,.16.01.28.05.38.03.1.07.18.13.23s.12.09.19.11c.07.02.16.03.25.03.1,0,.21-.01.32-.04.11-.03.21-.07.3-.12l.03.55c-.22.1-.49.15-.8.15-.11,0-.23-.02-.36-.05-.12-.03-.24-.09-.34-.17-.1-.08-.19-.2-.25-.34-.07-.14-.1-.33-.1-.57v-2.65h-.89v-.54h.89v-1.19h.59v1.19h1.21v.54Zm1.67-2.16c0,.13-.04.23-.13.31-.09.08-.19.12-.3.12s-.21-.04-.3-.12c-.09-.08-.13-.18-.13-.31s.04-.23.13-.31c.09-.08.19-.12.3-.12s.21.04.3.12c.09.08.13.18.13.31Zm-.13,5.83h-.59v-4.21h.59v4.21Zm5.69-2.11c0,.32-.06.61-.17.88-.11.27-.27.5-.46.7s-.43.35-.71.46c-.27.11-.57.17-.9.17s-.62-.06-.9-.17c-.27-.11-.51-.27-.71-.46s-.35-.43-.46-.7c-.11-.27-.17-.56-.17-.88s.06-.61.17-.88c.11-.27.27-.5.46-.7s.43-.35.71-.46c.27-.11.57-.17.9-.17s.63.06.9.17c.27.11.51.27.71.46s.35.43.46.7c.11.27.17.56.17.88Zm-.65,0c0-.23-.04-.45-.11-.66-.08-.2-.18-.38-.32-.53-.14-.15-.3-.27-.5-.36-.2-.09-.42-.13-.66-.13s-.47.04-.66.13c-.2.09-.36.21-.49.36-.14.15-.24.33-.32.53-.08.2-.11.42-.11.66s.04.45.11.66c.07.2.18.38.32.53.13.15.3.27.49.36.19.09.42.13.66.13s.47-.04.66-.13c.19-.09.36-.21.5-.36.14-.15.24-.33.32-.53.07-.2.11-.42.11-.66Zm2.3-2.11c.01.11.02.23.02.34,0,.11,0,.22,0,.34h.02c.07-.11.15-.22.25-.32.1-.1.22-.18.34-.25.13-.07.26-.12.4-.16.14-.04.28-.06.42-.06.54,0,.94.14,1.2.43.26.29.39.69.39,1.22v2.67h-.59v-2.33c0-.47-.08-.83-.24-1.08-.16-.25-.46-.37-.9-.37-.03,0-.11.01-.25.04-.14.02-.28.09-.44.2-.15.11-.29.27-.41.49-.12.22-.18.52-.18.9v2.16h-.59v-3.29c0-.11,0-.26-.01-.43,0-.17-.02-.34-.03-.49h.61Zm7.14,1.63v-.11c0-.73-.36-1.09-1.08-1.09-.49,0-.92.17-1.29.49l-.36-.42c.4-.41.99-.61,1.78-.61.2,0,.4.03.59.09.19.06.35.15.49.27.14.12.25.28.33.46.08.19.13.41.13.67v1.88c0,.16,0,.33.02.51.01.18.03.32.05.44h-.58c-.02-.1-.03-.21-.04-.33,0-.12-.01-.24-.01-.35h-.02c-.17.28-.38.48-.62.61-.24.12-.53.18-.87.18-.19,0-.37-.03-.54-.08-.17-.05-.33-.13-.46-.23-.14-.1-.24-.23-.32-.39-.08-.15-.12-.33-.12-.54,0-.34.09-.61.27-.81.18-.19.4-.34.67-.44.27-.1.55-.16.86-.18.3-.02.58-.04.83-.04h.3Zm-.31.49c-.15,0-.34,0-.56.02-.23.02-.44.05-.65.11-.21.06-.38.15-.53.27-.15.12-.22.29-.22.49,0,.14.03.26.09.36.06.1.13.18.23.24.1.06.2.11.32.14s.24.04.36.04c.22,0,.4-.04.56-.11.16-.07.29-.17.4-.29.11-.12.19-.27.24-.43.05-.16.08-.34.08-.53v-.31h-.31Zm3.01,2.1h-.59v-6.8h.59v6.8Zm4.04,0h-.76l2.77-6.37h.63l2.77,6.37h-.76l-.7-1.67h-3.26l-.7,1.67Zm.94-2.27h2.76l-1.38-3.35-1.39,3.35Zm6.81,2.27h-.67l-1.71-4.21h.7l1.35,3.55h.02l1.34-3.55h.68l-1.71,4.21Zm2.9-1.94c.02.21.07.41.15.59.08.19.19.35.33.48.14.14.3.24.48.32.18.08.37.12.58.12.32,0,.59-.07.82-.22.23-.15.41-.32.53-.51l.46.38c-.25.32-.53.55-.83.68-.3.14-.63.21-.98.21-.31,0-.6-.06-.87-.17-.27-.11-.5-.27-.69-.46-.19-.2-.34-.43-.45-.7-.11-.27-.17-.56-.17-.88s.05-.61.16-.88c.11-.27.26-.5.45-.7.19-.2.42-.35.67-.46.26-.11.54-.17.84-.17.32,0,.6.06.86.17.25.11.46.27.63.45.17.19.3.41.39.67.09.26.13.53.13.81v.27h-3.51Zm2.86-.49c0-.4-.12-.73-.36-.98-.24-.25-.58-.37-1.01-.37-.19,0-.38.04-.56.11-.18.08-.34.18-.47.3-.14.13-.24.27-.32.43-.08.16-.12.33-.12.5h2.84Zm2.82,2c0,.13-.05.24-.14.34s-.21.15-.35.15-.26-.05-.35-.15-.13-.21-.13-.34.04-.24.13-.34.21-.15.35-.15.26.05.35.15.14.21.14.34Zm1.94,1.69h-.59l.6-2.12h.73l-.74,2.12Zm9.4-6.46c-.22-.23-.47-.41-.77-.54-.3-.13-.65-.2-1.04-.2s-.77.08-1.1.23c-.32.15-.6.35-.82.6-.23.25-.4.54-.52.88-.12.33-.18.68-.18,1.05s.06.72.18,1.05c.12.33.29.63.52.88.22.25.5.45.82.6.32.15.69.23,1.1.23.33,0,.65-.04.95-.12.3-.08.57-.19.81-.33v-2.13h-1.52v-.59h2.17v3.12c-.36.21-.75.37-1.18.48-.43.11-.84.17-1.23.17-.47,0-.91-.08-1.32-.25s-.76-.4-1.05-.7-.53-.65-.7-1.06c-.17-.41-.25-.86-.25-1.34s.08-.93.25-1.34c.17-.41.4-.76.7-1.06s.65-.53,1.05-.7c.4-.17.84-.25,1.32-.25.51,0,.95.07,1.32.21.37.14.7.36.99.64l-.49.48Zm2.81,5.2h-.59v-6.8h.59v6.8Zm4.13-2.58v-.11c0-.73-.36-1.09-1.08-1.09-.49,0-.92.17-1.29.49l-.36-.42c.4-.41.99-.61,1.78-.61.2,0,.4.03.59.09.19.06.35.15.49.27.14.12.25.28.33.46.08.19.13.41.13.67v1.88c0,.16,0,.33.02.51.01.18.03.32.05.44h-.58c-.02-.1-.03-.21-.04-.33,0-.12-.01-.24-.01-.35h-.02c-.17.28-.38.48-.62.61-.24.12-.53.18-.87.18-.19,0-.37-.03-.54-.08-.17-.05-.33-.13-.46-.23-.14-.1-.24-.23-.32-.39-.08-.15-.12-.33-.12-.54,0-.34.09-.61.27-.81.18-.19.4-.34.67-.44.27-.1.55-.16.86-.18.3-.02.58-.04.83-.04h.3Zm-.31.49c-.15,0-.34,0-.56.02-.23.02-.44.05-.65.11-.21.06-.38.15-.53.27-.15.12-.22.29-.22.49,0,.14.03.26.09.36.06.1.13.18.23.24.1.06.2.11.32.14s.24.04.36.04c.22,0,.4-.04.56-.11.16-.07.29-.17.4-.29.11-.12.19-.27.24-.43.05-.16.08-.34.08-.53v-.31h-.31Zm4.51-1.12c-.09-.17-.21-.31-.36-.41-.15-.1-.33-.15-.55-.15-.1,0-.21.01-.31.04-.11.02-.2.06-.28.11-.08.05-.15.12-.2.19-.05.08-.08.17-.08.29,0,.2.07.34.21.43.14.09.34.17.62.23l.6.14c.29.07.54.2.73.4.19.2.29.45.29.75,0,.23-.05.42-.14.59-.09.17-.22.3-.37.4-.15.11-.33.18-.53.23-.2.05-.4.07-.6.07-.32,0-.63-.06-.9-.18-.28-.12-.52-.33-.72-.63l.51-.35c.12.19.27.35.45.46.18.11.4.17.65.17.12,0,.24-.01.36-.04.12-.03.23-.07.32-.13.09-.06.17-.13.23-.22.06-.09.09-.19.09-.32,0-.21-.08-.36-.23-.45-.16-.09-.35-.17-.57-.22l-.58-.14c-.07-.02-.17-.05-.29-.09-.12-.04-.24-.1-.36-.19-.12-.08-.22-.19-.3-.33-.08-.13-.13-.3-.13-.5,0-.22.04-.4.13-.57.09-.16.2-.29.35-.4.15-.1.31-.18.5-.23.19-.05.38-.08.58-.08.29,0,.57.06.82.17.25.11.45.31.59.58l-.53.35Zm3.83,0c-.09-.17-.21-.31-.36-.41-.15-.1-.33-.15-.55-.15-.1,0-.21.01-.31.04-.11.02-.2.06-.28.11-.08.05-.15.12-.2.19-.05.08-.08.17-.08.29,0,.2.07.34.21.43.14.09.34.17.62.23l.6.14c.29.07.54.2.73.4.19.2.29.45.29.75,0,.23-.05.42-.14.59-.09.17-.22.3-.37.4-.15.11-.33.18-.53.23-.2.05-.4.07-.6.07-.32,0-.63-.06-.9-.18-.28-.12-.52-.33-.72-.63l.51-.35c.12.19.27.35.45.46.18.11.4.17.65.17.12,0,.24-.01.36-.04.12-.03.23-.07.32-.13.09-.06.17-.13.23-.22.06-.09.09-.19.09-.32,0-.21-.08-.36-.23-.45-.16-.09-.35-.17-.57-.22l-.58-.14c-.07-.02-.17-.05-.29-.09-.12-.04-.24-.1-.36-.19-.12-.08-.22-.19-.3-.33-.08-.13-.13-.3-.13-.5,0-.22.04-.4.13-.57.09-.16.2-.29.35-.4.15-.1.31-.18.5-.23.19-.05.38-.08.58-.08.29,0,.57.06.82.17.25.11.45.31.59.58l-.53.35Zm4.32-3.16h.65v2.76h3.47v-2.76h.65v6.37h-.65v-3.02h-3.47v3.02h-.65v-6.37Zm8.98,3.79v-.11c0-.73-.36-1.09-1.08-1.09-.49,0-.92.17-1.29.49l-.36-.42c.4-.41.99-.61,1.78-.61.2,0,.4.03.59.09.19.06.35.15.49.27.14.12.25.28.33.46.08.19.13.41.13.67v1.88c0,.16,0,.33.02.51.01.18.03.32.05.44h-.58c-.02-.1-.03-.21-.04-.33,0-.12-.01-.24-.01-.35h-.02c-.17.28-.38.48-.62.61-.24.12-.53.18-.87.18-.19,0-.37-.03-.54-.08-.17-.05-.33-.13-.46-.23-.14-.1-.24-.23-.32-.39-.08-.15-.12-.33-.12-.54,0-.34.09-.61.27-.81.18-.19.4-.34.67-.44.27-.1.55-.16.86-.18.3-.02.58-.04.83-.04h.3Zm-.31.49c-.15,0-.34,0-.56.02-.23.02-.44.05-.65.11-.21.06-.38.15-.53.27-.15.12-.22.29-.22.49,0,.14.03.26.09.36.06.1.13.18.23.24.1.06.2.11.32.14s.24.04.36.04c.22,0,.4-.04.56-.11.16-.07.29-.17.4-.29.11-.12.19-.27.24-.43.05-.16.08-.34.08-.53v-.31h-.31Zm3.01,2.1h-.59v-6.8h.59v6.8Zm2.16,0h-.59v-6.8h.59v6.8Zm7.77,0h-4.05v-.75l2.54-2.58c.1-.1.19-.2.29-.31.1-.11.18-.22.26-.34.08-.12.14-.25.19-.38.05-.13.07-.27.07-.41,0-.17-.03-.33-.09-.47-.06-.14-.15-.25-.27-.35-.11-.1-.25-.17-.4-.22-.15-.05-.31-.08-.48-.08-.32,0-.6.09-.83.27-.23.18-.38.42-.44.73l-.68-.07c.09-.47.31-.85.65-1.12.34-.27.76-.4,1.26-.4.26,0,.5.03.73.1.23.07.43.17.61.31.18.14.32.31.42.52.1.21.16.45.16.72,0,.25-.04.47-.11.68-.08.2-.17.4-.29.58-.12.18-.26.35-.41.51-.15.16-.31.32-.47.48l-2.01,1.99h3.35v.59Zm4.79-5.78l-2.57,5.78h-.73l2.62-5.78h-3.11v-.59h3.78v.59Zm2.47,2.14l.02.02c.1-.07.24-.13.41-.16.17-.04.33-.05.47-.05.28,0,.53.05.77.15.24.1.44.24.62.41.17.17.31.38.41.62.1.24.15.5.15.79s-.05.56-.15.8c-.1.24-.25.45-.43.62-.19.17-.4.31-.66.4-.25.1-.53.14-.83.14s-.58-.05-.83-.14c-.25-.1-.47-.23-.66-.4-.19-.17-.33-.38-.43-.62-.1-.24-.15-.51-.15-.8,0-.35.05-.66.16-.93.1-.26.24-.52.39-.78l1.72-2.8h.76l-1.74,2.74Zm-.65,1.77c0,.2.03.39.1.56.07.17.17.31.29.44.13.12.28.22.45.28.17.07.37.1.58.1s.4-.03.58-.1c.17-.07.32-.16.45-.28.13-.12.22-.27.29-.44.07-.17.1-.35.1-.56s-.03-.39-.1-.56c-.07-.17-.17-.31-.29-.43-.13-.12-.28-.21-.45-.28-.17-.07-.37-.1-.58-.1s-.4.03-.58.1c-.17.07-.32.16-.45.28-.13.12-.22.26-.29.43-.07.17-.1.35-.1.56Zm5.44,1.86h-.65v-6.37h.65v6.37Zm2.04,1.26h-.59l.6-2.12h.73l-.74,2.12Zm7.7-6.58c-.28-.41-.69-.62-1.23-.62-.17,0-.33.02-.49.07-.16.04-.31.11-.44.21-.13.09-.23.21-.31.36-.08.15-.12.32-.12.52,0,.29.08.51.24.67.16.16.36.29.6.39.24.1.5.19.79.27.28.08.55.19.79.32.24.14.44.31.6.54.16.22.24.53.24.91,0,.29-.06.55-.18.78-.12.23-.29.42-.49.58-.2.16-.43.28-.68.36-.25.08-.5.13-.75.13-.39,0-.76-.07-1.11-.22-.35-.15-.65-.39-.9-.72l.59-.42c.14.23.33.42.57.56.25.14.54.21.87.21.16,0,.32-.03.48-.08.16-.05.31-.13.44-.22.13-.1.23-.22.32-.36.08-.14.13-.31.13-.49,0-.22-.05-.41-.14-.55-.09-.15-.22-.27-.37-.37-.15-.1-.33-.18-.52-.25-.2-.07-.4-.13-.6-.2-.21-.07-.41-.14-.6-.23-.2-.08-.37-.19-.52-.32-.15-.13-.28-.29-.37-.49-.09-.19-.14-.44-.14-.73s.06-.57.18-.8c.12-.23.27-.42.47-.57.19-.15.42-.26.66-.33.25-.07.5-.11.76-.11.36,0,.69.06.98.17.29.11.57.32.82.6l-.57.44Zm1.77,1.11h.59v.7h.02c.1-.14.21-.27.34-.37.13-.1.27-.19.41-.25.14-.07.29-.11.45-.14.15-.03.3-.05.44-.05.33,0,.63.06.9.17.27.11.51.27.71.46s.35.43.46.7c.11.27.17.56.17.88s-.06.61-.17.88c-.11.27-.27.5-.46.7s-.43.35-.71.46c-.27.11-.57.17-.9.17-.14,0-.28-.02-.44-.05-.15-.03-.3-.08-.45-.14-.14-.07-.28-.15-.41-.25-.13-.1-.25-.23-.34-.37h-.02v3.29h-.59v-6.8Zm3.84,2.11c0-.23-.04-.45-.11-.66-.08-.2-.18-.38-.32-.53-.14-.15-.3-.27-.5-.36-.2-.09-.42-.13-.66-.13s-.47.04-.68.13c-.2.09-.38.21-.53.36-.15.15-.27.33-.35.53-.08.2-.13.42-.13.66s.04.45.13.66c.08.2.2.38.35.53.15.15.33.27.53.36.2.09.43.13.68.13s.47-.04.66-.13c.19-.09.36-.21.5-.36.14-.15.24-.33.32-.53.07-.2.11-.42.11-.66Zm1.72-.79c0-.19,0-.37-.01-.57,0-.19-.02-.44-.02-.75h.59v.78h.02c.04-.11.1-.22.18-.33.08-.1.17-.2.28-.28.11-.08.24-.15.39-.2.15-.05.31-.08.5-.08.17,0,.32.02.44.05l-.12.58c-.08-.03-.19-.05-.34-.05-.23,0-.42.04-.58.13-.16.09-.3.2-.4.33-.11.14-.19.28-.24.44-.05.16-.08.31-.08.45v2.38h-.59v-2.9Zm3.79-2.93c0,.13-.04.23-.13.31-.09.08-.19.12-.3.12s-.21-.04-.3-.12c-.09-.08-.13-.18-.13-.31s.04-.23.13-.31c.09-.08.19-.12.3-.12s.21.04.3.12c.09.08.13.18.13.31Zm-.13,5.83h-.59v-4.21h.59v4.21Zm2-4.21c.01.11.02.23.02.34,0,.11,0,.22,0,.34h.02c.07-.11.15-.22.25-.32.1-.1.22-.18.34-.25.13-.07.26-.12.4-.16.14-.04.28-.06.42-.06.54,0,.94.14,1.2.43.26.29.39.69.39,1.22v2.67h-.59v-2.33c0-.47-.08-.83-.24-1.08-.16-.25-.46-.37-.9-.37-.03,0-.11.01-.25.04-.14.02-.28.09-.44.2-.15.11-.29.27-.41.49-.12.22-.18.52-.18.9v2.16h-.59v-3.29c0-.11,0-.26-.01-.43,0-.17-.02-.34-.03-.49h.61Zm4.76,5.06c.17.23.4.42.68.56.28.14.59.21.93.21.3,0,.55-.04.76-.13.21-.09.38-.21.51-.36.13-.15.22-.33.28-.53.06-.2.09-.42.09-.64v-.76h-.02c-.19.29-.43.49-.7.61-.28.12-.57.18-.87.18s-.59-.05-.86-.16c-.27-.11-.5-.26-.7-.45-.2-.19-.35-.42-.47-.68-.11-.26-.17-.55-.17-.86s.05-.59.16-.86c.11-.26.26-.49.45-.69s.41-.35.68-.46c.26-.11.55-.17.86-.17.13,0,.26.01.4.04.14.02.28.07.42.13.14.06.28.14.42.25.14.11.27.24.39.4h.02v-.7h.59v4.18c0,.23-.03.47-.09.73-.06.26-.17.49-.33.71-.17.22-.39.4-.69.54-.29.14-.68.22-1.15.22-.42,0-.8-.07-1.12-.21-.33-.14-.63-.35-.9-.64l.44-.47Zm.11-3.01c0,.22.04.43.12.63.08.2.19.37.33.51.14.15.31.26.5.35.19.09.39.13.62.13s.42-.04.62-.12c.19-.08.37-.19.52-.33.15-.14.27-.31.35-.51s.12-.42.11-.67c0-.22-.04-.43-.11-.63-.07-.19-.18-.37-.32-.51-.14-.15-.31-.26-.5-.35-.2-.09-.42-.13-.67-.13-.22,0-.43.04-.62.13-.19.09-.35.2-.5.35-.14.15-.25.32-.33.51-.08.2-.12.4-.12.63Zm7.03-1.51h-1v3.67h-.59v-3.67h-.89v-.54h.89v-1.15c0-.56.13-.96.39-1.19.26-.24.6-.36,1.03-.36.08,0,.17,0,.26.02.09.01.17.03.26.05l-.11.54c-.07-.02-.15-.03-.23-.05-.08-.01-.16-.02-.23-.02-.16,0-.29.03-.4.08-.1.05-.18.13-.23.23-.05.1-.09.21-.11.35-.02.13-.03.27-.03.42v1.08h1v.54Zm1.58-2.16c0,.13-.04.23-.14.31-.09.08-.19.12-.3.12s-.21-.04-.3-.12c-.09-.08-.13-.18-.13-.31s.04-.23.13-.31c.09-.08.19-.12.3-.12s.21.04.3.12c.09.08.14.18.14.31Zm-.14,5.83h-.59v-4.21h.59v4.21Zm1.85-1.94c.02.21.07.41.15.59.08.19.19.35.33.48.14.14.3.24.48.32.18.08.37.12.58.12.32,0,.59-.07.82-.22.23-.15.41-.32.53-.51l.46.38c-.25.32-.53.55-.83.68-.3.14-.63.21-.98.21-.31,0-.6-.06-.87-.17-.27-.11-.5-.27-.69-.46-.19-.2-.34-.43-.45-.7-.11-.27-.17-.56-.17-.88s.05-.61.16-.88c.11-.27.26-.5.45-.7.19-.2.42-.35.67-.46.26-.11.54-.17.84-.17.32,0,.6.06.86.17.25.11.46.27.63.45.17.19.3.41.39.67.09.26.13.53.13.81v.27h-3.51Zm2.86-.49c0-.4-.12-.73-.36-.98-.24-.25-.58-.37-1.01-.37-.19,0-.38.04-.56.11-.18.08-.34.18-.47.3-.14.13-.24.27-.32.43-.08.16-.12.33-.12.5h2.84Zm2.46,2.43h-.59v-6.8h.59v6.8Zm5.63,0h-.59v-.7h-.02c-.1.14-.21.27-.34.37-.13.1-.27.19-.41.25-.14.07-.29.11-.45.14-.15.03-.3.05-.44.05-.33,0-.63-.06-.9-.17-.27-.11-.51-.27-.71-.46s-.35-.43-.46-.7c-.11-.27-.17-.56-.17-.88s.06-.61.17-.88c.11-.27.27-.5.46-.7s.43-.35.71-.46c.27-.11.57-.17.9-.17.14,0,.28.02.44.05.15.03.3.08.45.14.14.07.28.15.41.25.13.1.25.23.34.37h.02v-3.29h.59v6.8Zm-3.84-2.11c0,.23.04.45.11.66.07.2.18.38.32.53.14.15.3.27.5.36.19.09.42.13.66.13s.46-.04.67-.13c.21-.09.39-.21.54-.36s.27-.33.35-.53c.08-.2.13-.42.13-.66s-.04-.45-.13-.66c-.08-.2-.2-.38-.35-.53-.15-.15-.33-.27-.54-.36-.21-.09-.43-.13-.67-.13s-.47.04-.66.13c-.2.09-.36.21-.5.36-.14.15-.24.33-.32.53-.08.2-.11.42-.11.66Zm5.67,3.37h-.59l.6-2.12h.73l-.74,2.12Zm7.83-2.45l2.15-5.18h.99v6.37h-.65v-5.51h-.02l-2.3,5.51h-.34l-2.3-5.51h-.02v5.51h-.65v-6.37h.99l2.15,5.18Zm11.08-2c0,.49-.08.93-.25,1.34-.17.41-.4.76-.7,1.06s-.65.53-1.05.7-.84.25-1.32.25-.91-.08-1.32-.25-.76-.4-1.05-.7-.53-.65-.7-1.06c-.17-.41-.25-.86-.25-1.34s.08-.93.25-1.34c.17-.41.4-.76.7-1.06s.65-.53,1.05-.7c.4-.17.84-.25,1.32-.25s.91.08,1.32.25c.4.17.76.4,1.05.7s.53.65.7,1.06c.17.41.25.86.25,1.34Zm-.7,0c0-.37-.06-.72-.18-1.05-.12-.33-.29-.63-.52-.88s-.5-.45-.82-.6c-.32-.15-.69-.23-1.1-.23s-.77.08-1.1.23c-.32.15-.6.35-.82.6-.23.25-.4.54-.52.88-.12.33-.18.68-.18,1.05s.06.72.18,1.05c.12.33.29.63.52.88.22.25.5.45.82.6.32.15.69.23,1.1.23s.77-.07,1.1-.23c.32-.15.6-.35.82-.6.23-.25.4-.54.52-.88.12-.33.18-.68.18-1.05Z"/>
    <text class="cls-13" transform="translate(444.39 480.6)"><tspan x="0" y="0"> </tspan></text>
    <text class="cls-13" transform="translate(448.89 480.6)"><tspan x="0" y="0">65897</tspan></text>
    <text class="cls-13" transform="translate(228.96 493.6)"><tspan x="0" y="0">MaryGPhillips@MissouriState.edu</tspan></text>
    <text class="cls-12" transform="translate(131.59 173.6)"><tspan class="cls-26" x="0" y="0">R</tspan><tspan class="cls-27" x="6.8" y="0">EFE</tspan><tspan class="cls-26" x="26.32" y="0">R</tspan><tspan class="cls-27" x="33.12" y="0">E</tspan><tspan class="cls-26" x="39.75" y="0">NC</tspan><tspan class="cls-27" x="55.95" y="0">E</tspan><tspan x="62.58" y="0">S</tspan></text>
    <g class="cls-19">
      <g class="cls-28">
        <g class="cls-20">
          <path class="cls-14" d="m73.97,94.42v-39.86c-1.57,2.98-4.97,5.29-11.26,9.63-6.81,4.74-9.95,13.42-9.95,20.88,0,18.71,12.44,19.79,21.21,9.36m-13.75-32.54c8.64-3.8,13.75-5.97,13.75-11.79v-.54c0-5.02-1.96-12.2-10.08-12.2s-13.23,9.22-14.67,15.46l-8.77-3.79c7.07-9.35,14.93-12.88,23.44-12.88,15.45,0,26.32,9.9,26.32,25.76v41.62c0,33.35,9.43,37.96,18.07,37.96,10.21,0,17.15-13.02,18.33-26.57l12.83,6.64c-5.11,16-19.51,21.15-31.16,21.15-16.63,0-34.31-12.74-34.31-39.18v-7.46c-3.27,4.75-11.26,12.2-19.9,12.2-10.21,0-18.07-8.95-18.07-20.74,0-15.46,14.4-21.29,24.22-25.62"/>
        </g>
      </g>
    </g>
    <text class="cls-8" transform="translate(106.82 47)"><tspan x="0" y="0">anna fernandez</tspan></text>
    <text class="cls-8" transform="translate(183.24 47)"><tspan x="0" y="0"> </tspan></text>
    <text class="cls-8" transform="translate(188.74 47)"><tspan x="0" y="0">|</tspan></text>
    <text class="cls-8" transform="translate(191.19 47)"><tspan x="0" y="0"> </tspan></text>
    <text class="cls-8" transform="translate(196.69 47)"><tspan x="0" y="0">graphic design </tspan></text>
    <text class="cls-11" transform="translate(106.63 64)"><tspan x="0" y="0">636.284.5900</tspan></text>
    <text class="cls-11" transform="translate(106.64 75)"><tspan x="0" y="0">anna.c.fernandez4@gmail.com</tspan></text>
    <text class="cls-11" transform="translate(105.88 97)"><tspan x="0" y="0">1028 E. St. Louis St., Apt. 1102 </tspan></text>
    <path class="cls-7" d="m107.74,106.82c.16.27.36.47.61.6.25.13.53.2.85.2.2,0,.38-.03.56-.09.17-.06.33-.14.45-.25.13-.11.23-.24.31-.39.07-.15.11-.33.11-.52,0-.22-.05-.4-.14-.55-.09-.14-.22-.26-.37-.36-.16-.09-.33-.17-.53-.24-.2-.07-.4-.13-.6-.2-.21-.07-.41-.14-.6-.23-.2-.08-.37-.19-.53-.33-.16-.14-.28-.3-.37-.51-.09-.2-.14-.46-.14-.76,0-.28.06-.53.17-.75.11-.22.26-.4.45-.55.19-.15.41-.26.65-.33.25-.07.5-.11.77-.11.35,0,.67.06.97.18.3.12.55.33.77.62l-.51.37c-.15-.21-.33-.37-.53-.47-.2-.1-.44-.16-.72-.16-.19,0-.38.03-.55.08-.17.05-.33.13-.45.22-.13.1-.23.22-.31.37-.08.15-.12.33-.12.53,0,.32.08.56.24.73s.36.31.61.41c.24.1.51.19.79.26.28.08.55.18.79.3.24.13.45.3.61.53.16.22.24.54.24.93,0,.29-.05.54-.16.77-.11.22-.25.41-.44.56-.18.15-.39.27-.63.35-.24.08-.49.12-.75.12-.42,0-.81-.07-1.16-.22-.35-.15-.66-.39-.91-.74l.57-.38Zm4.56-2.98h.54v.73h.02c.08-.14.19-.27.31-.37.13-.1.26-.19.41-.26.15-.07.3-.12.46-.15.16-.03.32-.05.48-.05.32,0,.61.05.88.16.27.11.5.26.69.45.19.2.35.43.45.69.11.27.16.56.16.88s-.05.61-.16.88c-.11.27-.26.5-.45.69-.2.2-.43.35-.69.45-.27.11-.56.16-.88.16-.16,0-.31-.02-.48-.05-.16-.03-.32-.08-.46-.15-.15-.07-.28-.16-.41-.26-.13-.1-.23-.23-.31-.37h-.02v2.78h-.54v-6.21Zm.49,2.08c0,.23.05.45.14.66.09.21.21.39.37.54.16.15.34.27.55.36.21.09.44.14.68.14s.48-.04.68-.14c.2-.09.38-.21.52-.36.14-.15.25-.33.33-.54.07-.21.11-.43.11-.66s-.04-.45-.11-.66c-.08-.21-.18-.39-.33-.54-.14-.15-.32-.27-.52-.36-.2-.09-.43-.14-.68-.14s-.47.05-.68.14c-.21.09-.39.21-.55.36-.16.15-.28.33-.37.54-.09.21-.14.43-.14.66Zm5.13-.91c0-.08,0-.17,0-.28,0-.11-.01-.22-.01-.34,0-.11,0-.22-.01-.32,0-.1,0-.18,0-.23h.54c0,.16.01.31.01.45,0,.14.01.24.02.28.14-.25.32-.45.53-.6.22-.16.48-.23.79-.23.05,0,.11,0,.16.01.05,0,.1.02.16.03l-.06.53c-.07-.02-.14-.04-.21-.04-.23,0-.44.04-.61.11-.17.08-.31.18-.42.31-.11.13-.19.29-.25.46-.05.18-.08.37-.08.57v2.27h-.54v-2.99Zm2.95-2.82c0-.11.04-.21.12-.29.08-.08.17-.12.29-.12s.21.04.29.12c.08.08.12.17.12.29s-.04.21-.12.29c-.08.08-.17.12-.29.12s-.21-.04-.29-.12c-.08-.08-.12-.17-.12-.29Zm.13,1.65h.54v4.16h-.54v-4.16Zm2.07,1.17c0-.08,0-.17,0-.28,0-.11-.01-.22-.01-.34,0-.11,0-.22-.01-.32,0-.1,0-.18,0-.23h.54c0,.16.01.31.01.45,0,.14.01.24.02.28h.03c.11-.23.29-.42.54-.59.25-.16.55-.25.88-.25s.59.05.79.15c.2.1.36.24.48.4.12.17.2.36.24.57s.07.44.07.67v2.47h-.54v-2.45c0-.17-.02-.33-.05-.49-.03-.16-.08-.3-.16-.43-.08-.13-.18-.23-.31-.3-.14-.07-.31-.11-.53-.11-.2,0-.39.03-.56.1-.18.07-.33.17-.46.32-.13.14-.23.32-.31.53-.08.21-.11.46-.11.75v2.08h-.54v-2.99Zm9.18,2.72c0,.52-.08.93-.22,1.25-.15.32-.34.56-.56.74-.23.17-.47.29-.72.35-.26.06-.49.09-.7.09s-.42-.02-.62-.06c-.2-.04-.39-.1-.57-.17-.18-.08-.34-.17-.49-.27-.15-.11-.27-.23-.38-.37l.42-.4c.19.27.43.47.72.59.29.13.59.19.92.19.28,0,.51-.04.7-.11.19-.07.34-.17.47-.28.12-.12.22-.25.29-.39.07-.14.12-.28.15-.42.03-.14.05-.27.06-.4,0-.13,0-.23,0-.31v-.58h-.02c-.16.25-.37.45-.63.59-.27.14-.58.22-.94.22-.31,0-.59-.06-.86-.17-.27-.11-.51-.26-.71-.46-.2-.19-.36-.42-.48-.68-.12-.26-.18-.53-.18-.83s.06-.57.18-.83c.12-.26.28-.48.48-.67.2-.19.44-.34.71-.46.27-.11.56-.17.86-.17.36,0,.67.07.94.22.27.14.48.34.63.59h.02v-.7h.54v3.89Zm-.52-1.86c0-.23-.04-.44-.13-.64-.09-.2-.2-.37-.35-.52-.15-.15-.32-.26-.52-.35-.2-.09-.42-.13-.64-.13s-.44.04-.64.13c-.2.09-.38.2-.52.35-.15.15-.26.32-.35.52-.09.2-.13.42-.13.64s.04.44.13.64c.09.2.2.38.35.52.15.15.32.26.52.35.2.09.42.13.64.13s.44-.04.64-.13c.2-.09.37-.2.52-.35.15-.15.26-.32.35-.52.09-.2.13-.42.13-.64Zm2.15-1.54h-.86v-.49h.86v-1.36c0-.27.04-.49.12-.67.08-.18.18-.32.3-.43.12-.11.25-.18.4-.23.15-.05.29-.07.42-.07.25,0,.46.04.62.11l-.11.47c-.12-.06-.28-.09-.49-.09-.49,0-.73.37-.73,1.11v1.16h.97v.49h-.97v3.67h-.54v-3.67Zm2.16-2.13c0-.11.04-.21.12-.29.08-.08.17-.12.29-.12s.21.04.29.12c.08.08.12.17.12.29s-.04.21-.12.29c-.08.08-.17.12-.29.12s-.21-.04-.29-.12c-.08-.08-.12-.17-.12-.29Zm.13,1.65h.54v4.16h-.54v-4.16Zm5.74,3.38c-.21.32-.47.55-.78.68-.31.14-.65.21-1.02.21-.32,0-.61-.05-.86-.16-.26-.11-.48-.26-.67-.45-.19-.19-.33-.43-.43-.69-.1-.27-.15-.56-.15-.89s.05-.6.15-.86c.1-.26.25-.49.43-.69.19-.19.4-.35.66-.46.25-.11.53-.17.84-.17s.6.06.84.17c.24.11.45.26.61.44.16.18.29.39.37.63.08.23.13.47.13.71v.38h-3.49c0,.11.02.26.07.44.04.18.13.35.25.52.12.17.28.31.48.43.2.12.46.18.78.18.28,0,.54-.07.8-.2.26-.13.46-.31.59-.54l.4.33Zm-.41-1.65c0-.19-.04-.36-.11-.52-.08-.16-.18-.3-.31-.43-.13-.12-.28-.22-.46-.29-.18-.07-.36-.11-.56-.11-.29,0-.54.06-.73.18-.2.12-.35.26-.46.41-.11.16-.2.31-.24.45-.05.15-.07.25-.07.3h2.95Zm1.84-4.37h.54v6.8h-.54v-6.8Zm5.71,6.08h-.02c-.08.14-.19.27-.32.37-.13.11-.26.19-.41.26-.15.07-.3.12-.46.15-.16.03-.32.05-.48.05-.32,0-.61-.05-.88-.16-.27-.11-.5-.26-.69-.45-.19-.19-.34-.43-.45-.69-.11-.27-.16-.56-.16-.88s.05-.61.16-.88c.11-.27.26-.5.45-.69.19-.19.42-.35.69-.45.27-.11.56-.16.88-.16.16,0,.32.02.48.05.16.03.32.08.46.15.15.07.28.16.41.26.13.11.23.23.32.37h.02v-3.38h.54v6.8h-.54v-.73Zm.05-1.35c0-.23-.04-.45-.14-.66-.09-.21-.21-.39-.37-.54-.16-.15-.34-.27-.55-.36-.21-.09-.44-.14-.68-.14s-.48.05-.68.14c-.2.09-.38.21-.52.36-.14.15-.25.33-.33.54-.08.21-.11.43-.11.66s.04.45.11.66c.07.21.18.39.33.54s.32.27.52.36c.2.09.43.14.68.14s.47-.04.68-.14c.21-.09.39-.21.55-.36.16-.15.28-.33.37-.54.09-.21.14-.43.14-.66Zm2.13,1.27h.63l-.69,2.05h-.53l.59-2.05Zm4.45-5.56h.89l2.32,5.35,2.32-5.35h.85v6.37h-.59v-5.62h-.02l-2.43,5.62h-.26l-2.47-5.62h-.02v5.62h-.59v-6.37Zm7.65,3.19c0-.49.08-.93.24-1.34.16-.41.39-.76.68-1.06s.63-.53,1.04-.7c.4-.17.85-.25,1.34-.25s.93.08,1.34.25c.41.17.75.4,1.04.7s.51.65.68,1.06c.16.41.24.85.24,1.34s-.08.93-.24,1.35c-.16.41-.39.77-.68,1.06s-.63.53-1.04.69c-.4.16-.85.25-1.34.25s-.93-.08-1.34-.25c-.4-.16-.75-.4-1.04-.69s-.51-.65-.68-1.06c-.16-.41-.24-.86-.24-1.35Zm.59,0c0,.4.06.76.19,1.11.13.34.31.64.54.89.23.25.52.45.85.59.33.14.71.22,1.12.22s.79-.07,1.12-.22c.33-.14.62-.34.85-.59s.41-.55.54-.89c.13-.34.19-.71.19-1.11s-.06-.77-.19-1.11c-.13-.34-.31-.64-.54-.89-.23-.25-.52-.45-.85-.59-.33-.14-.71-.22-1.12-.22s-.79.07-1.12.22c-.33.14-.62.34-.85.59-.23.25-.41.55-.54.89-.13.34-.19.71-.19,1.11Z"/>
    <text class="cls-11" transform="translate(170.38 108)"><tspan x="0" y="0"> </tspan></text>
    <text class="cls-11" transform="translate(174.88 108)"><tspan x="0" y="0">65806</tspan></text>
  </g>
</svg>