<?xml version="1.0" encoding="UTF-8"?>
<svg id="Layer_1" data-name="Layer 1" xmlns="http://www.w3.org/2000/svg" xmlns:xlink="http://www.w3.org/1999/xlink" viewBox="0 0 612 792">
  <defs>
    <style>
      .cls-1 {
        fill: none;
      }

      .cls-2 {
        letter-spacing: -.02em;
      }

      .cls-3 {
        letter-spacing: -.09em;
      }

      .cls-4 {
        letter-spacing: -.09em;
      }

      .cls-5 {
        letter-spacing: 0em;
      }

      .cls-6 {
        letter-spacing: -.09em;
      }

      .cls-7 {
        letter-spacing: -.09em;
      }

      .cls-8 {
        letter-spacing: -.09em;
      }

      .cls-9 {
        letter-spacing: .05em;
      }

      .cls-10 {
        letter-spacing: 0em;
      }

      .cls-11 {
        clip-path: url(#clippath);
      }

      .cls-12, .cls-13, .cls-14, .cls-15, .cls-16, .cls-17, .cls-18, .cls-19, .cls-20 {
        fill: #231f20;
      }

      .cls-12, .cls-14 {
        font-family: Avenir-Medium, Avenir;
      }

      .cls-12, .cls-14, .cls-18 {
        font-weight: 500;
      }

      .cls-12, .cls-17 {
        font-size: 10px;
      }

      .cls-21 {
        fill: #dcd621;
      }

      .cls-22 {
        letter-spacing: -.02em;
      }

      .cls-23 {
        letter-spacing: -.02em;
      }

      .cls-14, .cls-15, .cls-18, .cls-20 {
        font-size: 11px;
      }

      .cls-15 {
        font-family: Avenir-Black, Avenir;
      }

      .cls-15, .cls-20 {
        font-weight: 800;
      }

      .cls-24 {
        letter-spacing: 0em;
      }

      .cls-25 {
        letter-spacing: -.02em;
      }

      .cls-26 {
        clip-path: url(#clippath-1);
      }

      .cls-27 {
        clip-path: url(#clippath-2);
      }

      .cls-28 {
        letter-spacing: -.02em;
      }

      .cls-29 {
        letter-spacing: -.07em;
      }

      .cls-30 {
        letter-spacing: -.07em;
      }

      .cls-31 {
        letter-spacing: -.06em;
      }

      .cls-32 {
        letter-spacing: -.11em;
      }

      .cls-33 {
        letter-spacing: .07em;
      }

      .cls-34 {
        letter-spacing: .07em;
      }

      .cls-35 {
        letter-spacing: .07em;
      }

      .cls-36 {
        letter-spacing: .07em;
      }

      .cls-37 {
        letter-spacing: .07em;
      }

      .cls-38 {
        letter-spacing: 0em;
      }

      .cls-39 {
        letter-spacing: .05em;
      }

      .cls-16 {
        font-family: Avenir-Light, Avenir;
        font-weight: 300;
      }

      .cls-16, .cls-19 {
        font-size: 9px;
      }

      .cls-40 {
        opacity: .5;
      }

      .cls-41 {
        letter-spacing: .02em;
      }

      .cls-42 {
        letter-spacing: 0em;
      }

      .cls-17 {
        font-family: Avenir-Roman, Avenir;
      }

      .cls-43 {
        letter-spacing: -.02em;
      }

      .cls-44 {
        letter-spacing: -.02em;
      }

      .cls-18 {
        font-family: Avenir-MediumOblique, Avenir;
      }

      .cls-18, .cls-20 {
        font-style: oblique;
      }

      .cls-19 {
        font-family: Avenir-Book, Avenir;
      }

      .cls-20 {
        font-family: Avenir-BlackOblique, Avenir;
      }

      .cls-45 {
        letter-spacing: -.02em;
      }

      .cls-46 {
        letter-spacing: -.02em;
      }
    </style>
    <clipPath id="clippath">
      <rect class="cls-1" width="612" height="792"/>
    </clipPath>
    <clipPath id="clippath-1">
      <rect class="cls-1" width="612" height="792"/>
    </clipPath>
    <clipPath id="clippath-2">
      <rect class="cls-1" x="35" y="35.12" width="105.44" height="108.56"/>
    </clipPath>
  </defs>
  <g class="cls-11">
    <text class="cls-15" transform="translate(229.37 173.6)"><tspan x="0" y="0">Missouri State Universit</tspan><tspan class="cls-6" x="124.45" y="0">y</tspan><tspan x="129.56" y="0">, </tspan></text>
    <text class="cls-18" transform="translate(365.43 173.6)"><tspan x="0" y="0">Spring</tspan><tspan class="cls-41" x="32.38" y="0">f</tspan><tspan x="36.27" y="0">ield, MO</tspan></text>
    <text class="cls-19" transform="translate(229.29 189.6)"><tspan x="0" y="0">Major: Graphic Design</tspan></text>
    <text class="cls-19" transform="translate(319.8 189.6)"><tspan x="0" y="0"> </tspan></text>
    <text class="cls-19" transform="translate(324.3 189.6)"><tspan x="0" y="0">I</tspan></text>
    <text class="cls-19" transform="translate(326.67 189.6)"><tspan x="0" y="0"> </tspan></text>
    <text class="cls-19" transform="translate(331.17 189.6)"><tspan x="0" y="0">Minor: Art History </tspan></text>
    <text class="cls-19" transform="translate(229.29 202.6)"><tspan x="0" y="0">Major G</tspan><tspan class="cls-30" x="32.67" y="0">P</tspan><tspan x="37.18" y="0">A: 3.90 </tspan></text>
    <text class="cls-19" transform="translate(229.29 215.6)"><tspan x="0" y="0">Expected graduation: December 2023</tspan></text>
    <text class="cls-15" transform="translate(229.37 256.6)"><tspan x="0" y="0">Missouri State Universit</tspan><tspan class="cls-6" x="124.45" y="0">y</tspan><tspan x="129.56" y="0">, </tspan></text>
    <text class="cls-18" transform="translate(365.43 256.6)"><tspan x="0" y="0">Spring</tspan><tspan class="cls-41" x="32.38" y="0">f</tspan><tspan x="36.27" y="0">ield, MO</tspan></text>
    <text class="cls-12" transform="translate(229.28 269.6)"><tspan x="0" y="0">Student Graphic Designer</tspan></text>
    <text class="cls-19" transform="translate(228.87 282.6)"><tspan x="0" y="0">August 2022</tspan></text>
    <text class="cls-19" transform="translate(279.89 282.6)"><tspan x="0" y="0"> </tspan></text>
    <text class="cls-19" transform="translate(279.89 282.6)"><tspan x="0" y="0">–P</tspan><tspan class="cls-28" x="9.67" y="0">r</tspan><tspan x="12.49" y="0">esent</tspan></text>
    <text class="cls-19" transform="translate(228.87 298.6)"><tspan x="0" y="0">As a designe</tspan><tspan class="cls-8" x="51.69" y="0">r</tspan><tspan class="cls-5" x="53.85" y="0">, I am </tspan><tspan class="cls-44" x="78.57" y="0">r</tspan><tspan x="81.4" y="0">esponsible for c</tspan><tspan class="cls-28" x="145.07" y="0">r</tspan><tspan x="147.9" y="0">eating graphics and images for </tspan></text>
    <text class="cls-19" transform="translate(503.58 298.6)"><tspan x="0" y="0">digital and print </tspan></text>
    <text class="cls-19" transform="translate(229.18 311.6)"><tspan x="0" y="0">advertisements, invitations, pamphlets, and other similar p</tspan><tspan class="cls-2" x="234.1" y="0">r</tspan><tspan x="236.93" y="0" xml:space="preserve">ojects.  </tspan></text>
    <text class="cls-15" transform="translate(228.8 340.6)"><tspan class="cls-32" x="0" y="0">T</tspan><tspan x="5.1" y="0">own Squa</tspan><tspan class="cls-22" x="56.01" y="0">r</tspan><tspan x="60.29" y="0">e Pub &amp; Grub, </tspan></text>
    <text class="cls-18" transform="translate(366.47 340.6)"><tspan x="0" y="0">Da</tspan><tspan class="cls-43" x="13.86" y="0">r</tspan><tspan x="17.74" y="0">denne Prairie, MO</tspan></text>
    <text class="cls-14" transform="translate(475.45 340.6)"><tspan x="0" y="0"> </tspan></text>
    <text class="cls-12" transform="translate(229.28 353.6)"><tspan x="0" y="0">Serve</tspan><tspan class="cls-7" x="25.38" y="0">r</tspan><tspan class="cls-10" x="28.16" y="0">, Food Runne</tspan><tspan class="cls-4" x="88.58" y="0">r</tspan><tspan x="91.37" y="0">, Hostess</tspan></text>
    <text class="cls-19" transform="translate(228.59 366.6)"><tspan x="0" y="0">July 2018–P</tspan><tspan class="cls-44" x="48.02" y="0">r</tspan><tspan class="cls-5" x="50.86" y="0">esent</tspan></text>
    <text class="cls-19" transform="translate(229.16 382.6)"><tspan x="0" y="0">Server: April 2021–P</tspan><tspan class="cls-28" x="81.49" y="0">r</tspan><tspan x="84.32" y="0">esent</tspan></text>
    <text class="cls-19" transform="translate(229.29 395.6)"><tspan x="0" y="0">Head Food Runner (Expediter of Kitchen): November 2018–April 2021</tspan></text>
    <text class="cls-19" transform="translate(229.29 408.6)"><tspan x="0" y="0">Food Runner: September 2018–November 2018</tspan></text>
    <text class="cls-19" transform="translate(229.29 421.6)"><tspan x="0" y="0">Hostess: July 2018–September 2018</tspan></text>
    <text class="cls-15" transform="translate(229.37 450.6)"><tspan x="0" y="0">Bricktown B</tspan><tspan class="cls-22" x="62.93" y="0">r</tspan><tspan class="cls-38" x="67.21" y="0">ewer</tspan><tspan class="cls-3" x="93.48" y="0">y</tspan><tspan x="98.59" y="0">, </tspan></text>
    <text class="cls-18" transform="translate(334.46 450.6)"><tspan x="0" y="0">Spring</tspan><tspan class="cls-41" x="32.38" y="0">f</tspan><tspan x="36.27" y="0">ield, MO</tspan></text>
    <text class="cls-14" transform="translate(414.08 450.6)"><tspan x="0" y="0"> </tspan></text>
    <text class="cls-14" transform="translate(229.16 466.6)"><tspan x="0" y="0">Hostess</tspan></text>
    <text class="cls-19" transform="translate(229.16 479.6)"><tspan x="0" y="0">September 2022–December 2022</tspan></text>
    <text class="cls-12" transform="translate(228.71 520.6)"><tspan x="0" y="0">Adobe C</tspan><tspan class="cls-46" x="40.58" y="0">r</tspan><tspan class="cls-24" x="44.11" y="0">eative Cloud:</tspan></text>
    <text class="cls-19" transform="translate(332.83 520.6)"><tspan x="0" y="0" xml:space="preserve"> InDesign, Illustrato</tspan><tspan class="cls-8" x="77.56" y="0">r</tspan><tspan x="79.72" y="0">, Photoshop, and Ac</tspan><tspan class="cls-44" x="161.42" y="0">r</tspan><tspan x="164.26" y="0">obat</tspan></text>
    <text class="cls-12" transform="translate(229.25 533.6)"><tspan x="0" y="0">Photography:</tspan></text>
    <path class="cls-13" d="m295.11,529.96h.33c.19,0,.36-.02.54-.06.17-.04.32-.11.45-.2.13-.09.23-.21.3-.36.07-.15.11-.33.11-.54,0-.34-.1-.61-.31-.8s-.5-.28-.87-.28c-.27,0-.51.06-.71.18-.2.12-.37.29-.5.52l-.57-.29c.19-.34.44-.6.73-.76.3-.16.64-.25,1.03-.25.25,0,.49.04.71.11.22.07.42.18.58.32.17.14.3.32.4.52s.15.44.15.71c0,.17-.03.34-.09.49-.06.16-.14.3-.23.42s-.21.24-.35.33c-.13.09-.27.16-.41.21l.03.02c.18.04.34.1.49.2.15.1.28.22.39.36.11.14.19.31.25.49.06.18.09.37.09.57,0,.29-.05.56-.16.78-.11.23-.26.42-.44.58-.19.16-.4.27-.65.36-.25.08-.51.12-.78.12-.47,0-.88-.1-1.22-.31-.35-.2-.61-.53-.78-.98l.68-.21c.11.31.27.53.48.68.21.15.51.22.9.22.18,0,.35-.03.51-.09.16-.06.3-.15.43-.26.12-.11.22-.24.29-.4.07-.16.1-.33.1-.51,0-.24-.04-.44-.13-.61-.09-.16-.21-.3-.36-.4-.15-.1-.32-.18-.52-.22-.2-.05-.4-.07-.61-.07h-.28v-.59Zm7.35-2.14h-2.6l-.05,1.92c.14-.05.28-.09.42-.12.14-.02.29-.04.43-.04.3,0,.57.05.82.15.25.1.46.24.63.43.18.18.32.4.41.65.1.25.15.52.15.81s-.05.59-.16.84c-.11.26-.26.47-.45.66-.19.18-.42.33-.68.43-.26.1-.54.15-.85.15-.4,0-.77-.1-1.09-.29-.32-.19-.57-.47-.75-.85l.65-.28c.12.25.29.45.5.6.22.15.46.22.74.22.2,0,.39-.04.57-.11.17-.07.32-.18.45-.3s.23-.28.3-.45c.07-.17.11-.36.11-.56,0-.22-.04-.43-.12-.61-.08-.19-.19-.35-.32-.48-.14-.14-.3-.24-.5-.31-.19-.07-.4-.11-.63-.11s-.45.03-.68.09c-.23.06-.44.15-.64.26l.06-3.3h3.25v.59Zm1.47,2.5c0-.16,0-.31-.01-.47,0-.16-.02-.31-.03-.47h.64v.64h.02c.14-.25.34-.43.6-.56.25-.13.51-.19.76-.19.11,0,.24.01.36.04.13.02.25.07.37.13.12.06.23.15.34.27.1.11.19.26.27.44.12-.27.31-.48.57-.64.26-.16.53-.23.81-.23.54,0,.94.14,1.2.43.26.29.39.69.39,1.22v2.67h-.59v-2.46c0-.43-.08-.75-.23-.98-.15-.23-.43-.34-.84-.34-.22,0-.41.04-.56.13-.15.09-.27.2-.36.35-.09.14-.16.31-.2.49-.04.18-.06.37-.06.57v2.24h-.59v-2.46c0-.43-.08-.75-.23-.98-.15-.23-.43-.34-.84-.34-.04,0-.12.01-.25.04-.13.02-.26.09-.4.2-.14.11-.26.27-.37.49-.11.22-.17.52-.17.9v2.16h-.59v-3.28Zm7.67,0c0-.16,0-.31-.01-.47,0-.16-.02-.31-.03-.47h.64v.64h.02c.14-.25.34-.43.6-.56.25-.13.51-.19.76-.19.11,0,.24.01.36.04.13.02.25.07.37.13.12.06.23.15.34.27.1.11.19.26.27.44.12-.27.31-.48.57-.64.26-.16.53-.23.81-.23.54,0,.94.14,1.2.43.26.29.39.69.39,1.22v2.67h-.59v-2.46c0-.43-.08-.75-.23-.98-.15-.23-.43-.34-.84-.34-.22,0-.41.04-.56.13-.15.09-.27.2-.36.35-.09.14-.16.31-.2.49-.04.18-.06.37-.06.57v2.24h-.59v-2.46c0-.43-.08-.75-.23-.98-.15-.23-.43-.34-.84-.34-.04,0-.12.01-.25.04-.13.02-.26.09-.4.2-.14.11-.26.27-.37.49-.11.22-.17.52-.17.9v2.16h-.59v-3.28Zm10.17-3.53h.59v3.29h.02c.1-.14.21-.27.34-.37.13-.1.27-.19.41-.25.14-.07.29-.11.45-.14.15-.03.3-.05.44-.05.33,0,.63.06.9.17.27.11.51.27.71.46s.35.43.46.7c.11.27.17.56.17.88s-.06.61-.17.88c-.11.27-.27.5-.46.7s-.43.35-.71.46c-.27.11-.57.17-.9.17-.14,0-.28-.02-.44-.05-.15-.03-.3-.08-.45-.14-.14-.07-.28-.15-.41-.25-.13-.1-.25-.23-.34-.37h-.02v.7h-.59v-6.8Zm3.84,4.7c0-.23-.04-.45-.11-.66-.08-.2-.18-.38-.32-.53-.14-.15-.3-.27-.5-.36-.2-.09-.42-.13-.66-.13s-.47.04-.68.13c-.2.09-.38.21-.53.36-.15.15-.27.33-.35.53-.08.2-.13.42-.13.66s.04.45.13.66c.08.2.2.38.35.53.15.15.33.27.53.36.2.09.43.13.68.13s.47-.04.66-.13c.19-.09.36-.21.5-.36.14-.15.24-.33.32-.53.07-.2.11-.42.11-.66Zm2.38,2.11h-.59v-6.8h.59v6.8Zm4.13-2.58v-.11c0-.73-.36-1.09-1.08-1.09-.49,0-.92.17-1.29.49l-.36-.42c.4-.41.99-.61,1.78-.61.2,0,.4.03.59.09.19.06.35.15.49.27.14.12.25.28.33.46.08.19.13.41.13.67v1.88c0,.16,0,.33.02.51.01.18.03.32.05.44h-.58c-.02-.1-.03-.21-.04-.33,0-.12-.01-.24-.01-.35h-.02c-.17.28-.38.48-.62.61-.24.12-.53.18-.87.18-.19,0-.37-.03-.54-.08-.17-.05-.33-.13-.46-.23-.14-.1-.24-.23-.32-.39-.08-.15-.12-.33-.12-.54,0-.34.09-.61.27-.81.18-.19.4-.34.67-.44.27-.1.55-.16.86-.18.3-.02.58-.04.83-.04h.3Zm-.31.49c-.15,0-.34,0-.56.02-.23.02-.44.05-.65.11-.21.06-.38.15-.53.27-.15.12-.22.29-.22.49,0,.14.03.26.09.36.06.1.13.18.23.24.1.06.2.11.32.14s.24.04.36.04c.22,0,.4-.04.56-.11.16-.07.29-.17.4-.29.11-.12.19-.27.24-.43.05-.16.08-.34.08-.53v-.31h-.31Zm5.35-1.12c-.1-.16-.24-.29-.43-.4-.18-.11-.39-.16-.63-.16-.25,0-.47.03-.66.12-.2.08-.36.2-.5.35-.14.15-.24.33-.32.54-.07.21-.11.43-.11.67s.04.46.11.67c.07.21.18.39.32.54.14.15.3.27.5.35.19.08.42.12.66.12.23,0,.44-.05.63-.16.18-.11.33-.24.43-.4l.49.37c-.21.25-.45.43-.71.54-.26.12-.54.18-.83.18-.34,0-.65-.05-.93-.16-.28-.11-.51-.27-.71-.46-.2-.2-.34-.43-.45-.71-.1-.27-.15-.57-.15-.89s.05-.61.15-.89c.1-.27.25-.51.45-.71.19-.2.43-.35.71-.46.28-.11.58-.16.93-.16.29,0,.56.07.83.18.26.12.5.3.71.54l-.49.37Zm1.86.91l1.99-1.9h.89l-2.1,1.93,2.32,2.29h-.92l-2.19-2.21v2.21h-.59v-6.8h.59v4.49Zm10.36.84l1.43,1.48h-.92l-.9-.94c-.26.34-.55.61-.85.81-.3.19-.67.29-1.1.29-.26,0-.52-.04-.76-.12-.24-.08-.46-.2-.64-.36-.18-.16-.33-.35-.44-.57s-.16-.48-.16-.77c0-.23.04-.45.12-.64.08-.19.18-.36.32-.52s.29-.29.46-.41c.17-.12.36-.23.55-.32-.19-.2-.36-.43-.52-.68-.15-.25-.23-.52-.23-.81,0-.24.04-.45.12-.64.08-.19.19-.34.34-.47.14-.13.31-.23.5-.29.19-.07.4-.1.63-.1.21,0,.41.03.59.09.19.06.35.15.49.27.14.12.25.27.33.45.08.18.12.38.12.62,0,.21-.04.4-.13.56-.08.17-.19.32-.33.45-.13.14-.29.26-.45.36-.17.11-.33.2-.49.28l1.47,1.51.87-1.51h.73l-1.17,1.97Zm-2.47-1.66c-.21.12-.39.23-.54.34-.15.11-.27.22-.36.33-.09.12-.16.24-.2.37-.04.13-.06.28-.06.44,0,.18.04.35.11.49.07.15.17.28.29.38.12.11.26.19.41.25.16.06.32.09.49.09s.33-.02.47-.07c.14-.05.27-.11.4-.2.12-.08.24-.18.35-.3.11-.11.21-.24.32-.37l-1.68-1.76Zm1.33-1.97c0-.25-.09-.45-.26-.61-.17-.15-.38-.23-.63-.23-.27,0-.5.08-.68.25-.18.17-.27.4-.27.68,0,.11.03.22.08.34.05.12.11.23.18.33.07.1.14.2.22.28.07.09.14.15.19.19.12-.07.25-.15.39-.22.14-.07.27-.16.38-.26.12-.1.21-.21.29-.33.07-.13.11-.27.11-.43Zm6.05.89l.97,3.42h.02l1.12-3.42h.61l1.12,3.42h.02l.97-3.42h.7l-1.33,4.21h-.67l-1.12-3.46h-.02l-1.12,3.46h-.67l-1.33-4.21h.7Zm6.32-2.59h.59v3.27h.02c.07-.11.15-.22.25-.32.1-.1.22-.18.34-.25.13-.07.26-.12.4-.16.14-.04.28-.06.42-.06.54,0,.94.14,1.2.43.26.29.39.69.39,1.22v2.67h-.59v-2.33c0-.47-.08-.83-.24-1.08-.16-.25-.46-.37-.9-.37-.03,0-.11.01-.25.04-.14.02-.28.09-.44.2-.15.11-.29.27-.41.49-.12.22-.18.52-.18.9v2.16h-.59v-6.8Zm5.87.97c0,.13-.04.23-.13.31-.09.08-.19.12-.3.12s-.21-.04-.3-.12c-.09-.08-.13-.18-.13-.31s.04-.23.13-.31c.09-.08.19-.12.3-.12s.21.04.3.12c.09.08.13.18.13.31Zm-.13,5.83h-.59v-4.21h.59v4.21Zm3.61-3.67h-1.21v2.48c0,.16.01.28.05.38.03.1.07.18.13.23s.12.09.19.11c.07.02.16.03.25.03.1,0,.21-.01.32-.04.11-.03.21-.07.3-.12l.03.55c-.22.1-.49.15-.8.15-.11,0-.23-.02-.36-.05-.12-.03-.24-.09-.34-.17-.1-.08-.19-.2-.25-.34-.07-.14-.1-.33-.1-.57v-2.65h-.89v-.54h.89v-1.19h.59v1.19h1.21v.54Zm1.22,1.73c.02.21.07.41.15.59.08.19.19.35.33.48.14.14.3.24.48.32.18.08.37.12.58.12.32,0,.59-.07.82-.22.23-.15.41-.32.53-.51l.46.38c-.25.32-.53.55-.83.68-.3.14-.63.21-.98.21-.31,0-.6-.06-.87-.17-.27-.11-.5-.27-.69-.46-.19-.2-.34-.43-.45-.7-.11-.27-.17-.56-.17-.88s.05-.61.16-.88c.11-.27.26-.5.45-.7.19-.2.42-.35.67-.46.26-.11.54-.17.84-.17.32,0,.6.06.86.17.25.11.46.27.63.45.17.19.3.41.39.67.09.26.13.53.13.81v.27h-3.51Zm2.86-.49c0-.4-.12-.73-.36-.98-.24-.25-.58-.37-1.01-.37-.19,0-.38.04-.56.11-.18.08-.34.18-.47.3-.14.13-.24.27-.32.43-.08.16-.12.33-.12.5h2.84Zm6.19-1.24h-1v3.67h-.59v-3.67h-.89v-.54h.89v-1.15c0-.56.13-.96.39-1.19.26-.24.6-.36,1.03-.36.08,0,.17,0,.26.02.09.01.17.03.26.05l-.11.54c-.07-.02-.15-.03-.23-.05-.08-.01-.16-.02-.23-.02-.16,0-.29.03-.4.08-.1.05-.18.13-.23.23-.05.1-.09.21-.11.35-.02.13-.03.27-.03.42v1.08h1v.54Zm1.58-2.16c0,.13-.04.23-.14.31-.09.08-.19.12-.3.12s-.21-.04-.3-.12c-.09-.08-.13-.18-.13-.31s.04-.23.13-.31c.09-.08.19-.12.3-.12s.21.04.3.12c.09.08.14.18.14.31Zm-.14,5.83h-.59v-4.21h.59v4.21Zm2.16,0h-.59v-6.8h.59v6.8Zm1.43-3.28c0-.16,0-.31-.01-.47,0-.16-.02-.31-.03-.47h.64v.64h.02c.14-.25.34-.43.6-.56.25-.13.51-.19.76-.19.11,0,.24.01.36.04.13.02.25.07.37.13.12.06.23.15.34.27.1.11.19.26.27.44.12-.27.31-.48.57-.64.26-.16.53-.23.81-.23.54,0,.94.14,1.2.43.26.29.39.69.39,1.22v2.67h-.59v-2.46c0-.43-.08-.75-.23-.98-.15-.23-.43-.34-.84-.34-.22,0-.41.04-.56.13-.15.09-.27.2-.36.35-.09.14-.16.31-.2.49-.04.18-.06.37-.06.57v2.24h-.59v-2.46c0-.43-.08-.75-.23-.98-.15-.23-.43-.34-.84-.34-.04,0-.12.01-.25.04-.13.02-.26.09-.4.2-.14.11-.26.27-.37.49-.11.22-.17.52-.17.9v2.16h-.59v-3.28Z"/>
    <text class="cls-12" transform="translate(229.25 546.6)"><tspan x="0" y="0">Painting:</tspan></text>
    <text class="cls-19" transform="translate(268.88 546.6)"><tspan x="0" y="0" xml:space="preserve"> acrylic and oil </tspan></text>
    <text class="cls-12" transform="translate(229.41 559.6)"><tspan x="0" y="0">Drawing:</tspan></text>
    <text class="cls-19" transform="translate(270.15 559.6)"><tspan x="0" y="0" xml:space="preserve"> graphite, cha</tspan><tspan class="cls-28" x="55.33" y="0">r</tspan><tspan x="58.16" y="0">coal, and digital</tspan></text>
    <text class="cls-20" transform="translate(228.64 607.6)"><tspan x="0" y="0">Get Out the </tspan><tspan class="cls-31" x="66.16" y="0">V</tspan><tspan class="cls-42" x="73.3" y="0">ote!</tspan></text>
    <text class="cls-15" transform="translate(324.33 607.6)"><tspan x="0" y="0" xml:space="preserve"> Campaign for AIGA</tspan></text>
    <text class="cls-19" transform="translate(229.29 620.6)"><tspan x="0" y="0">Brick City 1, 3</tspan><tspan class="cls-23" x="55.33" y="0">r</tspan><tspan x="58.16" y="0">d Floor Gallery Space, October 27–December 18, 2022</tspan></text>
    <text class="cls-15" transform="translate(229.37 660.6)"><tspan x="0" y="0">Missouri State Universit</tspan><tspan class="cls-6" x="124.45" y="0">y</tspan><tspan x="129.56" y="0">, </tspan></text>
    <text class="cls-18" transform="translate(365.43 660.6)"><tspan x="0" y="0">Spring</tspan><tspan class="cls-41" x="32.38" y="0">f</tspan><tspan x="36.27" y="0">ield, MO</tspan></text>
    <text class="cls-15" transform="translate(445.05 660.6)"><tspan x="0" y="0"> </tspan></text>
    <text class="cls-12" transform="translate(229.37 673.6)"><tspan x="0" y="0">Inclusive Excellence Scholarship</tspan></text>
    <text class="cls-19" transform="translate(228.87 686.6)"><tspan x="0" y="0">August 2020–P</tspan><tspan class="cls-28" x="60.69" y="0">r</tspan><tspan class="cls-5" x="63.51" y="0">esent</tspan></text>
    <text class="cls-15" transform="translate(229.37 728.6)"><tspan x="0" y="0">Missouri State Universit</tspan><tspan class="cls-6" x="124.45" y="0">y</tspan><tspan x="129.56" y="0">,</tspan></text>
    <text class="cls-20" transform="translate(362.18 728.6)"><tspan x="0" y="0"> </tspan></text>
    <text class="cls-18" transform="translate(365.43 728.6)"><tspan x="0" y="0">Spring</tspan><tspan class="cls-41" x="32.38" y="0">f</tspan><tspan x="36.27" y="0">ield, MO</tspan></text>
    <text class="cls-12" transform="translate(229.41 741.6)"><tspan x="0" y="0">Dean</tspan><tspan class="cls-29" x="23.72" y="0">’</tspan><tspan x="25.77" y="0">s List</tspan></text>
    <text class="cls-19" transform="translate(229.29 754.6)"><tspan x="0" y="0">Fall 2020,–P</tspan><tspan class="cls-45" x="48.68" y="0">r</tspan><tspan x="51.52" y="0">esent</tspan></text>
    <text class="cls-17" transform="translate(136.02 173.6)"><tspan class="cls-36" x="0" y="0">E</tspan><tspan class="cls-34" x="6.63" y="0">D</tspan><tspan class="cls-35" x="14.73" y="0">U</tspan><tspan class="cls-34" x="22.47" y="0">C</tspan><tspan class="cls-25" x="30.2" y="0">A</tspan><tspan class="cls-36" x="37.02" y="0">T</tspan><tspan class="cls-34" x="43.46" y="0">I</tspan><tspan class="cls-36" x="46.75" y="0">O</tspan><tspan x="55.79" y="0">N</tspan></text>
    <text class="cls-17" transform="translate(134.16 256)"><tspan class="cls-36" x="0" y="0">EXPE</tspan><tspan class="cls-34" x="26.89" y="0">RI</tspan><tspan class="cls-36" x="36.98" y="0">EN</tspan><tspan class="cls-34" x="52.09" y="0">C</tspan><tspan x="59.82" y="0">E</tspan></text>
    <text class="cls-17" transform="translate(166.25 520.92)"><tspan class="cls-34" x="0" y="0">S</tspan><tspan class="cls-36" x="6.25" y="0">KI</tspan><tspan class="cls-34" x="16.55" y="0">LL</tspan><tspan x="27.93" y="0">S</tspan></text>
    <text class="cls-17" transform="translate(131.8 607.24)"><tspan class="cls-36" x="0" y="0">EXH</tspan><tspan class="cls-37" x="21.55" y="0">I</tspan><tspan class="cls-36" x="24.84" y="0">B</tspan><tspan class="cls-34" x="31.84" y="0">I</tspan><tspan class="cls-36" x="35.13" y="0">TI</tspan><tspan class="cls-33" x="44.87" y="0">ON</tspan><tspan x="62.37" y="0">S</tspan></text>
    <text class="cls-17" transform="translate(142.62 660.08)"><tspan class="cls-39" x="0" y="0">A</tspan><tspan class="cls-9" x="7.5" y="0">W</tspan><tspan class="cls-34" x="17.58" y="0">AR</tspan><tspan class="cls-35" x="32.11" y="0">D</tspan><tspan class="cls-34" x="40.22" y="0">S </tspan><tspan x="49.94" y="0">&amp; </tspan></text>
    <text class="cls-17" transform="translate(122.58 672.08)"><tspan class="cls-34" x="0" y="0">R</tspan><tspan class="cls-36" x="6.8" y="0">EC</tspan><tspan class="cls-34" x="21.17" y="0">OGN</tspan><tspan class="cls-35" x="47.14" y="0">IT</tspan><tspan class="cls-34" x="56.88" y="0">I</tspan><tspan class="cls-36" x="60.17" y="0">O</tspan><tspan class="cls-10" x="69.21" y="0">N</tspan></text>
    <g class="cls-26">
      <g class="cls-40">
        <g class="cls-27">
          <path class="cls-21" d="m73.97,94.42v-39.86c-1.57,2.98-4.97,5.29-11.26,9.63-6.81,4.74-9.95,13.42-9.95,20.88,0,18.71,12.44,19.79,21.21,9.36m-13.75-32.54c8.64-3.8,13.75-5.97,13.75-11.79v-.54c0-5.02-1.96-12.2-10.08-12.2s-13.23,9.22-14.67,15.46l-8.77-3.79c7.07-9.35,14.93-12.88,23.44-12.88,15.45,0,26.32,9.9,26.32,25.76v41.62c0,33.35,9.43,37.96,18.07,37.96,10.21,0,17.15-13.02,18.33-26.57l12.83,6.64c-5.11,16-19.51,21.15-31.16,21.15-16.63,0-34.31-12.74-34.31-39.18v-7.46c-3.27,4.75-11.26,12.2-19.9,12.2-10.21,0-18.07-8.95-18.07-20.74,0-15.46,14.4-21.29,24.22-25.62"/>
        </g>
      </g>
    </g>
    <text class="cls-14" transform="translate(106.82 47)"><tspan x="0" y="0">anna fernandez</tspan></text>
    <text class="cls-14" transform="translate(183.24 47)"><tspan x="0" y="0"> </tspan></text>
    <text class="cls-14" transform="translate(188.74 47)"><tspan x="0" y="0">|</tspan></text>
    <text class="cls-14" transform="translate(191.19 47)"><tspan x="0" y="0"> </tspan></text>
    <text class="cls-14" transform="translate(196.69 47)"><tspan x="0" y="0">graphic design </tspan></text>
    <text class="cls-16" transform="translate(106.63 64)"><tspan x="0" y="0">636.284.5900</tspan></text>
    <text class="cls-16" transform="translate(106.64 75)"><tspan x="0" y="0">anna.c.fernandez4@gmail.com</tspan></text>
    <text class="cls-16" transform="translate(105.88 97)"><tspan x="0" y="0">1028 E. St. Louis St., Apt. 1102 </tspan></text>
    <path class="cls-13" d="m107.74,106.82c.16.27.36.47.61.6.25.13.53.2.85.2.2,0,.38-.03.56-.09.17-.06.33-.14.45-.25.13-.11.23-.24.31-.39.07-.15.11-.33.11-.52,0-.22-.05-.4-.14-.55-.09-.14-.22-.26-.37-.36-.16-.09-.33-.17-.53-.24-.2-.07-.4-.13-.6-.2-.21-.07-.41-.14-.6-.23-.2-.08-.37-.19-.53-.33-.16-.14-.28-.3-.37-.51-.09-.2-.14-.46-.14-.76,0-.28.06-.53.17-.75.11-.22.26-.4.45-.55.19-.15.41-.26.65-.33.25-.07.5-.11.77-.11.35,0,.67.06.97.18.3.12.55.33.77.62l-.51.37c-.15-.21-.33-.37-.53-.47-.2-.1-.44-.16-.72-.16-.19,0-.38.03-.55.08-.17.05-.33.13-.45.22-.13.1-.23.22-.31.37-.08.15-.12.33-.12.53,0,.32.08.56.24.73s.36.31.61.41c.24.1.51.19.79.26.28.08.55.18.79.3.24.13.45.3.61.53.16.22.24.54.24.93,0,.29-.05.54-.16.77-.11.22-.25.41-.44.56-.18.15-.39.27-.63.35-.24.08-.49.12-.75.12-.42,0-.81-.07-1.16-.22-.35-.15-.66-.39-.91-.74l.57-.38Zm4.56-2.98h.54v.73h.02c.08-.14.19-.27.31-.37.13-.1.26-.19.41-.26.15-.07.3-.12.46-.15.16-.03.32-.05.48-.05.32,0,.61.05.88.16.27.11.5.26.69.45.19.2.35.43.45.69.11.27.16.56.16.88s-.05.61-.16.88c-.11.27-.26.5-.45.69-.2.2-.43.35-.69.45-.27.11-.56.16-.88.16-.16,0-.31-.02-.48-.05-.16-.03-.32-.08-.46-.15-.15-.07-.28-.16-.41-.26-.13-.1-.23-.23-.31-.37h-.02v2.78h-.54v-6.21Zm.49,2.08c0,.23.05.45.14.66.09.21.21.39.37.54.16.15.34.27.55.36.21.09.44.14.68.14s.48-.04.68-.14c.2-.09.38-.21.52-.36.14-.15.25-.33.33-.54.07-.21.11-.43.11-.66s-.04-.45-.11-.66c-.08-.21-.18-.39-.33-.54-.14-.15-.32-.27-.52-.36-.2-.09-.43-.14-.68-.14s-.47.05-.68.14c-.21.09-.39.21-.55.36-.16.15-.28.33-.37.54-.09.21-.14.43-.14.66Zm5.13-.91c0-.08,0-.17,0-.28,0-.11-.01-.22-.01-.34,0-.11,0-.22-.01-.32,0-.1,0-.18,0-.23h.54c0,.16.01.31.01.45,0,.14.01.24.02.28.14-.25.32-.45.53-.6.22-.16.48-.23.79-.23.05,0,.11,0,.16.01.05,0,.1.02.16.03l-.06.53c-.07-.02-.14-.04-.21-.04-.23,0-.44.04-.61.11-.17.08-.31.18-.42.31-.11.13-.19.29-.25.46-.05.18-.08.37-.08.57v2.27h-.54v-2.99Zm2.95-2.82c0-.11.04-.21.12-.29.08-.08.17-.12.29-.12s.21.04.29.12c.08.08.12.17.12.29s-.04.21-.12.29c-.08.08-.17.12-.29.12s-.21-.04-.29-.12c-.08-.08-.12-.17-.12-.29Zm.13,1.65h.54v4.16h-.54v-4.16Zm2.07,1.17c0-.08,0-.17,0-.28,0-.11-.01-.22-.01-.34,0-.11,0-.22-.01-.32,0-.1,0-.18,0-.23h.54c0,.16.01.31.01.45,0,.14.01.24.02.28h.03c.11-.23.29-.42.54-.59.25-.16.55-.25.88-.25s.59.05.79.15c.2.1.36.24.48.4.12.17.2.36.24.57s.07.44.07.67v2.47h-.54v-2.45c0-.17-.02-.33-.05-.49-.03-.16-.08-.3-.16-.43-.08-.13-.18-.23-.31-.3-.14-.07-.31-.11-.53-.11-.2,0-.39.03-.56.1-.18.07-.33.17-.46.32-.13.14-.23.32-.31.53-.08.21-.11.46-.11.75v2.08h-.54v-2.99Zm9.18,2.72c0,.52-.08.93-.22,1.25-.15.32-.34.56-.56.74-.23.17-.47.29-.72.35-.26.06-.49.09-.7.09s-.42-.02-.62-.06c-.2-.04-.39-.1-.57-.17-.18-.08-.34-.17-.49-.27-.15-.11-.27-.23-.38-.37l.42-.4c.19.27.43.47.72.59.29.13.59.19.92.19.28,0,.51-.04.7-.11.19-.07.34-.17.47-.28.12-.12.22-.25.29-.39.07-.14.12-.28.15-.42.03-.14.05-.27.06-.4,0-.13,0-.23,0-.31v-.58h-.02c-.16.25-.37.45-.63.59-.27.14-.58.22-.94.22-.31,0-.59-.06-.86-.17-.27-.11-.51-.26-.71-.46-.2-.19-.36-.42-.48-.68-.12-.26-.18-.53-.18-.83s.06-.57.18-.83c.12-.26.28-.48.48-.67.2-.19.44-.34.71-.46.27-.11.56-.17.86-.17.36,0,.67.07.94.22.27.14.48.34.63.59h.02v-.7h.54v3.89Zm-.52-1.86c0-.23-.04-.44-.13-.64-.09-.2-.2-.37-.35-.52-.15-.15-.32-.26-.52-.35-.2-.09-.42-.13-.64-.13s-.44.04-.64.13c-.2.09-.38.2-.52.35-.15.15-.26.32-.35.52-.09.2-.13.42-.13.64s.04.44.13.64c.09.2.2.38.35.52.15.15.32.26.52.35.2.09.42.13.64.13s.44-.04.64-.13c.2-.09.37-.2.52-.35.15-.15.26-.32.35-.52.09-.2.13-.42.13-.64Zm2.15-1.54h-.86v-.49h.86v-1.36c0-.27.04-.49.12-.67.08-.18.18-.32.3-.43.12-.11.25-.18.4-.23.15-.05.29-.07.42-.07.25,0,.46.04.62.11l-.11.47c-.12-.06-.28-.09-.49-.09-.49,0-.73.37-.73,1.11v1.16h.97v.49h-.97v3.67h-.54v-3.67Zm2.16-2.13c0-.11.04-.21.12-.29.08-.08.17-.12.29-.12s.21.04.29.12c.08.08.12.17.12.29s-.04.21-.12.29c-.08.08-.17.12-.29.12s-.21-.04-.29-.12c-.08-.08-.12-.17-.12-.29Zm.13,1.65h.54v4.16h-.54v-4.16Zm5.74,3.38c-.21.32-.47.55-.78.68-.31.14-.65.21-1.02.21-.32,0-.61-.05-.86-.16-.26-.11-.48-.26-.67-.45-.19-.19-.33-.43-.43-.69-.1-.27-.15-.56-.15-.89s.05-.6.15-.86c.1-.26.25-.49.43-.69.19-.19.4-.35.66-.46.25-.11.53-.17.84-.17s.6.06.84.17c.24.11.45.26.61.44.16.18.29.39.37.63.08.23.13.47.13.71v.38h-3.49c0,.11.02.26.07.44.04.18.13.35.25.52.12.17.28.31.48.43.2.12.46.18.78.18.28,0,.54-.07.8-.2.26-.13.46-.31.59-.54l.4.33Zm-.41-1.65c0-.19-.04-.36-.11-.52-.08-.16-.18-.3-.31-.43-.13-.12-.28-.22-.46-.29-.18-.07-.36-.11-.56-.11-.29,0-.54.06-.73.18-.2.12-.35.26-.46.41-.11.16-.2.31-.24.45-.05.15-.07.25-.07.3h2.95Zm1.84-4.37h.54v6.8h-.54v-6.8Zm5.71,6.08h-.02c-.08.14-.19.27-.32.37-.13.11-.26.19-.41.26-.15.07-.3.12-.46.15-.16.03-.32.05-.48.05-.32,0-.61-.05-.88-.16-.27-.11-.5-.26-.69-.45-.19-.19-.34-.43-.45-.69-.11-.27-.16-.56-.16-.88s.05-.61.16-.88c.11-.27.26-.5.45-.69.19-.19.42-.35.69-.45.27-.11.56-.16.88-.16.16,0,.32.02.48.05.16.03.32.08.46.15.15.07.28.16.41.26.13.11.23.23.32.37h.02v-3.38h.54v6.8h-.54v-.73Zm.05-1.35c0-.23-.04-.45-.14-.66-.09-.21-.21-.39-.37-.54-.16-.15-.34-.27-.55-.36-.21-.09-.44-.14-.68-.14s-.48.05-.68.14c-.2.09-.38.21-.52.36-.14.15-.25.33-.33.54-.08.21-.11.43-.11.66s.04.45.11.66c.07.21.18.39.33.54s.32.27.52.36c.2.09.43.14.68.14s.47-.04.68-.14c.21-.09.39-.21.55-.36.16-.15.28-.33.37-.54.09-.21.14-.43.14-.66Zm2.13,1.27h.63l-.69,2.05h-.53l.59-2.05Zm4.45-5.56h.89l2.32,5.35,2.32-5.35h.85v6.37h-.59v-5.62h-.02l-2.43,5.62h-.26l-2.47-5.62h-.02v5.62h-.59v-6.37Zm7.65,3.19c0-.49.08-.93.24-1.34.16-.41.39-.76.68-1.06s.63-.53,1.04-.7c.4-.17.85-.25,1.34-.25s.93.08,1.34.25c.41.17.75.4,1.04.7s.51.65.68,1.06c.16.41.24.85.24,1.34s-.08.93-.24,1.35c-.16.41-.39.77-.68,1.06s-.63.53-1.04.69c-.4.16-.85.25-1.34.25s-.93-.08-1.34-.25c-.4-.16-.75-.4-1.04-.69s-.51-.65-.68-1.06c-.16-.41-.24-.86-.24-1.35Zm.59,0c0,.4.06.76.19,1.11.13.34.31.64.54.89.23.25.52.45.85.59.33.14.71.22,1.12.22s.79-.07,1.12-.22c.33-.14.62-.34.85-.59s.41-.55.54-.89c.13-.34.19-.71.19-1.11s-.06-.77-.19-1.11c-.13-.34-.31-.64-.54-.89-.23-.25-.52-.45-.85-.59-.33-.14-.71-.22-1.12-.22s-.79.07-1.12.22c-.33.14-.62.34-.85.59-.23.25-.41.55-.54.89-.13.34-.19.71-.19,1.11Z"/>
    <text class="cls-16" transform="translate(170.38 108)"><tspan x="0" y="0"> </tspan></text>
    <text class="cls-16" transform="translate(174.88 108)"><tspan x="0" y="0">65806</tspan></text>
  </g>
</svg>