<?xml version="1.0" encoding="UTF-8"?>
<svg id="Layer_1" data-name="Layer 1" xmlns="http://www.w3.org/2000/svg" xmlns:xlink="http://www.w3.org/1999/xlink" viewBox="0 0 196.02 195.56">
  <defs>
    <style>
      .cls-1 {
        fill: none;
      }

      .cls-2 {
        clip-path: url(#clippath);
      }

      .cls-3 {
        fill: #231f20;
      }

      .cls-4 {
        clip-path: url(#clippath-1);
      }
    </style>
    <clipPath id="clippath">
      <rect class="cls-1" y="0" width="196.02" height="195.56"/>
    </clipPath>
    <clipPath id="clippath-1">
      <rect class="cls-1" y="0" width="196.02" height="195.56"/>
    </clipPath>
  </defs>
  <g class="cls-2">
    <path class="cls-3" d="m11.01,194.76c-7.47-.67-11.97.74-10.83-3.44,46.64-10.48,15.3-88.6,107.45-76.94v2.98c-20.43-3.84-27.45,30.26-32.62,40.48-6.1,21.39-34.66,42.08-64,36.92"/>
  </g>
  <polygon class="cls-3" points="89.92 113.19 89.92 113.38 90.41 113.19 89.92 113.19"/>
  <polygon class="cls-3" points="93.23 0 74.3 50.2 78.86 50.23 84.42 35.51 110.87 105.47 111.05 105.4 124.46 140.95 143.42 191.15 113.79 191.15 113.79 194.89 196.02 194.89 196.02 191.15 172.26 191.15 99.64 0 93.23 0"/>
  <rect class="cls-3" y="191.32" width="12.39" height="3.64"/>
  <g class="cls-4">
    <path class="cls-3" d="m14.43,190.72c-1.65-.1-3.29-.24-4.93-.44-.53-.06-1.22.3-1.57.65-.39.39-.68,1.02-.65,1.57.03.57.22,1.17.65,1.57.15.12.3.23.45.35.35.2.72.3,1.12.3,1.64.2,3.28.35,4.93.44.55.03,1.19-.27,1.57-.65.39-.39.68-1.02.65-1.57-.03-.58-.22-1.17-.65-1.57-.45-.41-.96-.62-1.57-.65"/>
  </g>
</svg>